<svg width="48" height="48" viewBox="0 0 48 48" fill="none" xmlns="http://www.w3.org/2000/svg">
<g clip-path="url(#clip0_1260_4778)">
<path d="M14.999 7.66357H17.8115V13.0174H14.999V7.66357Z" fill="#DEEDE6"/>
<path d="M22.5928 0H25.4053V3.92334H22.5928V0Z" fill="#DEEDE6"/>
<path d="M14.999 2.30969H17.8115V5.53694H14.999V2.30969Z" fill="#DEEDE6"/>
<path d="M22.5928 6.50867H25.4053V13.0174H22.5928V6.50867Z" fill="#DEEDE6"/>
<path d="M30.1865 2.30969H32.999V5.53694H30.1865V2.30969Z" fill="#DEEDE6"/>
<path d="M46.6547 22.5937H41.964C41.5153 21.3252 40.9363 20.1184 40.2427 18.9895H41.7797V16.177H30.6808V27.9805H27.8683V16.177H20.1284V23.0964H17.3159V16.177H6.2172V18.9895H7.75413C7.06048 20.1184 6.48157 21.3252 6.03288 22.5937H1.34473V25.4062H5.27538C5.05966 26.5538 4.94613 27.7375 4.94613 28.9478C4.94613 34.7637 7.55295 39.97 11.6608 43.4646V48H14.4733V45.4512C17.2755 47.0719 20.5284 48 23.9983 48C27.4682 48 30.7212 47.0719 33.5233 45.4512V48H36.3358V43.4646C40.4437 39.97 43.0504 34.7637 43.0504 28.9478C43.0504 27.7375 42.9369 26.5538 42.7212 25.4062H46.6545V22.5937H46.6547Z" fill="#DEEDE6"/>
<path d="M38.6581 13.3186L45.8755 6.1011L41.8981 2.12366L30.7031 13.3186H38.6581Z" fill="#DEEDE6"/>
</g>
<defs>
<clipPath id="clip0_1260_4778">
<rect width="48" height="48" fill="white"/>
</clipPath>
</defs>
</svg>
