<svg width="48" height="36" viewBox="0 0 48 36" fill="none" xmlns="http://www.w3.org/2000/svg">
<path d="M23.3787 17.5978C25.1596 17.5978 26.6032 16.1542 26.6032 14.3734C26.6032 12.5926 25.1596 11.1489 23.3787 11.1489C21.5979 11.1489 20.1543 12.5926 20.1543 14.3734C20.1543 16.1542 21.5979 17.5978 23.3787 17.5978Z" fill="#DEEDE6"/>
<path d="M17.494 29.1853C16.9713 28.8633 16.4596 28.5258 15.9546 28.1862C15.6943 28.0098 15.4715 27.8598 15.2069 27.6657L14.8121 27.3812L14.3798 27.0879C13.2219 26.3159 11.9141 25.6785 10.4651 25.3345C9.74165 25.1625 8.97855 25.0808 8.21103 25.1183C7.82727 25.1448 7.44352 25.1955 7.06417 25.2815C6.68924 25.3764 6.32092 25.4977 5.97245 25.6565C4.57636 26.2983 3.53095 27.5003 3.21777 28.8346C4.27641 27.9943 5.42769 27.5554 6.50177 27.4826C7.58026 27.4143 8.60361 27.6679 9.61373 28.0892C10.6239 28.5104 11.6031 29.1147 12.5779 29.7698C13.0323 30.0918 13.5991 30.4976 14.1725 30.8725C14.7349 31.2474 15.3194 31.5871 15.9082 31.9113C18.2681 33.2125 20.7846 34.1631 23.354 34.7939C24.6442 35.1049 25.9433 35.3453 27.2556 35.4842C28.5656 35.6254 29.8867 35.6915 31.2034 35.579C28.7487 34.6483 26.3866 33.7044 24.0907 32.659C21.7947 31.6158 19.5848 30.4777 17.494 29.1853Z" fill="#DEEDE6"/>
<path d="M47.9961 14.6026L42.3898 12.6309L39.2557 13.0257L39.2205 13.1205L11.2635 4.51025L11.301 4.41101L9.15504 2.09523L3.59276 0C1.90335 2.32019 2.01804 4.18384 2.01804 4.18384L7.58031 6.27907L10.7209 5.95265L10.7408 5.89751L13.9013 6.87014C13.7954 7.22523 13.8263 7.61781 14.0336 7.95745C14.0358 7.96186 14.038 7.96628 14.038 7.96628L16.506 17.5007L15.6833 21.7286C13.8903 21.0008 11.9604 20.4847 9.96226 20.423C7.86482 20.3414 5.69681 20.8155 3.91256 21.8918C3.02374 22.4278 2.22976 23.0872 1.5637 23.8437C0.902051 24.598 0.348469 25.4427 0 26.3558C1.31007 24.9266 2.91126 23.901 4.58965 23.332C6.27245 22.7586 8.02803 22.677 9.73288 22.9571C11.4421 23.2372 13.1073 23.8481 14.7085 24.6421C15.5069 25.0435 16.2987 25.4736 17.0662 25.9566C17.8425 26.4263 18.6034 26.9292 19.3467 27.4695C19.704 27.7232 20.134 28.0297 20.5465 28.3054C20.9611 28.5855 21.3779 28.8612 21.8058 29.1193C22.666 29.6353 23.5482 30.1228 24.4701 30.5484C26.3116 31.3931 28.3054 32.0526 30.4095 32.2202C31.4593 32.3062 32.5312 32.2643 33.5766 32.057C34.622 31.8497 35.6321 31.4747 36.5342 30.941C37.4362 30.4073 38.2324 29.7258 38.8742 28.9428C39.5138 28.1621 40.0233 27.2887 40.3144 26.358C39.0925 27.8621 37.5222 28.9472 35.8593 29.4942C34.1941 30.05 32.4474 30.05 30.7601 29.6883C29.0685 29.3266 27.421 28.6407 25.8441 27.7893C25.586 27.6504 25.3324 27.5048 25.0766 27.3593L27.3019 20.3766L34.9109 14.3755C34.9153 14.3755 34.9175 14.3755 34.9219 14.3688C35.2417 14.177 35.4513 13.8726 35.5351 13.5374L38.7264 14.5188L38.7022 14.585L40.8988 16.8545L46.5052 18.8262C48.1505 16.4641 47.9961 14.6026 47.9961 14.6026ZM27.3703 16.8809C27.3593 16.8875 27.3504 16.8941 27.3416 16.9008C21.5169 20.9765 19.007 14.5541 19.007 14.5541L16.7596 7.75014L32.7208 12.6662L27.3703 16.8809Z" fill="#DEEDE6"/>
</svg>
