<svg width="38" height="34" viewBox="0 0 38 34" fill="none" xmlns="http://www.w3.org/2000/svg">
<path d="M21.6885 0.688402C20.2822 0.963037 19.3587 2.32324 19.6333 3.73094C19.9079 5.13794 21.277 6.06013 22.6839 5.78415C24.091 5.51022 25.0057 4.14251 24.7303 2.73551C24.4559 1.32851 23.0969 0.413767 21.6885 0.688402Z" fill="#3C6C54"/>
<path d="M6.10343 3.57639C4.77167 3.83607 3.89834 5.12372 4.15801 6.4562C4.41839 7.78796 5.71357 8.65994 7.04462 8.39956C8.37709 8.13981 9.24226 6.84542 8.98188 5.51437C8.7215 4.1819 7.43519 3.31594 6.10343 3.57639Z" fill="#3C6C54"/>
<path d="M35.8239 22.8758C35.4123 22.1034 34.7485 22.1048 34.3403 22.8799L34.1226 23.2941L31.1974 4.28423L31.1825 4.23948C31.0767 3.9357 30.7383 3.76552 30.4264 3.87465C30.1457 3.97229 30.006 4.26657 30.0427 4.56219L31.1703 11.8773L27.4843 11.6799L25.5945 7.62098C25.2765 6.93747 24.4092 6.41465 23.6573 6.45195L21.2685 6.66759C20.5158 6.7056 19.8859 7.34563 19.8621 8.09835L18.9996 28.3675C18.9996 28.3817 19.0037 28.3953 19.0043 28.4096C18.803 28.4387 18.6097 28.4761 18.4416 28.5283L18.4198 28.5351L15.102 6.97754L15.0871 6.93549C14.9874 6.64795 14.6674 6.48727 14.3718 6.5903C14.1059 6.68255 13.9737 6.96123 14.0084 7.24062L15.075 14.1632L11.5876 13.978L9.79885 10.1367C9.49848 9.48982 8.67798 8.99479 7.96533 9.03074L5.70394 9.23482C4.99194 9.27078 4.39523 9.87699 4.37353 10.5896L3.557 29.7718C3.55906 29.8925 3.57395 30.0078 3.59636 30.121C3.616 30.2221 3.64791 30.317 3.68315 30.4099L2.89527 30.121C2.07413 29.8201 1.07941 30.2038 0.673875 30.9795L0.162614 31.9566C-0.243558 32.733 0.137512 33.3603 1.01226 33.3603H35.4748C36.3502 33.3603 37.1991 32.6651 37.37 31.8068L37.9376 28.9724C38.1092 28.1139 37.9145 26.7923 37.5022 26.0206L35.8239 22.8758ZM9.49422 29.0652L7.79224 30.4635C7.45861 30.7374 6.99415 30.9246 6.50998 31.01C6.79 30.7293 6.97238 30.3598 7.00975 29.9583L7.43081 19.9804L11.8492 28.4923C11.0599 28.3621 10.0767 28.5873 9.49422 29.0652ZM14.9317 29.2782C15.2593 28.8924 15.4192 28.3716 15.3142 27.8332C15.2891 27.7044 15.2498 27.587 15.2037 27.467L9.41764 16.095L9.46373 14.6276L9.93089 15.684C10.2977 16.3587 10.9677 16.3031 10.9677 16.3031L15.089 16.5329C15.1718 16.5323 15.2491 16.5241 15.3277 16.5092C15.3637 16.5024 15.3962 16.4882 15.4301 16.4787L17.3403 28.8712L16.5869 29.1051C16.132 29.247 15.5244 29.3019 14.9317 29.2782ZM22.6387 29.0287L22.5472 28.9954C22.596 28.8564 22.6341 28.7133 22.6475 28.5642L23.0923 18.0207L27.4612 26.4398L25.2839 28.4822C24.6465 29.0802 23.4612 29.3249 22.6387 29.0287ZM30.9534 25.241L25.1917 13.917L25.2398 12.3662L25.7342 13.4823C26.1214 14.195 26.8299 14.1367 26.8299 14.1367L31.1846 14.3788C31.272 14.3782 31.3541 14.37 31.4368 14.3544C31.4748 14.347 31.5094 14.3321 31.546 14.3219L33.1354 24.6341C32.6567 25.0003 32.0539 25.241 31.5128 25.241H30.9534V25.241Z" fill="#3C6C54"/>
</svg>
