<svg width="32" height="38" viewBox="0 0 32 38" fill="none" xmlns="http://www.w3.org/2000/svg">
<path d="M19.3693 30.9877H12.6279C12.1061 30.9877 11.6826 31.4112 11.6826 31.933C11.6826 32.4552 12.1061 32.8786 12.6279 32.8786H19.3693C19.8911 32.8786 20.315 32.4552 20.315 31.933C20.3151 31.4112 19.8913 30.9877 19.3693 30.9877Z" fill="#3C6C54"/>
<path d="M14.2624 36.498C14.3906 37.3465 15.1155 38 16.0006 38C16.8847 38 17.6114 37.3468 17.7391 36.498C18.8963 36.4296 19.816 35.4786 19.816 34.3043H12.1807C12.1807 35.4793 13.103 36.431 14.2624 36.498Z" fill="#3C6C54"/>
<path d="M16.0006 5.45417C16.698 5.45417 17.2618 4.88966 17.2618 4.19348V1.26068C17.2618 0.564272 16.6981 0 16.0006 0C15.3039 0 14.7402 0.564272 14.7402 1.26068V4.19348C14.7403 4.88966 15.304 5.45417 16.0006 5.45417Z" fill="#3C6C54"/>
<path d="M7.72802 7.29088C7.9756 7.63082 8.35978 7.81121 8.75028 7.81121C9.00625 7.81121 9.26584 7.73294 9.48979 7.5704C10.0526 7.16159 10.1782 6.37329 9.76939 5.81009L8.04578 3.43664C7.63589 2.87391 6.84913 2.74708 6.28439 3.15712C5.72174 3.5657 5.59614 4.35424 6.00495 4.91743L7.72802 7.29088Z" fill="#3C6C54"/>
<path d="M24.2712 25.7709C23.8623 25.2082 23.0746 25.0834 22.5103 25.4923C21.948 25.9015 21.8225 26.6899 22.2325 27.253L23.9571 29.6266C24.203 29.9657 24.5872 30.1463 24.978 30.1463C25.2348 30.1463 25.4934 30.068 25.7174 29.9056C26.2801 29.4962 26.4056 28.7077 25.9959 28.1444L24.2712 25.7709Z" fill="#3C6C54"/>
<path d="M4.65817 11.5197L1.8682 10.6124C1.19972 10.3969 0.494766 10.7594 0.279124 11.4218C0.0634039 12.0834 0.425656 12.795 1.08782 13.0104L3.87779 13.9178C4.00808 13.9597 4.13845 13.9801 4.26767 13.9801C4.79946 13.9801 5.29309 13.6414 5.46687 13.1083C5.68251 12.4467 5.32033 11.7351 4.65817 11.5197Z" fill="#3C6C54"/>
<path d="M30.9134 20.051L28.1241 19.145C27.4614 18.9312 26.7511 19.2926 26.5358 19.9543C26.3202 20.6166 26.6834 21.3279 27.3455 21.5432L30.1355 22.4492C30.2649 22.4911 30.3951 22.5113 30.5244 22.5113C31.0562 22.5113 31.5498 22.1721 31.7236 21.6398C31.9387 20.9772 31.5759 20.2665 30.9134 20.051Z" fill="#3C6C54"/>
<path d="M3.87871 19.145L1.08775 20.0498C0.42558 20.2645 0.0623274 20.9753 0.278047 21.6379C0.450284 22.171 0.944831 22.5102 1.47663 22.5102C1.605 22.5102 1.73683 22.4896 1.86612 22.4477L4.65655 21.543C5.31926 21.3281 5.68243 20.6172 5.46687 19.9549C5.25276 19.2931 4.54704 18.9311 3.87871 19.145Z" fill="#3C6C54"/>
<path d="M27.7351 13.9801C27.8644 13.9801 27.9947 13.9597 28.1242 13.9178L30.9135 13.0117C31.5759 12.7963 31.9387 12.0852 31.7235 11.4231C31.5078 10.7613 30.7941 10.3996 30.1355 10.6137L27.3455 11.5196C26.6833 11.735 26.3202 12.4461 26.5358 13.1083C26.7092 13.6409 27.2033 13.9801 27.7351 13.9801Z" fill="#3C6C54"/>
<path d="M7.72944 25.7705L6.00314 28.1426C5.59325 28.7058 5.71785 29.4942 6.28166 29.9036C6.50454 30.0667 6.7642 30.1452 7.02117 30.1452C7.41167 30.1452 7.79585 29.9654 8.04197 29.6261L9.76819 27.2539C10.1781 26.6909 10.0535 25.9023 9.48967 25.4928C8.9284 25.0812 8.13656 25.2074 7.72944 25.7705Z" fill="#3C6C54"/>
<path d="M23.9561 3.43659L22.2325 5.81004C21.8237 6.37324 21.9492 7.16162 22.5121 7.57035C22.7361 7.73289 22.9956 7.81116 23.2515 7.81116C23.642 7.81116 24.0261 7.63084 24.2733 7.29083L25.9969 4.9173C26.4056 4.35411 26.2801 3.56558 25.7172 3.15699C25.1511 2.74595 24.366 2.87263 23.9561 3.43659Z" fill="#3C6C54"/>
<path d="M25.1059 16.5775C25.1059 11.5479 21.0288 7.47061 15.9998 7.47061C10.9697 7.47061 6.89258 11.5479 6.89258 16.5775C6.89258 18.6993 7.62232 20.6475 8.84137 22.1942C9.90965 23.5496 10.9214 25.0293 11.7982 26.5183V29.5433H20.1496V26.5986C21.0183 25.1504 22.1414 23.4829 23.1561 22.1956C24.3762 20.6485 25.1059 18.7006 25.1059 16.5775Z" fill="#3C6C54"/>
</svg>
