<svg width="38" height="34" viewBox="0 0 38 34" fill="none" xmlns="http://www.w3.org/2000/svg">
<path d="M1.11163 27.0199H30.2067C30.4676 27.0199 30.7199 26.9287 30.9199 26.7622C31.1993 26.5282 37.574 21.0443 37.9627 9.20663H6.71525C6.32803 19.9521 0.457211 25.0027 0.396201 25.0531C0.0385244 25.3554 -0.0930714 25.849 0.0678421 26.2883C0.227642 26.7264 0.644102 27.0199 1.11163 27.0199Z" fill="#3C6C54"/>
<path d="M36.8861 2.52665H31.3195V1.41332C31.3195 0.789853 30.8296 0.299988 30.2061 0.299988C29.5827 0.299988 29.0928 0.789853 29.0928 1.41332V2.52665H23.4519V1.41332C23.4519 0.789853 22.9621 0.299988 22.3386 0.299988C21.7151 0.299988 21.2253 0.789853 21.2253 1.41332V2.52665H15.6586V1.41332C15.6586 0.789853 15.1687 0.299988 14.5453 0.299988C13.9218 0.299988 13.4319 0.789853 13.4319 1.41332V2.52665H7.86528C7.24182 2.52665 6.75195 3.01652 6.75195 3.63998V6.97998H37.9995V3.63998C37.9995 3.01652 37.5096 2.52665 36.8861 2.52665Z" fill="#3C6C54"/>
<path d="M32.3491 28.4693C31.7445 28.9727 30.9857 29.2467 30.2061 29.2467H6.75195V32.5867C6.75195 33.2021 7.24991 33.7 7.86528 33.7H36.8861C37.5015 33.7 37.9995 33.2021 37.9995 32.5867V20.1065C35.8529 25.3727 32.8576 28.0436 32.3491 28.4693Z" fill="#3C6C54"/>
</svg>
