<svg width="47" height="28" viewBox="0 0 47 28" fill="none" xmlns="http://www.w3.org/2000/svg">
<path d="M14.5225 1.18555L3.21328 23.287L2.63085 21.7386C2.36653 21.0358 1.58277 20.6809 0.880741 20.9453C0.17836 21.2096 -0.176899 21.993 0.0874223 22.6954C0.0874223 22.6954 1.75615 27.1294 1.75827 27.1347C1.95324 27.6375 2.47233 28.0002 3.02362 28.0002L28.2428 27.9999L14.5225 1.18555ZM14.2472 13.2141L20.4221 25.2823H8.07191L14.2472 13.2141Z" fill="#3C6C54"/>
<path d="M44.7017 27.1331L46.2855 23.0597C46.5573 22.3601 46.2109 21.5728 45.5113 21.3007C44.8114 21.029 44.0245 21.3754 43.7527 22.0749L43.2658 23.3268L31.6728 0.706273C31.4892 0.347475 31.1559 0.0888149 30.7624 0H16.9678L29.0342 23.5823L29.8042 21.979C30.129 21.3028 30.9404 21.0176 31.6173 21.3425C32.2938 21.6673 32.5787 22.479 32.2538 23.1556L29.9871 27.9997H43.4272C44.0319 27.9997 44.4636 27.7354 44.7017 27.1331Z" fill="#3C6C54"/>
</svg>
