<svg width="38" height="38" viewBox="0 0 38 38" fill="none" xmlns="http://www.w3.org/2000/svg">
<path d="M28.5005 4.81054C27.0986 3.53296 25.4556 2.54813 23.6681 1.91378C21.8805 1.27943 19.9843 1.00833 18.0906 1.11637C16.197 1.22441 14.3439 1.70942 12.6401 2.54297C10.9363 3.37651 9.41606 4.54182 8.16849 5.97056C6.92093 7.39931 5.97116 9.06274 5.37485 10.8633C4.77855 12.6639 4.54772 14.5655 4.69589 16.4564C4.84407 18.3474 5.36826 20.1898 6.23775 21.8755C7.10724 23.5612 8.30452 25.0564 9.75939 26.2734C13.0855 29.0387 15.8647 32.4023 17.9531 36.1902C18.0552 36.3789 18.2065 36.5363 18.391 36.6459C18.5754 36.7555 18.786 36.813 19.0005 36.8125C19.2149 36.8124 19.4252 36.7542 19.6092 36.6443C19.7931 36.5343 19.9439 36.3766 20.0455 36.1879L20.1429 36.005C22.2464 32.2629 25.0197 28.9393 28.3248 26.1998C29.8564 24.8762 31.0881 23.2412 31.9378 21.4039C32.7875 19.5665 33.2356 17.5691 33.2522 15.5449C33.2688 13.5207 32.8536 11.5162 32.0342 9.66519C31.2149 7.81416 30.0102 6.15914 28.5005 4.81054ZM19.0005 21.375C17.8262 21.375 16.6782 21.0267 15.7018 20.3743C14.7254 19.7219 13.9644 18.7946 13.515 17.7097C13.0656 16.6247 12.948 15.4309 13.1771 14.2791C13.4062 13.1274 13.9717 12.0694 14.8021 11.239C15.6324 10.4087 16.6904 9.84317 17.8422 9.61407C18.9939 9.38497 20.1878 9.50255 21.2727 9.95194C22.3576 10.4013 23.285 11.1624 23.9374 12.1388C24.5898 13.1152 24.938 14.2632 24.938 15.4375C24.9361 17.0116 24.31 18.5208 23.1969 19.6338C22.0838 20.7469 20.5747 21.3731 19.0005 21.375Z" fill="#3C6C54"/>
</svg>
