<svg width="326" height="326" viewBox="0 0 326 326" fill="none" xmlns="http://www.w3.org/2000/svg">
<path d="M316.075 185.077C281.827 132.637 285.467 78.8829 268.959 53.6089C252.45 28.3348 203.252 -15.2405 87.0053 60.6903C-29.2408 136.621 0.32556 219.163 18.491 246.954C103.505 377.11 376.738 277.951 316.075 185.077V185.077Z" fill="#F8F8F8"/>
<path d="M237.708 246.764C237.708 256.77 229.604 264.875 219.597 264.875H79.2361C69.2297 264.875 61.125 256.77 61.125 246.764V106.403C61.125 96.3964 69.2297 88.2917 79.2361 88.2917H219.597C229.604 88.2917 237.708 96.3964 237.708 106.403V246.764Z" fill="#2FDF84"/>
<path d="M81.5 246.764V106.403C81.5 96.3964 89.6047 88.2917 99.6111 88.2917H79.2361C69.2297 88.2917 61.125 96.3964 61.125 106.403V246.764C61.125 256.77 69.2297 264.875 79.2361 264.875H99.6111C89.6047 264.875 81.5 256.77 81.5 246.764Z" fill="#3BC57D"/>
<path d="M275.762 40.7545L288.568 27.948L294.971 34.3513L282.165 47.1577L275.762 40.7545Z" fill="#46C691"/>
<path d="M238.943 32.7451L245.347 26.3418L258.153 39.1483L251.75 45.5515L238.943 32.7451Z" fill="#46C691"/>
<path d="M275.758 69.5649L282.161 63.1617L294.968 75.9682L288.564 82.3714L275.758 69.5649Z" fill="#46C691"/>
<path d="M54.3333 63.5428C46.8444 63.5428 40.75 57.4484 40.75 49.9595C40.75 42.4706 46.8444 36.3762 54.3333 36.3762C61.8223 36.3762 67.9167 42.4706 67.9167 49.9595C67.9167 57.4484 61.8223 63.5428 54.3333 63.5428ZM54.3333 45.4317C51.834 45.4317 49.8056 47.4692 49.8056 49.9595C49.8056 52.4498 51.834 54.4873 54.3333 54.4873C56.8327 54.4873 58.8611 52.4498 58.8611 49.9595C58.8611 47.4692 56.8327 45.4317 54.3333 45.4317Z" fill="#46C691"/>
<path d="M219.598 271.667H79.2368C65.4995 271.667 54.334 260.501 54.334 246.764V106.403C54.334 92.6655 65.4995 81.5 79.2368 81.5H192.431V95.0833H79.2368C72.9975 95.0833 67.9173 100.163 67.9173 106.403V246.764C67.9173 253.003 72.9975 258.083 79.2368 258.083H219.598C225.837 258.083 230.917 253.003 230.917 246.764V169.792H244.501V246.764C244.501 260.501 233.335 271.667 219.598 271.667Z" fill="#444440"/>
<path d="M165.264 194.694C163.526 194.694 161.787 194.033 160.465 192.702L119.715 151.952L129.323 142.344L165.273 178.295L260.076 83.4922L269.684 93.1002L170.073 192.711C168.742 194.033 167.003 194.694 165.264 194.694Z" fill="#444440"/>
</svg>
