<?xml version="1.0" standalone="no"?>
<!DOCTYPE svg PUBLIC "-//W3C//DTD SVG 1.1//EN" "http://www.w3.org/Graphics/SVG/1.1/DTD/svg11.dtd" >
<svg xmlns="http://www.w3.org/2000/svg" xmlns:xlink="http://www.w3.org/1999/xlink" version="1.1">
<metadata>
Created by FontForge 20170731 at Wed Nov 18 05:24:40 2020
 By Aleksey,,,
Copyright (c) 2020 by BlackFontLab. All Rights Reserved.
</metadata>
<defs>
<font id="Bourton-Regular" horiz-adv-x="466" >
  <font-face 
    font-family="Bourton Regular"
    font-weight="400"
    font-stretch="normal"
    units-per-em="900"
    panose-1="0 0 0 0 0 0 0 0 0 0"
    ascent="720"
    descent="-180"
    x-height="656"
    cap-height="656"
    bbox="-1 -171 903 847"
    underline-thickness="45"
    underline-position="-134"
    unicode-range="U+000D-20AC"
  />
<missing-glyph horiz-adv-x="450" 
 />
    <glyph glyph-name=".notdef" horiz-adv-x="450" 
 />
    <glyph glyph-name=".null" horiz-adv-x="0" 
 />
    <glyph glyph-name=".null" horiz-adv-x="0" 
 />
    <glyph glyph-name="uni000D" unicode="&#xd;" horiz-adv-x="0" 
 />
    <glyph glyph-name="space" unicode=" " horiz-adv-x="198" 
 />
    <glyph glyph-name="exclam" unicode="!" horiz-adv-x="203" 
d="M36 635q0 9 6 15t15 6h90q8 0 14 -6t6 -15v-443q0 -9 -6 -15t-14 -6h-90q-9 0 -15 6t-6 15v443zM42 59q0 25 17.5 42t42.5 17q24 0 41.5 -17t17.5 -42t-17.5 -42t-41.5 -17q-25 0 -42.5 17t-17.5 42z" />
    <glyph glyph-name="quotedbl" unicode="&#x22;" horiz-adv-x="293" 
d="M36 515v126q0 6 5 10.5t11 4.5h62q6 0 8.5 -3t2.5 -6q0 -1 -1 -3l-32 -131q-2 -6 -7 -10t-11 -4h-23q-6 0 -10.5 5t-4.5 11zM172 652q4 4 11 4h63q4 0 7 -4t3 -8l-33 -131q-2 -6 -7 -10t-11 -4h-22q-7 0 -11.5 5t-4.5 11v126q0 6 5 11z" />
    <glyph glyph-name="numbersign" unicode="#" horiz-adv-x="473" 
d="M41 291q4 4 10 4h46q2 0 3.5 1.5t1.5 3.5l11 55v1q-1 5 -6 5h-36q-6 0 -10.5 5t-4.5 11v60q0 7 4.5 11.5t10.5 4.5h55q5 0 5 4l13 66q2 7 7 11t11 4h59q8 0 12 -5.5t4 -10.5v-3l-12 -60q0 -3 2 -4.5t3 -1.5h61q4 0 4 4l13 66q1 6 6.5 10.5t11.5 4.5h59q7 0 11.5 -5.5
t4.5 -11.5v-2l-13 -66h32q7 0 11.5 -4.5t5.5 -11.5v-60q-1 -6 -5.5 -11t-11.5 -5h-45q-3 0 -5 -5l-10 -54v-2q0 -5 5 -5h36q6 0 11 -4.5t5 -10.5v-60q0 -7 -4.5 -12t-11.5 -5h-55q-2 0 -3.5 -1t-1.5 -3l-12 -66q-2 -7 -7 -11t-11 -4h-60q-7 0 -11.5 5t-4.5 10q0 2 1 4l11 60
q0 3 -1.5 4.5t-3.5 1.5h-60q-4 0 -6 -4l-11 -66q-1 -6 -6.5 -10.5t-12.5 -4.5h-59q-7 0 -11.5 5.5t-4.5 11.5v2l12 60v2q0 4 -6 4h-26q-6 0 -10.5 5t-4.5 12v60q0 6 5 11zM197 297q2 -2 4 -2h60q4 0 5 5l10 55v1q0 5 -5 5h-59q-4 0 -6 -5l-10 -54v-2q0 -2 1 -3z" />
    <glyph glyph-name="dollar" unicode="$" horiz-adv-x="453" 
d="M42 228q5 3 10 3q2 0 5 -1l97 -29q6 -1 9.5 -6t3.5 -11v-41q0 -5 4 -9l13 -12q2 -4 9 -4h67q5 0 10 4l12 12q3 4 3 9v69q0 8 -7 12l-225 142q-17 12 -17 32v165q0 15 11 26l57 56q10 11 26 11h21q2 0 4 2t2 4v12q0 9 5.5 15.5t14.5 6.5h98q9 0 15 -6.5t6 -15.5v-12
q0 -2 2 -4t4 -2h20q16 0 26 -11l58 -56q11 -11 11 -26v-122q0 -8 -5.5 -12t-10.5 -4q-3 0 -5 1l-97 29q-6 2 -10 7t-4 11v40q0 6 -3 9l-12 13q-5 3 -10 3h-67q-5 0 -10 -3l-12 -13q-4 -3 -4 -9v-55q0 -8 8 -13l225 -142q17 -11 17 -31v-178q0 -16 -11 -26l-57 -57
q-11 -11 -26 -11h-21q-2 0 -4 -2t-2 -3v-13q0 -9 -6 -15.5t-15 -6.5h-98q-9 0 -14.5 6.5t-5.5 15.5v13q0 1 -2 3t-4 2h-20q-18 0 -27 11l-57 57q-11 10 -11 26v121q0 8 6 13z" />
    <glyph glyph-name="percent" unicode="%" horiz-adv-x="676" 
d="M181 21l205 623q5 12 18 12h76q8 0 12 -5.5t4 -10.5q0 -3 -1 -5l-206 -622q-5 -13 -17 -13h-77q-8 0 -11.5 5.5t-3.5 9.5q0 3 1 6zM410 249l33 34q8 6 15 6h127q7 0 15 -6l34 -34q6 -6 6 -15v-179q0 -9 -6 -15l-34 -34q-6 -6 -15 -6h-127q-7 0 -15 6l-33 34q-7 6 -7 15
v179q0 9 7 15zM42 617l34 33q5 6 14 6h128q9 0 14 -6l34 -33q7 -7 7 -15v-180q0 -7 -7 -15l-34 -33q-6 -7 -14 -7h-128q-8 0 -14 7l-34 33q-6 6 -6 15v180q0 9 6 15zM482 77l6 -5q3 -4 8 -4h52q4 0 7 4l6 5q2 3 2 8v119q0 5 -2 8l-6 5q-3 3 -7 4h-52q-3 -1 -8 -4l-6 -5
q-2 -3 -2 -8v-119q0 -5 2 -8zM113 572v-120q0 -5 2 -7l6 -6q2 -2 7 -2h52q4 0 8 2l5 6q3 2 3 7v120q0 5 -3 8l-5 5q-4 3 -8 3h-52q-5 0 -7 -3l-6 -5q-2 -3 -2 -8z" />
    <glyph glyph-name="ampersand" unicode="&#x26;" horiz-adv-x="480" 
d="M36 306q0 17 11 26l27 27q1 1 1 2t-1 2l-7 7q-11 11 -11 26v167q0 15 11 26l56 56q11 11 26 11h203q9 0 15 -6t6 -15v-76q0 -9 -6 -15t-15 -6h-140q-4 0 -9 -3l-12 -13q-4 -3 -4 -9v-87q0 -7 4 -10l12 -12q3 -3 9 -3h210q9 -1 15 -7t6 -15v-76q0 -9 -6 -14.5t-15 -5.5
q-2 0 -3.5 -2t-1.5 -4v-183q0 -16 -11 -26l-57 -57q-11 -11 -26 -11h-193q-17 0 -26 11l-57 57q-11 10 -11 26v212zM171 134l12 -12q4 -4 10 -4h67q5 0 10 4l12 12q3 4 3 9v129q0 4 -3 7.5t-7 3.5h-82q-6 0 -10 -5l-12 -12q-4 -3 -4 -9v-114q0 -5 4 -9z" />
    <glyph glyph-name="quotesingle" unicode="'" horiz-adv-x="161" 
d="M36 641q0 6 5 10.5t11 4.5h62q6 0 8.5 -3t2.5 -6q0 -1 -1 -3l-32 -131q-2 -6 -7 -10t-11 -4h-22q-6 0 -11 5t-5 11v126z" />
    <glyph glyph-name="parenleft" unicode="(" horiz-adv-x="276" 
d="M47 707l57 56q10 11 26 11h89q9 0 14.5 -6t5.5 -15v-75q0 -9 -5.5 -15.5t-14.5 -6.5h-26q-7 0 -10 -3l-12 -12q-4 -4 -4 -10v-606q0 -6 4 -9l12 -12q5 -4 10 -4h26q9 0 14.5 -6t5.5 -15v-76q0 -9 -5.5 -15t-14.5 -6h-89q-16 0 -26 11l-57 57q-11 10 -11 26v704
q0 16 11 27z" />
    <glyph glyph-name="parenright" unicode=")" horiz-adv-x="276" 
d="M36 678v75q0 9 6 15t15 6h89q15 0 26 -11l57 -56q10 -11 10 -27v-704q0 -16 -10 -26l-57 -57q-11 -11 -26 -11h-89q-9 0 -15 6t-6 15v76q0 9 6 15t15 6h26q4 0 10 4l11 12q4 3 4 9v606q0 6 -4 10l-11 12q-4 3 -10 3h-26q-9 0 -15 6.5t-6 15.5z" />
    <glyph glyph-name="asterisk" unicode="*" horiz-adv-x="313" 
d="M37 553l14 44q2 6 7.5 8.5t9.5 2.5h3l42 -15q4 0 4 3v45q0 6 5 10.5t11 4.5h47q6 0 11 -4.5t5 -10.5v-45q0 -3 4 -3l41 15h6q5 0 9.5 -3t5.5 -8l14 -44q1 -2 1 -6q0 -5 -3 -9.5t-8 -5.5l-42 -14q-1 0 -1.5 -0.5t-0.5 -1.5v-1l26 -36q3 -4 3 -9q0 -8 -6 -14l-38 -28
q-5 -2 -10 -2q-7 0 -12 6l-27 36q-1 1 -1 2q-2 -1 -3 -2l-26 -36q-4 -6 -12 -6q-6 0 -10 2l-38 28q-6 6 -6 14q0 5 3 9l26 36q0 1 1 1l-1.5 1.5t-1.5 0.5l-42 14q-6 2 -8.5 7t-2.5 9q0 2 1 5z" />
    <glyph glyph-name="plus" unicode="+" horiz-adv-x="348" 
d="M36 352q0 6 5 10.5t11 4.5h77q5 0 5 6v77q0 7 5 11.5t11 4.5h47q7 0 11.5 -4.5t4.5 -11.5v-77q0 -2 2 -4t4 -2h77q6 0 10.5 -4.5t4.5 -10.5v-48q0 -6 -4.5 -10.5t-10.5 -4.5h-77q-2 0 -4 -2t-2 -3v-78q0 -6 -4.5 -11t-11.5 -5h-47q-6 0 -11 5t-5 11v78q0 5 -5 5h-77
q-6 0 -11 4.5t-5 10.5v48z" />
    <glyph glyph-name="comma" unicode="," horiz-adv-x="155" 
d="M53 101q17 17 42 17t42 -17t17 -42q0 -18 -8.5 -46.5t-15.5 -46.5q-1 -6 -8 -6h-19q-3 0 -5.5 2.5t-2.5 5.5v32h-7q-10 0 -21.5 5.5t-18.5 17.5q-12 18 -12 36q0 25 17 42z" />
    <glyph glyph-name="hyphen" unicode="-" horiz-adv-x="348" 
d="M36 304v48q0 6 5 10.5t11 4.5h244q6 0 10.5 -4.5t4.5 -10.5v-48q0 -6 -4.5 -10.5t-10.5 -4.5h-244q-6 0 -11 4.5t-5 10.5z" />
    <glyph glyph-name="period" unicode="." horiz-adv-x="155" 
d="M53 101q17 17 42 17t42 -17t17 -42t-17 -42t-42 -17t-42 17t-17 42t17 42z" />
    <glyph glyph-name="slash" unicode="/" horiz-adv-x="388" 
d="M37 21l205 623q5 12 18 12h76q8 0 12 -5.5t4 -10.5q0 -3 -1 -5l-206 -622q-2 -6 -6.5 -9.5t-10.5 -3.5h-76q-8 0 -12 5.5t-4 10.5q0 2 1 5z" />
    <glyph glyph-name="zero" unicode="0" horiz-adv-x="448" 
d="M27 94v469q0 15 11 26l57 56q10 11 26 11h206q15 0 26 -11l57 -56q10 -12 10 -24v-2v-469q0 -16 -10 -26l-57 -57q-11 -11 -26 -11h-206q-16 0 -26 11l-57 57q-11 10 -11 26zM162 134l12 -12q4 -4 10 -4h81q4 0 9 4l11 12q5 5 5 9v370q0 6 -5 9l-11 13q-6 3 -9 3h-81
q-5 0 -10 -3l-12 -13q-4 -3 -4 -9v-370q0 -5 4 -9z" />
    <glyph glyph-name="one" unicode="1" horiz-adv-x="203" 
d="M36 21v542q0 15 11 26l57 56q10 11 27 11h16q8 0 14 -6t6 -15v-614q0 -9 -6 -15t-14 -6h-90q-9 0 -15 6t-6 15z" />
    <glyph glyph-name="two" unicode="2" horiz-adv-x="440" 
d="M36 230q0 17 13 27l218 194q6 7 6 13v49q0 6 -5 9l-11 13q-6 3 -9 3h-55q-5 0 -10 -3l-12 -13q-4 -3 -4 -9v-40q0 -6 -3.5 -11t-9.5 -7l-102 -30q-6 0 -11 5t-5 11v122q0 15 11 26l57 56q9 11 27 11h179q15 0 26 -11l56 -56q11 -11 11 -26v-149q0 -16 -11 -28l-219 -194
q-6 -4 -6 -12v-51q0 -5 3 -8t7 -3h206q8 0 14 -6t6 -15v-76q0 -9 -6 -15t-14 -6h-326q-9 0 -15 6t-6 15v209z" />
    <glyph glyph-name="three" unicode="3" horiz-adv-x="453" 
d="M36 94v121q0 8 5.5 12t10.5 4q2 0 4 -1l98 -29q6 -1 9.5 -6t3.5 -11v-41q0 -5 4 -9l12 -12q4 -4 10 -4h67q6 0 9 4l13 12q3 4 3 9v126q0 6 -3 10l-14 13q-3 3 -9 3h-78q-6 0 -11 3.5t-7 9.5l-28 84q-1 2 -1 6q0 7 4.5 11t11.5 4h109q6 0 9 5l14 12q3 4 3 9v74q0 6 -3 9
l-12 13q-5 3 -10 3h-170q-9 0 -15.5 6t-6.5 15v76q0 9 6.5 15t15.5 6h233q15 0 26 -11l57 -56q11 -11 11 -26v-168q0 -15 -11 -26l-13 -13v-1v-2l13 -13q11 -11 11 -26v-220q0 -16 -11 -26l-57 -57q-11 -11 -26 -11h-192q-18 0 -27 11l-57 57q-11 10 -11 26z" />
    <glyph glyph-name="four" unicode="4" horiz-adv-x="440" 
d="M36 291v344q0 9 6 15t15 6h90q8 0 14 -6t6 -15v-295q0 -6 4 -9l12 -12q5 -4 10 -4h69q4 0 7.5 3t3.5 8v309q0 9 5.5 15t14.5 6h90q8 0 14 -6t6 -15v-614q0 -9 -6 -15t-14 -6h-90q-9 0 -15 6t-6 15v165q0 5 -3 8t-7 3h-131q-18 0 -27 11l-57 57q-11 10 -11 26z" />
    <glyph glyph-name="five" unicode="5" horiz-adv-x="440" 
d="M42 650q6 6 15 6h306q9 0 14.5 -6t5.5 -15v-76q0 -9 -5.5 -15t-14.5 -6h-185q-4 0 -7.5 -3t-3.5 -8v-88q0 -5 4 -9l13 -12q4 -5 10 -5h110q15 0 26 -11l62 -62q11 -11 11 -26v-214q0 -16 -11 -26l-62 -63q-11 -11 -26 -11h-173q-18 0 -27 11l-57 57q-11 10 -11 26v121
q0 8 5.5 12t10.5 4q3 0 5 -1l97 -29q6 -1 9.5 -6t3.5 -11v-41q0 -5 4 -9l12 -12q4 -4 10 -4h54q4 0 9 4l12 13q4 4 4 9v125q0 6 -4 10l-12 13q-4 3 -9 3h-111q-16 0 -26 11l-63 63q-11 11 -11 26v240q0 9 6 15z" />
    <glyph glyph-name="six" unicode="6" horiz-adv-x="453" 
d="M36 100v456q0 17 11 26l63 63q10 11 26 11h186q16 0 26 -11l58 -56q11 -11 11 -26v-122q0 -7 -5.5 -11.5t-11.5 -4.5q-2 0 -4 1l-97 29q-6 2 -10 7t-4 11v40q0 6 -3 9l-12 13q-5 3 -10 3h-66q-5 0 -10 -3l-13 -14q-4 -3 -4 -9v-114q0 -5 3.5 -8t7.5 -3h139q15 0 26 -11
l63 -63q11 -9 11 -25v-188q0 -16 -11 -26l-63 -63q-11 -11 -26 -11h-181q-16 0 -26 11l-63 63q-11 10 -11 26zM167 258v-114q0 -5 4 -9l13 -13q4 -4 10 -4h65q6 0 9 4l14 13q3 4 3 9v99q0 6 -3 9l-14 14q-3 3 -9 3h-81q-4 0 -7.5 -3t-3.5 -8z" />
    <glyph glyph-name="seven" unicode="7" horiz-adv-x="420" 
d="M36 559v76q0 9 6 15t15 6h306q9 0 15 -6t6 -15v-109q0 -7 -2 -12l-177 -501q-2 -7 -7 -10t-10 -3h-105q-8 0 -12 5.5t-4 10.5q0 2 1 5l181 514q0 1 1 1q-1 0 -1.5 1t-1.5 1h-190q-8 0 -14.5 6t-6.5 15z" />
    <glyph glyph-name="eight" unicode="8" 
d="M36 94v212q0 17 11 26l27 27q1 1 1 2t-1 2l-7 7q-11 11 -11 26v167q0 15 11 26l56 56q11 11 26 11h167q15 0 26 -11l58 -56q10 -13 10 -26v-167q0 -13 -10 -26l-8 -7v-2v-2l27 -27q11 -11 11 -26v-212q0 -15 -11 -26l-57 -57q-11 -11 -26 -11h-205q-18 0 -27 11l-57 57
q-11 10 -11 26zM171 134l12 -12q4 -4 10 -4h81q4 0 9 4l11 12q5 5 5 9v114q0 5 -5 9l-11 12q-5 5 -9 5h-81q-6 0 -10 -5l-12 -12q-4 -3 -4 -9v-114q0 -5 4 -9zM191 416l12 -12q3 -3 9 -3h42q5 0 9 3l12 12q4 5 4 10v87q0 5 -4 9l-12 13q-6 3 -9 3h-42q-4 0 -9 -3l-12 -13
q-4 -3 -4 -9v-87q0 -7 4 -10z" />
    <glyph glyph-name="nine" unicode="9" horiz-adv-x="453" 
d="M36 369v187q0 17 11 26l63 63q10 11 26 11h181q15 0 26 -11l63 -63q11 -9 11 -26v-456q0 -16 -11 -26l-63 -63q-11 -11 -26 -11h-186q-18 0 -27 11l-57 57q-11 10 -11 26v121q0 8 5.5 12t10.5 4q3 0 5 -1l97 -29q6 -1 9.5 -6t3.5 -11v-41q0 -5 4 -9l12 -12q4 -4 10 -4h66
q6 0 9 4l14 13q3 4 3 9v114q0 5 -3 8t-7 3h-139q-16 0 -26 11l-63 63q-11 10 -11 26zM167 512v-99q0 -5 4 -9l13 -12q4 -5 10 -5h81q4 0 7 3t3 8v114q0 6 -3 9l-14 14q-3 3 -9 3h-65q-5 0 -10 -3l-13 -14q-4 -3 -4 -9z" />
    <glyph glyph-name="colon" unicode=":" horiz-adv-x="155" 
d="M53 298q17 17 42 17t42 -17t17 -42t-17 -42t-42 -17t-42 17t-17 42t17 42zM53 101q17 17 42 17t42 -17t17 -42t-17 -42t-42 -17t-42 17t-17 42t17 42z" />
    <glyph glyph-name="semicolon" unicode=";" horiz-adv-x="155" 
d="M36 59q0 25 17 42t42 17t42 -17t17 -42q0 -18 -8.5 -46.5t-15.5 -46.5q-1 -6 -8 -6h-19q-3 0 -5.5 2.5t-2.5 5.5v32h-7q-10 0 -21.5 5.5t-18.5 17.5q-12 18 -12 36zM36 256q0 25 17 42t42 17t42 -17t17 -42t-17 -42t-42 -17t-42 17t-17 42z" />
    <glyph glyph-name="less" unicode="&#x3c;" horiz-adv-x="383" 
d="M39 382q3 5 8 7l278 120q3 1 6 1q7 0 11.5 -4.5t4.5 -11.5v-49q0 -6 -3 -11t-7 -6l-225 -98q-2 -1 -2 -2t2 -2l225 -97q4 -2 7 -7t3 -10v-50q0 -8 -5.5 -12t-9.5 -4q-3 0 -7 2l-278 119q-11 7 -11 17v88q0 5 3 10z" />
    <glyph glyph-name="equal" unicode="=" horiz-adv-x="348" 
d="M36 418q0 6 4.5 10.5t10.5 4.5h245q6 0 10.5 -4.5t4.5 -10.5v-48q0 -6 -4.5 -10.5t-10.5 -4.5h-245q-6 0 -10.5 4.5t-4.5 10.5v48zM36 239v47q0 6 4.5 10.5t10.5 5.5h245q6 -1 10.5 -5.5t4.5 -10.5v-47q0 -7 -4.5 -11.5t-10.5 -4.5h-245q-6 0 -10.5 4.5t-4.5 11.5z" />
    <glyph glyph-name="greater" unicode="&#x3e;" horiz-adv-x="383" 
d="M43 508q4 2 8 2t7 -1l279 -120q4 -2 7 -7t3 -10v-88q0 -5 -3 -10t-7 -7l-279 -119q-2 -1 -6 -1q-7 0 -11.5 4.5t-4.5 10.5v50q0 5 3 10t8 7l225 97q2 1 2 2t-2 2l-225 98q-5 1 -8 6t-3 11v49q0 9 7 14z" />
    <glyph glyph-name="question" unicode="?" horiz-adv-x="453" 
d="M36 441v122q0 15 11 26l57 56q9 11 27 11h192q15 0 26 -11l57 -56q11 -11 11 -26v-165q0 -20 -17 -32l-105 -65q-3 -2 -3 -7v-102q0 -9 -6 -15t-15 -6h-89q-9 0 -15 6t-6 15v166q0 14 11 20l110 69q3 3 3 7v59q0 6 -3 9l-13 13q-4 3 -9 3h-67q-5 0 -10 -3l-12 -13
q-4 -3 -4 -9v-40q0 -6 -3.5 -11t-9.5 -7l-102 -30q-6 0 -11 5t-5 11zM167 59q0 25 17.5 42t41.5 17q25 0 42 -17t17 -42t-17 -42t-42 -17q-24 0 -41.5 17t-17.5 42z" />
    <glyph glyph-name="at" unicode="@" horiz-adv-x="676" 
d="M47 597l48 48q11 11 27 11h432q16 0 27 -11l48 -48q11 -9 11 -26v-485q0 -16 -11 -27l-48 -48q-11 -11 -27 -11h-275q-15 0 -26 11l-49 48q-10 11 -10 27v137q0 15 10 26l49 49q13 11 26 11h88q5 0 7.5 3t2.5 7v61q0 5 -3 9l-1 1q-5 4 -9 4h-52q-4 0 -9 -4l-1 -1
q-3 -4 -3 -9v-11q0 -9 -6.5 -15.5t-15.5 -6.5h-63q-9 0 -14.5 6.5t-5.5 15.5v44q0 17 10 26l49 49q11 11 26 11h118q15 0 26 -11l49 -49q10 -9 10 -26v-298q0 -4 3.5 -7t7.5 -3h28q5 0 9 4l1 1q4 3 4 9v418q0 6 -4 9l-1 1q-4 5 -9 5h-366q-5 0 -9 -5l-1 -1q-4 -3 -4 -9v-516
q0 -9 -6 -15t-15 -6h-63q-9 0 -15 6t-6 15v550q0 17 11 26zM302 110l1 -1q4 -4 9 -4h54q5 0 8 3t3 7v78q0 4 -3 7t-8 3h-54q-5 0 -9 -3l-1 -1q-3 -4 -3 -10v-70q0 -6 3 -9z" />
    <glyph glyph-name="A" unicode="A" horiz-adv-x="447" 
d="M0 19l129 618q2 8 8.5 13.5t14.5 5.5h143q9 0 15.5 -5.5t8.5 -13.5l128 -618v-3q0 -7 -4.5 -11.5t-11.5 -4.5h-93q-7 0 -12 4t-6 11l-25 130q-2 5 -6 8.5t-10 4.5h-111q-6 -1 -10 -4.5t-5 -8.5l-25 -130q-2 -7 -7 -11t-11 -4h-94q-8 0 -12.5 5t-4.5 10q0 2 1 4zM185 278
q2 -3 6 -3h66q3 0 5.5 3t2.5 7l-38 187q-1 2 -3.5 2t-2.5 -2l-38 -187v-1q0 -4 2 -6z" />
    <glyph glyph-name="B" unicode="B" 
d="M36 21v614q0 9 6 15t15 6h279q15 0 26 -11l57 -56q11 -12 11 -26v-187q0 -13 -11 -26l-20 -20q-1 -1 -1 -2t1 -2l20 -20q11 -13 11 -26v-186q0 -15 -11 -26l-57 -57q-11 -11 -26 -11h-279q-9 0 -15 6t-6 15zM170 121q3 -3 7 -3h97q3 0 9 4l11 12q5 5 5 9v101q0 6 -5 9
l-11 13q-6 3 -9 3h-97q-4 0 -7 -3t-3 -8v-129q0 -5 3 -8zM167 398q0 -5 3 -8t7 -3h97q3 0 9 4l11 12q5 5 5 9v101q0 6 -5 9l-11 13q-6 3 -9 3h-97q-4 0 -7 -3t-3 -8v-129z" />
    <glyph glyph-name="C" unicode="C" 
d="M47 589l57 56q10 11 26 11h206q15 0 26 -11l57 -56q10 -11 10 -26v-90q0 -13 -12 -18l-103 -29q-6 0 -10.5 5t-4.5 11v71q0 6 -5 9l-11 13q-6 3 -9 3h-81q-5 0 -10 -3l-12 -13q-4 -3 -4 -9v-370q0 -5 4 -9l12 -12q5 -4 10 -4h81q3 0 9 4l11 12q5 5 5 9v80q0 6 3.5 10.5
t8.5 6.5l103 31q6 0 10.5 -5t4.5 -11v-161q0 -16 -10 -26l-57 -57q-11 -11 -26 -11h-206q-16 0 -26 11l-57 57q-11 10 -11 26v469q0 15 11 26z" />
    <glyph glyph-name="D" unicode="D" 
d="M36 635q0 9 6 15t15 6h279q15 0 26 -11l57 -56q11 -13 11 -26v-469q0 -15 -11 -26l-57 -57q-11 -11 -26 -11h-279q-9 0 -15 6t-6 15v614zM167 129q0 -5 3 -8t7 -3h97q4 0 9 4l11 12q5 5 5 9v370q0 6 -5 9l-11 13q-6 3 -9 3h-97q-4 0 -7 -3t-3 -8v-398z" />
    <glyph glyph-name="E" unicode="E" horiz-adv-x="407" 
d="M36 21v614q0 9 6.5 15t14.5 6h292q9 0 15.5 -6t6.5 -15v-76q0 -9 -6.5 -15t-15.5 -6h-171q-4 0 -7.5 -3t-3.5 -8v-129q0 -5 3.5 -8t7.5 -3h113q9 0 14.5 -6t5.5 -15v-76q0 -9 -5.5 -15t-14.5 -6h-113q-4 0 -7.5 -3t-3.5 -8v-129q0 -5 3.5 -8t7.5 -3h171q9 0 15.5 -6
t6.5 -15v-76q0 -9 -6.5 -15t-15.5 -6h-292q-8 0 -14.5 6t-6.5 15z" />
    <glyph glyph-name="F" unicode="F" horiz-adv-x="407" 
d="M36 635q0 9 6 15t15 6h293q8 0 14.5 -6t6.5 -15v-76q0 -9 -6.5 -15t-14.5 -6h-172q-4 0 -7.5 -3t-3.5 -8v-129q0 -5 3.5 -8t7.5 -3h113q9 0 14.5 -6t5.5 -15v-76q0 -9 -5.5 -15t-14.5 -6h-113q-4 0 -7.5 -3t-3.5 -8v-237q0 -9 -6 -15t-14 -6h-90q-9 0 -15 6t-6 15v614z
" />
    <glyph glyph-name="G" unicode="G" 
d="M47 589l57 56q10 11 26 11h206q15 0 26 -11l57 -56q10 -12 10 -26v-90q0 -13 -12 -18l-102 -29q-6 0 -11 5t-5 11v71q0 6 -5 9l-11 13q-6 3 -9 3h-81q-5 0 -10 -3l-12 -13q-4 -3 -4 -9v-370q0 -5 4 -9l12 -12q4 -4 10 -4h81q4 0 9 4l11 12q5 5 5 9v77q0 3 -3.5 6t-7.5 4
h-14q-9 0 -15 6t-6 15v76q0 9 6 14.5t15 5.5h135q9 0 14.5 -5.5t5.5 -14.5v-233q0 -16 -10 -26l-57 -57q-11 -11 -26 -11h-206q-16 0 -26 11l-57 57q-11 10 -11 26v469q0 15 11 26z" />
    <glyph glyph-name="H" unicode="H" 
d="M36 635q0 9 6 15t15 6h90q8 0 14 -6t6 -15v-237q0 -5 3 -8t7 -3h111q4 0 7.5 3t3.5 8v237q0 9 6 15t15 6h89q9 0 15 -6t6 -15v-614q0 -9 -6 -15t-15 -6h-89q-9 0 -15 6t-6 15v237q0 5 -3.5 8t-7.5 3h-111q-4 0 -7 -3t-3 -8v-237q0 -9 -5.5 -15t-14.5 -6h-90q-9 0 -15 6
t-6 15v614z" />
    <glyph glyph-name="I" unicode="I" horiz-adv-x="203" 
d="M36 635q0 9 6 15t15 6h90q8 0 14 -6t6 -15v-614q0 -9 -6 -15t-14 -6h-90q-9 0 -15 6t-6 15v614z" />
    <glyph glyph-name="J" unicode="J" horiz-adv-x="427" 
d="M36 94v161q0 8 5.5 12t10.5 4q2 0 4 -1l98 -29q6 -2 9.5 -7t3.5 -11v-80q0 -5 4 -9l12 -12q4 -4 10 -4h41q6 0 9 4l13 12q3 5 3 9v492q0 9 6 15t15 6h89q9 0 15.5 -6t6.5 -15v-541q0 -15 -11 -26l-58 -57q-9 -11 -26 -11h-165q-18 0 -27 11l-57 57q-11 10 -11 26z" />
    <glyph glyph-name="K" unicode="K" horiz-adv-x="453" 
d="M36 635q0 9 6 15t15 6h89q9 0 15 -6t6 -15v-237q0 -5 3 -8t7 -3h35q9 0 16 6l51 52q6 6 6 15v175q0 9 6.5 15t14.5 6h90q8 0 14.5 -6t6.5 -15v-205q0 -15 -11 -26l-75 -74q-1 -1 -1 -2l1 -1l75 -75q11 -11 11 -26v-205q0 -9 -6.5 -15t-14.5 -6h-90q-8 0 -14.5 6t-6.5 15
v175q0 10 -6 16l-51 51q-7 6 -16 6h-35q-4 0 -7 -3t-3 -8v-237q0 -9 -6 -15t-15 -6h-89q-9 0 -15 6t-6 15v614z" />
    <glyph glyph-name="L" unicode="L" horiz-adv-x="381" 
d="M36 21v614q0 9 6 15t15 6h89q9 0 15 -6t6 -15v-506q0 -5 3.5 -8t7.5 -3h145q9 0 15.5 -6t6.5 -15v-76q0 -9 -6.5 -15t-15.5 -6h-266q-9 0 -15 6t-6 15z" />
    <glyph glyph-name="M" unicode="M" horiz-adv-x="598" 
d="M36 21v614q0 9 6.5 15t14.5 6h104q11 0 16 -10l119 -223q1 -1 2.5 -1t2.5 1l119 223q5 10 17 10h103q9 0 15 -6t6 -15v-614q0 -9 -6 -15t-15 -6h-89q-9 0 -15 6t-6 15v369q0 1 -1.5 1.5l-1.5 0.5q-1 0 -2 -1l-109 -206q-4 -8 -14 -8h-7q-10 0 -14 8l-109 206q-1 1 -2 1
l-1.5 -0.5t-1.5 -1.5v-369q0 -9 -6 -15t-14 -6h-90q-8 0 -14.5 6.5t-6.5 14.5z" />
    <glyph glyph-name="N" unicode="N" horiz-adv-x="480" 
d="M36 21v614q0 9 6 15t15 6h107q5 0 10 -3t7 -9l126 -315q1 -1 2 -1l1 0.5t1 1.5v305q0 9 6.5 15t15.5 6h89q9 0 15 -6t6 -15v-614q0 -9 -6 -15t-15 -6h-107q-11 0 -17 12l-126 315q-1 1 -3 1t-2 -2v-305q0 -9 -5.5 -15t-14.5 -6h-90q-9 0 -15 6t-6 15z" />
    <glyph glyph-name="O" unicode="O" horiz-adv-x="462" 
d="M27 94v469q0 15 11 26l57 56q10 11 26 11h219q16 0 25 -11l58 -56q11 -11 11 -26v-469q0 -16 -11 -26l-58 -57q-9 -11 -25 -11h-219q-16 0 -26 11l-57 57q-11 10 -11 26zM162 134l12 -12q4 -4 10 -4h93q6 0 10 4l12 12q3 4 3 9v370q0 6 -3 9l-12 13q-5 3 -10 3h-93
q-5 0 -10 -3l-12 -13q-4 -3 -4 -9v-370q0 -5 4 -9z" />
    <glyph glyph-name="P" unicode="P" 
d="M36 635q0 9 6 15t15 6h279q15 0 26 -11l57 -56q11 -13 11 -26v-272q0 -14 -11 -26l-57 -57q-11 -11 -26 -11h-159q-4 0 -7 -3t-3 -8v-165q0 -9 -6 -15t-14 -6h-90q-9 0 -15 6t-6 15v614zM167 326q0 -5 3 -8t7 -3h97q3 0 9 4l11 12q5 3 5 9v173q0 6 -5 9l-11 13q-6 3 -9 3
h-97q-4 0 -7 -3t-3 -8v-201z" />
    <glyph glyph-name="Q" unicode="Q" horiz-adv-x="473" 
d="M27 563q0 15 11 26l57 56q10 11 26 11h219q16 0 25 -11l58 -56q11 -11 11 -26v-424q0 -8 -4.5 -12t-10.5 -4q-8 0 -12 5l-99 98q-6 5 -6 13v274q0 6 -3 9l-12 13q-5 3 -10 3h-93q-5 0 -10 -3l-12 -13q-4 -3 -4 -9v-370q0 -5 4 -9l12 -12q4 -4 10 -4h37q2 0 2.5 1t1.5 2
q-1 0 -1 1l-6 7q-5 6 -5 11q0 7 5 11l51 52q5 5 12 5t11 -5l148 -148q5 -4 5 -11t-5 -12l-52 -51q-4 -4 -11 -4t-12 4l-15 15q-5 4 -9 4h-220q-16 0 -26 11l-57 57q-11 10 -11 26v469z" />
    <glyph glyph-name="R" unicode="R" horiz-adv-x="470" 
d="M36 635q0 9 6 15t15 6h279q15 0 26 -11l57 -56q11 -13 11 -26v-219q0 -15 -11 -26l-55 -56q-3 -3 -3 -5t1 -3l88 -232q1 -2 1 -7q0 -6 -4.5 -10.5t-10.5 -4.5h-94q-13 0 -17 12l-87 227q-5 10 -16 10h-44q-4 0 -7.5 -3t-3.5 -7v-218q0 -9 -6 -15t-14 -6h-90q-9 0 -15 6
t-6 15v614zM167 378q0 -4 3.5 -7.5t7.5 -3.5h96q4 0 9 5l11 11q5 5 5 9v121q0 6 -5 9l-11 13q-6 3 -9 3h-96q-4 0 -7.5 -3t-3.5 -8v-149z" />
    <glyph glyph-name="S" unicode="S" horiz-adv-x="453" 
d="M36 563q0 15 11 26l57 56q10 11 26 11h192q16 0 26 -11l58 -56q11 -11 11 -26v-122q0 -8 -5.5 -12t-10.5 -4q-3 0 -5 1l-97 29q-6 2 -10 7t-4 11v40q0 6 -3 9l-13 13q-4 3 -9 3h-67q-5 0 -10 -3l-12 -13q-4 -3 -4 -9v-55q0 -8 8 -13l225 -142q17 -11 17 -31v-178
q0 -16 -11 -26l-57 -57q-11 -11 -26 -11h-192q-18 0 -27 11l-57 57q-11 10 -11 26v121q0 8 5.5 12t10.5 4q3 0 5 -1l97 -29q6 -1 9.5 -6t3.5 -11v-41q0 -5 4 -9l12 -12q4 -4 10 -4h67q6 0 9 4l13 12q3 4 3 9v69q0 8 -7 12l-225 142q-17 12 -17 32v165z" />
    <glyph glyph-name="T" unicode="T" horiz-adv-x="440" 
d="M36 559v76q0 9 6 15t15 6h326q8 0 14 -6t6 -15v-76q0 -9 -6 -15t-14 -6h-87q-4 0 -7.5 -3t-3.5 -8v-506q0 -9 -5.5 -15t-14.5 -6h-89q-9 0 -15.5 6t-6.5 15v506q0 5 -3 8t-7 3h-87q-9 0 -15 6t-6 15z" />
    <glyph glyph-name="U" unicode="U" 
d="M36 94v541q0 9 6 15t15 6h89q9 0 15 -6t6 -15v-492q0 -5 4 -9l12 -12q5 -4 10 -4h81q3 0 9 4l11 12q5 5 5 9v492q0 9 6 15t15 6h89q9 0 14.5 -6t5.5 -15v-541q0 -16 -10 -26l-57 -57q-11 -11 -26 -11h-206q-16 0 -26 11l-57 57q-11 10 -11 26z" />
    <glyph glyph-name="V" unicode="V" horiz-adv-x="458" 
d="M18 637v3q0 6 4.5 11t10.5 5h94q6 0 11 -4t7 -10l82 -440q0 -2 2 -2t2 2l81 439q1 6 6.5 10.5t11.5 4.5h94q7 0 11.5 -5t4.5 -10q0 -2 -1 -4l-117 -620q-1 -7 -7 -12t-13 -5h-145q-8 0 -14 5t-7 12z" />
    <glyph glyph-name="W" unicode="W" horiz-adv-x="734" 
d="M18 638v3q0 6 5 10.5t11 4.5h92q7 0 12.5 -4.5t6.5 -10.5l66 -402q1 -3 3 -3t2 3l59 402q0 6 5 10.5t13 4.5h148q6 0 11 -4t7 -11l59 -402q0 -3 2 -3t3 3l66 402q1 7 6 11t12 4h92q7 0 12 -5.5t5 -12.5l-106 -621q-1 -7 -6.5 -12t-13.5 -5h-144q-7 0 -13 5t-7 13l-56 372
q-1 1 -3 1t-2 -1l-57 -372q-1 -8 -7 -13t-14 -5h-143q-7 0 -13.5 5t-7.5 12z" />
    <glyph glyph-name="X" unicode="X" horiz-adv-x="464" 
d="M19 22l121 302q0 2 1 4q-1 2 -1 4l-121 303q-1 1 -1 5q0 7 4.5 11.5t10.5 4.5h108q13 0 17 -12l72 -186q0 -1 2 -1t3 1l70 186q5 12 17 12h108q8 0 12 -5.5t4 -10.5q0 -3 -1 -5l-120 -303v-4v-4l120 -302q0 -2 1 -6q-1 -7 -5.5 -11.5t-10.5 -4.5h-108q-12 0 -17 12
l-70 186q-1 2 -3 2t-2 -2l-72 -186q-4 -12 -17 -12h-108q-8 0 -11.5 5.5t-3.5 10.5q0 3 1 6z" />
    <glyph glyph-name="Y" unicode="Y" horiz-adv-x="464" 
d="M18 640q0 7 4.5 11.5t11.5 4.5h107q13 0 17 -12l72 -186q0 -2 1.5 -2t2.5 2l71 186q5 12 17 12h108q8 0 12 -5.5t4 -10.5q0 -3 -1 -5l-147 -366v-248q0 -9 -6.5 -15t-15.5 -6h-89q-9 0 -14.5 6t-5.5 15v245l-148 369q-1 1 -1 5z" />
    <glyph glyph-name="Z" unicode="Z" horiz-adv-x="434" 
d="M36 635q0 9 6.5 15t14.5 6h319q9 0 15 -6t6 -15v-112q0 -9 -5 -18l-216 -383q0 -1 0.5 -2.5t2.5 -1.5h197q9 0 15 -6t6 -15v-76q0 -8 -6 -14.5t-15 -6.5h-318q-9 0 -15.5 6.5t-6.5 14.5v112q0 9 5 18l216 384q0 1 -0.5 2t-1.5 1h-198q-8 0 -14.5 6t-6.5 15v76z" />
    <glyph glyph-name="bracketleft" unicode="[" horiz-adv-x="276" 
d="M36 -97v850q0 9 6 15t15 6h162q9 0 14.5 -6t5.5 -15v-75q0 -9 -5.5 -15.5t-14.5 -6.5h-42q-3 0 -6.5 -2.5t-3.5 -7.5v-635q0 -5 3 -8t7 -3h42q9 0 14.5 -6.5t5.5 -14.5v-76q0 -9 -5.5 -15t-14.5 -6h-162q-9 0 -15 6t-6 15z" />
    <glyph glyph-name="backslash" unicode="\" horiz-adv-x="388" 
d="M36 640q0 7 5 11.5t11 4.5h76q6 0 11 -3t6 -9l207 -628q0 -6 -5 -11t-11 -5h-76q-6 0 -11 3.5t-7 9.5l-205 622q-1 2 -1 5z" />
    <glyph glyph-name="bracketright" unicode="]" horiz-adv-x="276" 
d="M42 768q6 6 15 6h162q9 0 14.5 -6t5.5 -15v-850q0 -9 -5.5 -15t-14.5 -6h-162q-9 0 -15 6t-6 15v76q0 9 6 15t15 6h41q5 0 7.5 3t2.5 8v635q0 5 -2.5 7.5t-7.5 2.5h-41q-9 0 -15 6.5t-6 15.5v75q0 9 6 15z" />
    <glyph glyph-name="asciicircum" unicode="^" horiz-adv-x="281" 
d="M38 575l58 75q4 6 12 6h64q7 0 13 -6l57 -75q2 -2 2 -6q0 -5 -3 -8t-8 -3h-56q-9 0 -12 6l-23 30q-1 2 -2 2t-2 -2l-23 -30q-3 -6 -12 -6h-56q-6 0 -8.5 4.5t-2.5 6.5q0 3 2 6z" />
    <glyph glyph-name="underscore" unicode="_" horiz-adv-x="480" 
d="M36 -15q0 6 4.5 10.5t10.5 4.5h377q6 0 10.5 -4.5t4.5 -10.5v-48q0 -6 -4.5 -11t-10.5 -5h-377q-6 0 -10.5 5t-4.5 11v48z" />
    <glyph glyph-name="grave" unicode="`" horiz-adv-x="221" 
d="M39 653q3 3 8 3h85q11 0 16 -11l37 -106v-3q0 -5 -3 -8t-7 -3h-42q-10 0 -15 8l-80 106q-2 4 -2 6q0 5 3 8z" />
    <glyph glyph-name="a" unicode="a" horiz-adv-x="447" 
d="M0 19l129 618q2 8 8.5 13.5t14.5 5.5h143q9 0 15.5 -5.5t8.5 -13.5l128 -618v-3q0 -7 -4.5 -11.5t-11.5 -4.5h-93q-7 0 -12 4t-6 11l-25 130q-2 5 -6 8.5t-10 4.5h-111q-6 -1 -10 -4.5t-5 -8.5l-25 -130q-2 -7 -7 -11t-11 -4h-94q-8 0 -12.5 5t-4.5 10q0 2 1 4zM185 278
q2 -3 6 -3h66q3 0 5.5 3t2.5 7l-38 187q-1 2 -3.5 2t-2.5 -2l-38 -187v-1q0 -4 2 -6z" />
    <glyph glyph-name="b" unicode="b" 
d="M36 21v614q0 9 6 15t15 6h279q15 0 26 -11l57 -56q11 -12 11 -26v-187q0 -13 -11 -26l-20 -20q-1 -1 -1 -2t1 -2l20 -20q11 -13 11 -26v-186q0 -15 -11 -26l-57 -57q-11 -11 -26 -11h-279q-9 0 -15 6t-6 15zM170 121q3 -3 7 -3h97q3 0 9 4l11 12q5 5 5 9v101q0 6 -5 9
l-11 13q-6 3 -9 3h-97q-4 0 -7 -3t-3 -8v-129q0 -5 3 -8zM167 398q0 -5 3 -8t7 -3h97q3 0 9 4l11 12q5 5 5 9v101q0 6 -5 9l-11 13q-6 3 -9 3h-97q-4 0 -7 -3t-3 -8v-129z" />
    <glyph glyph-name="c" unicode="c" 
d="M47 589l57 56q10 11 26 11h206q15 0 26 -11l57 -56q10 -11 10 -26v-90q0 -13 -12 -18l-103 -29q-6 0 -10.5 5t-4.5 11v71q0 6 -5 9l-11 13q-6 3 -9 3h-81q-5 0 -10 -3l-12 -13q-4 -3 -4 -9v-370q0 -5 4 -9l12 -12q5 -4 10 -4h81q3 0 9 4l11 12q5 5 5 9v80q0 6 3.5 10.5
t8.5 6.5l103 31q6 0 10.5 -5t4.5 -11v-161q0 -16 -10 -26l-57 -57q-11 -11 -26 -11h-206q-16 0 -26 11l-57 57q-11 10 -11 26v469q0 15 11 26z" />
    <glyph glyph-name="d" unicode="d" 
d="M36 635q0 9 6 15t15 6h279q15 0 26 -11l57 -56q11 -13 11 -26v-469q0 -15 -11 -26l-57 -57q-11 -11 -26 -11h-279q-9 0 -15 6t-6 15v614zM167 129q0 -5 3 -8t7 -3h97q4 0 9 4l11 12q5 5 5 9v370q0 6 -5 9l-11 13q-6 3 -9 3h-97q-4 0 -7 -3t-3 -8v-398z" />
    <glyph glyph-name="e" unicode="e" horiz-adv-x="407" 
d="M36 21v614q0 9 6.5 15t14.5 6h292q9 0 15.5 -6t6.5 -15v-76q0 -9 -6.5 -15t-15.5 -6h-171q-4 0 -7.5 -3t-3.5 -8v-129q0 -5 3.5 -8t7.5 -3h113q9 0 14.5 -6t5.5 -15v-76q0 -9 -5.5 -15t-14.5 -6h-113q-4 0 -7.5 -3t-3.5 -8v-129q0 -5 3.5 -8t7.5 -3h171q9 0 15.5 -6
t6.5 -15v-76q0 -9 -6.5 -15t-15.5 -6h-292q-8 0 -14.5 6t-6.5 15z" />
    <glyph glyph-name="f" unicode="f" horiz-adv-x="407" 
d="M36 635q0 9 6 15t15 6h293q8 0 14.5 -6t6.5 -15v-76q0 -9 -6.5 -15t-14.5 -6h-172q-4 0 -7.5 -3t-3.5 -8v-129q0 -5 3.5 -8t7.5 -3h113q9 0 14.5 -6t5.5 -15v-76q0 -9 -5.5 -15t-14.5 -6h-113q-4 0 -7.5 -3t-3.5 -8v-237q0 -9 -6 -15t-14 -6h-90q-9 0 -15 6t-6 15v614z
" />
    <glyph glyph-name="g" unicode="g" 
d="M47 589l57 56q10 11 26 11h206q15 0 26 -11l57 -56q10 -12 10 -26v-90q0 -13 -12 -18l-102 -29q-6 0 -11 5t-5 11v71q0 6 -5 9l-11 13q-6 3 -9 3h-81q-5 0 -10 -3l-12 -13q-4 -3 -4 -9v-370q0 -5 4 -9l12 -12q4 -4 10 -4h81q4 0 9 4l11 12q5 5 5 9v77q0 3 -3.5 6t-7.5 4
h-14q-9 0 -15 6t-6 15v76q0 9 6 14.5t15 5.5h135q9 0 14.5 -5.5t5.5 -14.5v-233q0 -16 -10 -26l-57 -57q-11 -11 -26 -11h-206q-16 0 -26 11l-57 57q-11 10 -11 26v469q0 15 11 26z" />
    <glyph glyph-name="h" unicode="h" 
d="M36 635q0 9 6 15t15 6h90q8 0 14 -6t6 -15v-237q0 -5 3 -8t7 -3h111q4 0 7.5 3t3.5 8v237q0 9 6 15t15 6h89q9 0 15 -6t6 -15v-614q0 -9 -6 -15t-15 -6h-89q-9 0 -15 6t-6 15v237q0 5 -3.5 8t-7.5 3h-111q-4 0 -7 -3t-3 -8v-237q0 -9 -5.5 -15t-14.5 -6h-90q-9 0 -15 6
t-6 15v614z" />
    <glyph glyph-name="i" unicode="i" horiz-adv-x="203" 
d="M36 635q0 9 6 15t15 6h90q8 0 14 -6t6 -15v-614q0 -9 -6 -15t-14 -6h-90q-9 0 -15 6t-6 15v614z" />
    <glyph glyph-name="j" unicode="j" horiz-adv-x="427" 
d="M36 94v161q0 8 5.5 12t10.5 4q2 0 4 -1l98 -29q6 -2 9.5 -7t3.5 -11v-80q0 -5 4 -9l12 -12q4 -4 10 -4h41q6 0 9 4l13 12q3 5 3 9v492q0 9 6 15t15 6h89q9 0 15.5 -6t6.5 -15v-541q0 -15 -11 -26l-58 -57q-9 -11 -26 -11h-165q-18 0 -27 11l-57 57q-11 10 -11 26z" />
    <glyph glyph-name="k" unicode="k" horiz-adv-x="453" 
d="M36 635q0 9 6 15t15 6h89q9 0 15 -6t6 -15v-237q0 -5 3 -8t7 -3h35q9 0 16 6l51 52q6 6 6 15v175q0 9 6.5 15t14.5 6h90q8 0 14.5 -6t6.5 -15v-205q0 -15 -11 -26l-75 -74q-1 -1 -1 -2l1 -1l75 -75q11 -11 11 -26v-205q0 -9 -6.5 -15t-14.5 -6h-90q-8 0 -14.5 6t-6.5 15
v175q0 10 -6 16l-51 51q-7 6 -16 6h-35q-4 0 -7 -3t-3 -8v-237q0 -9 -6 -15t-15 -6h-89q-9 0 -15 6t-6 15v614z" />
    <glyph glyph-name="l" unicode="l" horiz-adv-x="381" 
d="M36 21v614q0 9 6 15t15 6h89q9 0 15 -6t6 -15v-506q0 -5 3.5 -8t7.5 -3h145q9 0 15.5 -6t6.5 -15v-76q0 -9 -6.5 -15t-15.5 -6h-266q-9 0 -15 6t-6 15z" />
    <glyph glyph-name="m" unicode="m" horiz-adv-x="598" 
d="M36 21v614q0 9 6.5 15t14.5 6h104q11 0 16 -10l119 -223q1 -1 2.5 -1t2.5 1l119 223q5 10 17 10h103q9 0 15 -6t6 -15v-614q0 -9 -6 -15t-15 -6h-89q-9 0 -15 6t-6 15v369q0 1 -1.5 1.5l-1.5 0.5q-1 0 -2 -1l-109 -206q-4 -8 -14 -8h-7q-10 0 -14 8l-109 206q-1 1 -2 1
l-1.5 -0.5t-1.5 -1.5v-369q0 -9 -6 -15t-14 -6h-90q-8 0 -14.5 6.5t-6.5 14.5z" />
    <glyph glyph-name="n" unicode="n" horiz-adv-x="480" 
d="M36 21v614q0 9 6 15t15 6h107q5 0 10 -3t7 -9l126 -315q1 -1 2 -1l1 0.5t1 1.5v305q0 9 6.5 15t15.5 6h89q9 0 15 -6t6 -15v-614q0 -9 -6 -15t-15 -6h-107q-11 0 -17 12l-126 315q-1 1 -3 1t-2 -2v-305q0 -9 -5.5 -15t-14.5 -6h-90q-9 0 -15 6t-6 15z" />
    <glyph glyph-name="o" unicode="o" horiz-adv-x="462" 
d="M27 94v469q0 15 11 26l57 56q10 11 26 11h219q16 0 25 -11l58 -56q11 -11 11 -26v-469q0 -16 -11 -26l-58 -57q-9 -11 -25 -11h-219q-16 0 -26 11l-57 57q-11 10 -11 26zM162 134l12 -12q4 -4 10 -4h93q6 0 10 4l12 12q3 4 3 9v370q0 6 -3 9l-12 13q-5 3 -10 3h-93
q-5 0 -10 -3l-12 -13q-4 -3 -4 -9v-370q0 -5 4 -9z" />
    <glyph glyph-name="p" unicode="p" 
d="M36 635q0 9 6 15t15 6h279q15 0 26 -11l57 -56q11 -13 11 -26v-272q0 -14 -11 -26l-57 -57q-11 -11 -26 -11h-159q-4 0 -7 -3t-3 -8v-165q0 -9 -6 -15t-14 -6h-90q-9 0 -15 6t-6 15v614zM167 326q0 -5 3 -8t7 -3h97q3 0 9 4l11 12q5 3 5 9v173q0 6 -5 9l-11 13q-6 3 -9 3
h-97q-4 0 -7 -3t-3 -8v-201z" />
    <glyph glyph-name="q" unicode="q" horiz-adv-x="473" 
d="M27 563q0 15 11 26l57 56q10 11 26 11h219q16 0 25 -11l58 -56q11 -11 11 -26v-424q0 -8 -4.5 -12t-10.5 -4q-8 0 -12 5l-99 98q-6 5 -6 13v274q0 6 -3 9l-12 13q-5 3 -10 3h-93q-5 0 -10 -3l-12 -13q-4 -3 -4 -9v-370q0 -5 4 -9l12 -12q4 -4 10 -4h37q2 0 2.5 1t1.5 2
q-1 0 -1 1l-6 7q-5 6 -5 11q0 7 5 11l51 52q5 5 12 5t11 -5l148 -148q5 -4 5 -11t-5 -12l-52 -51q-4 -4 -11 -4t-12 4l-15 15q-5 4 -9 4h-220q-16 0 -26 11l-57 57q-11 10 -11 26v469z" />
    <glyph glyph-name="r" unicode="r" horiz-adv-x="470" 
d="M36 635q0 9 6 15t15 6h279q15 0 26 -11l57 -56q11 -13 11 -26v-219q0 -15 -11 -26l-55 -56q-3 -3 -3 -5t1 -3l88 -232q1 -2 1 -7q0 -6 -4.5 -10.5t-10.5 -4.5h-94q-13 0 -17 12l-87 227q-5 10 -16 10h-44q-4 0 -7.5 -3t-3.5 -7v-218q0 -9 -6 -15t-14 -6h-90q-9 0 -15 6
t-6 15v614zM167 378q0 -4 3.5 -7.5t7.5 -3.5h96q4 0 9 5l11 11q5 5 5 9v121q0 6 -5 9l-11 13q-6 3 -9 3h-96q-4 0 -7.5 -3t-3.5 -8v-149z" />
    <glyph glyph-name="s" unicode="s" horiz-adv-x="453" 
d="M36 563q0 15 11 26l57 56q10 11 26 11h192q16 0 26 -11l58 -56q11 -11 11 -26v-122q0 -8 -5.5 -12t-10.5 -4q-3 0 -5 1l-97 29q-6 2 -10 7t-4 11v40q0 6 -3 9l-13 13q-4 3 -9 3h-67q-5 0 -10 -3l-12 -13q-4 -3 -4 -9v-55q0 -8 8 -13l225 -142q17 -11 17 -31v-178
q0 -16 -11 -26l-57 -57q-11 -11 -26 -11h-192q-18 0 -27 11l-57 57q-11 10 -11 26v121q0 8 5.5 12t10.5 4q3 0 5 -1l97 -29q6 -1 9.5 -6t3.5 -11v-41q0 -5 4 -9l12 -12q4 -4 10 -4h67q6 0 9 4l13 12q3 4 3 9v69q0 8 -7 12l-225 142q-17 12 -17 32v165z" />
    <glyph glyph-name="t" unicode="t" horiz-adv-x="440" 
d="M36 559v76q0 9 6 15t15 6h326q8 0 14 -6t6 -15v-76q0 -9 -6 -15t-14 -6h-87q-4 0 -7.5 -3t-3.5 -8v-506q0 -9 -5.5 -15t-14.5 -6h-89q-9 0 -15.5 6t-6.5 15v506q0 5 -3 8t-7 3h-87q-9 0 -15 6t-6 15z" />
    <glyph glyph-name="u" unicode="u" 
d="M36 94v541q0 9 6 15t15 6h89q9 0 15 -6t6 -15v-492q0 -5 4 -9l12 -12q5 -4 10 -4h81q3 0 9 4l11 12q5 5 5 9v492q0 9 6 15t15 6h89q9 0 14.5 -6t5.5 -15v-541q0 -16 -10 -26l-57 -57q-11 -11 -26 -11h-206q-16 0 -26 11l-57 57q-11 10 -11 26z" />
    <glyph glyph-name="v" unicode="v" horiz-adv-x="458" 
d="M18 637v3q0 6 4.5 11t10.5 5h94q6 0 11 -4t7 -10l82 -440q0 -2 2 -2t2 2l81 439q1 6 6.5 10.5t11.5 4.5h94q7 0 11.5 -5t4.5 -10q0 -2 -1 -4l-117 -620q-1 -7 -7 -12t-13 -5h-145q-8 0 -14 5t-7 12z" />
    <glyph glyph-name="w" unicode="w" horiz-adv-x="734" 
d="M18 638v3q0 6 5 10.5t11 4.5h92q7 0 12.5 -4.5t6.5 -10.5l66 -402q1 -3 3 -3t2 3l59 402q0 6 5 10.5t13 4.5h148q6 0 11 -4t7 -11l59 -402q0 -3 2 -3t3 3l66 402q1 7 6 11t12 4h92q7 0 12 -5.5t5 -12.5l-106 -621q-1 -7 -6.5 -12t-13.5 -5h-144q-7 0 -13 5t-7 13l-56 372
q-1 1 -3 1t-2 -1l-57 -372q-1 -8 -7 -13t-14 -5h-143q-7 0 -13.5 5t-7.5 12z" />
    <glyph glyph-name="x" unicode="x" horiz-adv-x="464" 
d="M19 22l121 302q0 2 1 4q-1 2 -1 4l-121 303q-1 1 -1 5q0 7 4.5 11.5t10.5 4.5h108q13 0 17 -12l72 -186q0 -1 2 -1t3 1l70 186q5 12 17 12h108q8 0 12 -5.5t4 -10.5q0 -3 -1 -5l-120 -303v-4v-4l120 -302q0 -2 1 -6q-1 -7 -5.5 -11.5t-10.5 -4.5h-108q-12 0 -17 12
l-70 186q-1 2 -3 2t-2 -2l-72 -186q-4 -12 -17 -12h-108q-8 0 -11.5 5.5t-3.5 10.5q0 3 1 6z" />
    <glyph glyph-name="y" unicode="y" horiz-adv-x="464" 
d="M18 640q0 7 4.5 11.5t11.5 4.5h107q13 0 17 -12l72 -186q0 -2 1.5 -2t2.5 2l71 186q5 12 17 12h108q8 0 12 -5.5t4 -10.5q0 -3 -1 -5l-147 -366v-248q0 -9 -6.5 -15t-15.5 -6h-89q-9 0 -14.5 6t-5.5 15v245l-148 369q-1 1 -1 5z" />
    <glyph glyph-name="z" unicode="z" horiz-adv-x="434" 
d="M36 635q0 9 6.5 15t14.5 6h319q9 0 15 -6t6 -15v-112q0 -9 -5 -18l-216 -383q0 -1 0.5 -2.5t2.5 -1.5h197q9 0 15 -6t6 -15v-76q0 -8 -6 -14.5t-15 -6.5h-318q-9 0 -15.5 6.5t-6.5 14.5v112q0 9 5 18l216 384q0 1 -0.5 2t-1.5 1h-198q-8 0 -14.5 6t-6.5 15v76z" />
    <glyph glyph-name="braceleft" unicode="{" horiz-adv-x="361" 
d="M36 329q0 8 6 14l73 73q6 6 7 15v322q0 9 5.5 15t14.5 6h161q9 0 15.5 -6t6.5 -15v-76q0 -8 -6.5 -14.5t-15.5 -6.5h-40q-5 0 -7.5 -3t-2.5 -8v-225q0 -13 -11 -26l-59 -58q-3 -3 -3 -7t3 -9l59 -58q11 -11 11 -26v-225q0 -5 2.5 -8t7.5 -3h40q9 0 15.5 -6t6.5 -15v-76
q0 -9 -6.5 -15t-15.5 -6h-161q-9 0 -14.5 6t-5.5 15v323q-1 8 -7 14l-73 73q-6 8 -6 16z" />
    <glyph glyph-name="bar" unicode="|" horiz-adv-x="203" 
d="M36 753q0 9 6 15t15 6h90q8 0 14 -6t6 -15v-850q0 -9 -6 -15t-14 -6h-90q-9 0 -15 6t-6 15v850z" />
    <glyph glyph-name="braceright" unicode="}" horiz-adv-x="361" 
d="M36 753q0 9 6 15t15 6h162q9 0 14.5 -6t5.5 -15v-322q0 -9 7 -15l73 -73q6 -6 6 -14q0 -9 -6 -16l-73 -73q-7 -6 -7 -14v-323q0 -9 -5.5 -15t-14.5 -6h-162q-9 0 -15 6t-6 15v76q0 9 6 15t15 6h41q5 0 7.5 3t2.5 8v226q0 14 11 25l58 58q4 4 4 9q0 4 -4 7l-58 58
q-11 11 -11 26v226q0 5 -2.5 7.5t-7.5 2.5h-41q-9 0 -15 6.5t-6 14.5v76z" />
    <glyph glyph-name="asciitilde" unicode="~" horiz-adv-x="315" 
d="M36 334q0 8 5 13l29 29q5 5 11 5h16q4 0 6 -1l107 -34q3 0 3 2v22q0 4 3.5 7.5t7.5 3.5h44q5 0 8 -3.5t3 -7.5v-48q0 -8 -5 -13l-29 -29q-6 -5 -12 -5h-15l-6 1l-107 35q-3 -1 -3 -3v-22q0 -4 -3.5 -7.5t-7.5 -3.5h-44q-5 0 -8 3.5t-3 7.5v48z" />
    <glyph glyph-name="uni00A0" unicode="&#xa0;" horiz-adv-x="234" 
 />
    <glyph glyph-name="exclamdown" unicode="&#xa1;" horiz-adv-x="203" 
d="M36 347q0 8 6 14t15 6h90q8 0 14 -6t6 -14v-444q0 -9 -6 -15t-14 -6h-90q-9 0 -15 6t-6 15v444zM42 479q0 25 17.5 42t42.5 17q24 0 41.5 -17t17.5 -42q0 -24 -17.5 -41.5t-41.5 -17.5q-25 0 -42.5 17.5t-17.5 41.5z" />
    <glyph glyph-name="cent" unicode="&#xa2;" 
d="M36 94v469q0 15 11 26l57 56q10 11 26 11h28q1 0 3 2t2 4v13q0 8 6.5 14.5t14.5 6.5h98q9 0 14.5 -6.5t5.5 -14.5v-13q0 -2 2 -4t4 -2h28q15 0 26 -11l57 -56q10 -11 10 -26v-90q0 -13 -12 -18l-103 -29q-6 0 -10.5 5t-4.5 11v71q0 6 -5 9l-11 13q-6 3 -9 3h-81
q-5 0 -10 -3l-12 -13q-4 -3 -4 -9v-370q0 -5 4 -9l12 -12q5 -4 10 -4h81q3 0 9 4l11 12q5 5 5 9v80q0 6 3.5 10.5t8.5 6.5l103 31q6 0 10.5 -5t4.5 -11v-161q0 -16 -10 -26l-57 -57q-11 -11 -26 -11h-28q-2 0 -4 -2t-2 -3v-13q0 -9 -5.5 -15.5t-14.5 -6.5h-98
q-8 0 -14.5 6.5t-6.5 15.5v13q0 1 -2 3t-3 2h-28q-16 0 -26 11l-57 57q-11 10 -11 26z" />
    <glyph glyph-name="sterling" unicode="&#xa3;" horiz-adv-x="460" 
d="M36 360q0 9 6 15t15 6h1q4 0 4 5v170q0 15 11 26l63 63q11 11 26 11h167q16 0 27 -11l56 -56q11 -11 11 -26v-122q0 -7 -5.5 -11.5t-10.5 -4.5q-2 0 -4 1l-98 29q-12 5 -12 18v40q-1 6 -5 9l-12 13q-5 3 -9 3h-47q-4 0 -9 -3l-13 -14q-4 -3 -4 -9v-120q0 -5 3 -8t7 -3h74
q9 0 15 -6t6 -15v-64q0 -8 -6.5 -14.5t-14.5 -6.5h-74q-4 0 -7 -2.5t-3 -6.5v-112q-1 -8 -7 -16l-15 -16q-1 -1 -1 -2l0.5 -1t2.5 -1h228q9 0 15 -6t6 -15v-76q0 -9 -6 -15t-15 -6h-344q-9 0 -15.5 6.5t-6.5 14.5v87q0 10 7 17l17 17q2 4 2 6v123q0 4 -4 4h-1q-9 0 -15 6.5
t-6 14.5v64z" />
    <glyph glyph-name="currency" unicode="&#xa4;" horiz-adv-x="482" 
d="M36 484q0 6 5 11l33 33q4 5 12 5q7 0 10 -5l28 -28q4 -1 5 -1h225q1 0 3 1l29 28q5 5 11 5q7 0 11 -5l34 -33q4 -4 4 -11t-4 -11l-29 -28l-2 -4v-226l31 -31q4 -4 4 -11t-4 -12l-34 -33q-5 -5 -11 -5q-5 0 -11 5l-29 28q-2 1 -3 2h-225q-1 -1 -5 -2l-28 -28q-4 -5 -10 -5
t-12 5l-33 33q-5 6 -5 12t5 11l28 28q1 0 1 3v226q0 3 -1 4l-28 28q-5 5 -5 11zM149 268q0 -6 4 -10l19 -18q3 -4 9 -4h121q4 0 9 4l18 18q4 6 4 10v120q0 6 -4 10l-18 18q-5 4 -9 4h-121q-6 0 -9 -4l-19 -18q-4 -4 -4 -10v-120z" />
    <glyph glyph-name="yen" unicode="&#xa5;" horiz-adv-x="500" 
d="M41 652q4 4 10 4h108q13 0 17 -12l72 -186q0 -2 1.5 -2t2.5 2l71 186q5 12 17 12h108q8 0 12 -5.5t4 -10.5q0 -3 -1 -5l-116 -290q0 -1 0.5 -2.5t2.5 -1.5h60q7 0 11.5 -4.5t4.5 -10.5v-48q0 -6 -4.5 -10.5t-11.5 -4.5h-90q-4 0 -4 -6v-42q0 -5 4 -5h90q7 0 11.5 -4.5
t4.5 -11.5v-47q0 -7 -4.5 -11.5t-11.5 -4.5h-84q-5 0 -7.5 -3t-2.5 -7v-100q0 -9 -6.5 -15t-15.5 -6h-89q-9 0 -14.5 6.5t-5.5 14.5v100q-1 4 -4 7t-7 3h-85q-6 0 -10.5 4.5t-4.5 11.5v47q0 7 4.5 11.5t10.5 4.5h90q2 0 3.5 1.5t2.5 3.5v42q-1 2 -2.5 4t-3.5 2h-90
q-6 0 -10.5 4.5t-4.5 10.5v48q0 6 4.5 10.5t10.5 4.5h61q1 0 1.5 1t1.5 2q-1 0 -1 1l-115 290q-1 1 -1 5q0 7 5 12z" />
    <glyph glyph-name="brokenbar" unicode="&#xa6;" horiz-adv-x="203" 
d="M36 635q0 9 6 15t15 6h90q8 0 14 -6t6 -15v-260q0 -9 -6 -14.5t-14 -5.5h-90q-9 0 -15 5.5t-6 14.5v260zM36 21v260q0 9 6 14.5t15 6.5h90q8 -1 14 -6.5t6 -14.5v-260q0 -9 -6 -15t-14 -6h-90q-9 0 -15 6t-6 15z" />
    <glyph glyph-name="section" unicode="&#xa7;" horiz-adv-x="453" 
d="M36 431q0 15 11 26l17 17q1 1 1 2t-2 2l-10 6q-17 12 -17 32v164q0 16 11 27l57 56q10 11 26 11h192q16 0 26 -11l58 -56q11 -11 11 -27v-121q0 -7 -5.5 -11t-9.5 -4q-3 0 -6 1l-97 28q-6 2 -10 7t-4 11v40q0 6 -3 10l-13 12q-3 3 -9 3h-67q-7 0 -10 -3l-12 -12
q-4 -4 -4 -10v-55q0 -8 8 -13l225 -142q17 -12 17 -31v-165q0 -15 -11 -26l-9 -9q-1 -1 -1 -2t2 -2l2 -1q8 -5 12.5 -13t4.5 -18v-178q0 -16 -11 -26l-57 -57q-11 -11 -26 -11h-192q-18 0 -27 11l-57 57q-11 10 -11 26v121q0 7 6 11.5t12 4.5h3l97 -30q6 -2 9.5 -7t3.5 -11
v-45l16 -16q5 -4 10 -4h67q5 0 9 4l13 12q3 3 3 9v68q0 9 -7 13l-225 142q-8 5 -12.5 13t-4.5 18v152zM175 327l93 -59q4 -2 7 -2q6 0 9 6q1 2 1 5v52q0 8 -7 14l-86 54q-3 2 -7 2q-6 0 -9 -4l-5 -4q-4 -3 -4 -9v-42q0 -9 8 -13z" />
    <glyph glyph-name="dieresis" unicode="&#xa8;" horiz-adv-x="381" 
d="M226 598q0 24 17.5 41t41.5 17q25 0 42.5 -17t17.5 -41q0 -26 -17.5 -43t-42.5 -17q-24 0 -41.5 17t-17.5 43zM36 598q0 24 17 41t42 17t42 -17t17 -41q0 -26 -17 -43t-42 -17t-42 17t-17 43z" />
    <glyph glyph-name="guillemotleft" unicode="&#xab;" horiz-adv-x="407" 
d="M196 336l83 111q3 6 10 6h71q6 0 8 -4.5t2 -6.5q0 -3 -2 -5l-78 -108v-1v-1l78 -107q2 -2 2 -6t-3 -7.5t-7 -3.5h-71q-7 0 -10 6l-83 111q-2 5 -2 9t2 7zM39 336l83 111q2 6 9 6h72q6 0 8 -4.5t2 -6.5q0 -3 -2 -5l-79 -108v-1v-1l79 -107q1 -2 1 -6t-3 -7.5t-6 -3.5h-72
q-7 0 -9 6l-83 111q-3 5 -3 9t3 7z" />
    <glyph glyph-name="macron" unicode="&#xaf;" horiz-adv-x="348" 
d="M36 641q0 6 4.5 10.5t10.5 4.5h245q6 0 10.5 -4.5t4.5 -10.5v-48q0 -6 -4.5 -10.5t-10.5 -4.5h-245q-6 0 -10.5 4.5t-4.5 10.5v48z" />
    <glyph glyph-name="degree" unicode="&#xb0;" horiz-adv-x="309" 
d="M36 474v128q0 9 6 15l34 33q5 6 14 6h128q9 0 14 -6l34 -33q7 -7 7 -15v-128q0 -8 -7 -14l-34 -33q-5 -7 -14 -7h-128q-9 0 -14 7l-34 33q-6 5 -6 14zM115 497l6 -6q2 -2 7 -2h52q4 0 8 2l5 6q3 3 3 7v68q0 5 -3 8l-5 5q-4 3 -8 3h-52q-5 0 -7 -3l-6 -5q-2 -3 -2 -8v-68
q0 -4 2 -7z" />
    <glyph glyph-name="plusminus" unicode="&#xb1;" horiz-adv-x="348" 
d="M36 364v46q0 8 5 12.5t11 4.5h78q4 0 4 5v77q0 7 5 11.5t11 4.5h47q6 0 11 -4.5t5 -11.5v-77q0 -5 6 -5h77q6 0 10.5 -5t4.5 -12v-46q0 -7 -4.5 -12t-10.5 -5h-77q-6 0 -6 -4v-77q0 -7 -4.5 -12t-11.5 -5h-47q-6 0 -11 5t-5 12v77q0 4 -4 4h-78q-6 0 -11 5t-5 12zM36 147
v47q0 7 5 11.5t11 4.5h244q6 0 10.5 -4.5t4.5 -11.5v-47q0 -7 -4.5 -11.5t-10.5 -4.5h-244q-6 0 -11 4.5t-5 11.5z" />
    <glyph glyph-name="acute" unicode="&#xb4;" horiz-adv-x="221" 
d="M37 539l37 106q4 11 15 11h86q6 0 8 -4.5t2 -6.5q0 -3 -2 -6l-80 -106q-6 -8 -15 -8h-41q-6 0 -8.5 3.5t-2.5 6.5q0 2 1 4z" />
    <glyph glyph-name="periodcentered" unicode="&#xb7;" horiz-adv-x="191" 
d="M53 370q17 17 42 17t42 -17t17 -41q0 -26 -17 -43t-42 -17t-42 17t-17 43q0 24 17 41z" />
    <glyph glyph-name="cedilla" unicode="&#xb8;" horiz-adv-x="191" 
d="M36 -160v38q0 4 3 7t8 3h48q2 0 4.5 2.5t2.5 4.5v13q0 2 -2.5 4t-4.5 2h-45q-6 1 -8.5 4.5t-2.5 6.5v2l17 73h47l-7 -20q0 -6 6 -6h15q4 0 7 -4l27 -26q3 -3 3 -7v-70q0 -5 -3 -8l-27 -26q-3 -4 -7 -4h-70q-5 0 -8 3t-3 8z" />
    <glyph glyph-name="ordmasculine" unicode="&#xba;" horiz-adv-x="309" 
d="M36 422v180q0 9 6 15l34 33q5 6 14 6h128q9 0 14 -6l34 -33q5 -5 7 -15v-180q0 -7 -7 -15l-34 -33q-6 -7 -14 -7h-128q-8 0 -14 7l-34 33q-6 6 -6 15zM115 445l6 -6q2 -2 7 -2h52q4 0 8 2l5 6q3 2 3 7v120q0 5 -3 8l-5 5q-4 3 -8 3h-52q-5 0 -7 -3l-6 -5q-2 -3 -2 -8
v-120q0 -5 2 -7z" />
    <glyph glyph-name="guillemotright" unicode="&#xbb;" horiz-adv-x="407" 
d="M195 220l80 107l1 1l-1 1l-80 108q-1 3 -1 5q0 4 3 7.5t7 3.5h71q7 0 10 -6l82 -111q3 -3 3 -7t-3 -9l-82 -111q-3 -6 -10 -6h-71q-6 0 -8 4.5t-2 7.5q0 2 1 5zM38 220l79 107l1 1q0 1 -1 1l-79 108q-2 3 -2 5q0 4 3 7.5t8 3.5h70q6 0 11 -6l82 -111q2 -3 2 -7t-2 -9
l-82 -111q-4 -6 -11 -6h-70q-6 0 -8.5 4.5t-2.5 6.5q0 3 2 6z" />
    <glyph glyph-name="questiondown" unicode="&#xbf;" horiz-adv-x="453" 
d="M36 -24v164q0 20 17 32l104 66q4 1 4 6v103q0 8 6 14t15 6h89q9 0 15 -6t6 -14v-167q0 -13 -11 -20l-110 -69q-4 -3 -4 -6v-60q0 -6 4 -9l12 -12q5 -4 10 -4h67q5 0 9 4l13 12q3 3 3 9v40q0 6 4 11t10 7l97 29q2 0 5 1q7 -1 11.5 -5.5t4.5 -10.5v-121q0 -16 -11 -26
l-58 -57q-10 -11 -26 -11h-192q-16 0 -26 11l-57 57q-11 10 -11 26zM167 479q0 25 17.5 42t41.5 17q25 0 42 -17t17 -42q0 -24 -17 -41.5t-42 -17.5q-24 0 -41.5 17.5t-17.5 41.5z" />
    <glyph glyph-name="Agrave" unicode="&#xc0;" horiz-adv-x="447" 
d="M0 19l129 618q2 8 8.5 13.5t14.5 5.5h143q8 0 15 -5.5t9 -13.5l128 -618v-3q0 -7 -4.5 -11.5t-11.5 -4.5h-93q-7 0 -12 4t-6 11l-25 130q-2 5 -6 8.5t-10 4.5h-111q-6 -1 -10 -4.5t-5 -8.5l-25 -130q-2 -7 -7 -11t-11 -4h-94q-8 0 -12.5 5t-4.5 10q0 2 1 4zM120 803
q0 4 3 7.5t7 3.5h86q5 0 9 -3.5t5 -7.5l38 -106v-4q0 -4 -2.5 -7.5t-7.5 -3.5h-42q-9 0 -14 8l-80 107q-2 2 -2 6zM183 284q0 -4 2 -6.5t6 -2.5h66q3 0 5.5 3t2.5 7l-38 187q-1 2 -3.5 2t-2.5 -2l-38 -187v-1z" />
    <glyph glyph-name="Aacute" unicode="&#xc1;" horiz-adv-x="447" 
d="M0 19l129 618q2 8 8.5 13.5t14.5 5.5h143q9 0 15.5 -5.5t8.5 -13.5l128 -618v-3q0 -7 -4.5 -11.5t-11.5 -4.5h-93q-7 0 -12 4t-6 11l-25 130q-2 5 -6 8.5t-10 4.5h-111q-6 -1 -10 -4.5t-5 -8.5l-25 -130q-2 -7 -7 -11t-11 -4h-94q-8 0 -12.5 5t-4.5 10q0 2 1 4zM179 697
l38 106q1 4 5.5 7.5t8.5 3.5h87q6 0 8 -4.5t2 -6.5q0 -3 -2 -6l-80 -107q-6 -8 -15 -8h-42q-5 0 -8 3.5t-3 7.5q0 2 1 4zM185 278q2 -3 6 -3h66q3 0 5.5 3t2.5 7l-38 187q-1 2 -3.5 2t-2.5 -2l-38 -187v-1q0 -4 2 -6z" />
    <glyph glyph-name="Acircumflex" unicode="&#xc2;" horiz-adv-x="447" 
d="M0 19l129 618q2 8 8.5 13.5t14.5 5.5h143q9 0 15.5 -5.5t8.5 -13.5l128 -618v-3q0 -7 -4.5 -11.5t-11.5 -4.5h-93q-7 0 -12 4t-6 11l-25 130q-2 5 -6 8.5t-10 4.5h-111q-6 -1 -10 -4.5t-5 -8.5l-25 -130q-2 -7 -7 -11t-11 -4h-94q-8 0 -12.5 5t-4.5 10q0 2 1 4zM122 699
l58 76q5 6 12 6h64q6 0 12 -6l58 -76q2 -2 2 -6t-3.5 -7.5t-7.5 -3.5h-56q-8 0 -13 7l-22 30q-1 1 -2.5 1t-2.5 -1l-22 -30q-5 -7 -13 -7h-55q-7 0 -9 4.5t-2 6.5q0 3 2 6zM185 278q2 -3 6 -3h66q3 0 5.5 3t2.5 7l-38 187q-1 2 -3.5 2t-2.5 -2l-38 -187v-1q0 -4 2 -6z" />
    <glyph glyph-name="Atilde" unicode="&#xc3;" horiz-adv-x="447" 
d="M0 19l129 618q2 8 8.5 13.5t14.5 5.5h143q9 0 15.5 -5.5t8.5 -13.5l128 -618v-3q0 -7 -4.5 -11.5t-11.5 -4.5h-93q-7 0 -12 4t-6 11l-25 130q-2 5 -6 8.5t-10 4.5h-111q-6 -1 -10 -4.5t-5 -8.5l-25 -130q-2 -7 -7 -11t-11 -4h-94q-8 0 -12.5 5t-4.5 10q0 2 1 4zM103 693
v48q0 8 5 13l29 29q4 4 11 5h16q3 -1 5 -1l107 -34h1q1 0 2 0.5t1 1.5v22q0 4 2.5 7t7.5 4h45q4 -1 7 -4t3 -7v-48q0 -8 -6 -13l-28 -29q-5 -5 -11 -5h-16l-6 1l-107 34q-3 0 -3 -2v-22q0 -4 -3 -7.5t-7 -3.5h-45q-4 0 -7 3.5t-3 7.5zM183 284q0 -4 2 -6.5t6 -2.5h66
q3 0 5.5 3t2.5 7l-38 187q-1 2 -3.5 2t-2.5 -2l-38 -187v-1z" />
    <glyph glyph-name="Adieresis" unicode="&#xc4;" horiz-adv-x="447" 
d="M0 19l129 618q2 8 8.5 13.5t14.5 5.5h143q9 0 15.5 -5.5t8.5 -13.5l128 -618v-3q0 -7 -4.5 -11.5t-11.5 -4.5h-93q-7 0 -12 4t-6 11l-25 130q-2 5 -6 8.5t-10 4.5h-111q-6 -1 -10 -4.5t-5 -8.5l-25 -130q-2 -7 -7 -11t-11 -4h-94q-8 0 -12.5 5t-4.5 10q0 2 1 4zM69 742
q0 24 17.5 41.5t42.5 17.5q24 0 41 -17.5t17 -41.5q0 -25 -17 -42.5t-41 -17.5q-25 0 -42.5 17.5t-17.5 42.5zM260 742q0 24 17 41.5t42 17.5q24 0 41.5 -17.5t17.5 -41.5q0 -25 -17.5 -42.5t-41.5 -17.5q-25 0 -42 17.5t-17 42.5zM183 284q0 -4 2 -6.5t6 -2.5h66q3 0 5.5 3
t2.5 7l-38 187q-1 2 -3.5 2t-2.5 -2l-38 -187v-1z" />
    <glyph glyph-name="Aring" unicode="&#xc5;" horiz-adv-x="447" 
d="M0 19l129 618q2 8 8.5 13.5t14.5 5.5h143q9 0 15.5 -5.5t8.5 -13.5l128 -618v-3q0 -7 -4.5 -11.5t-11.5 -4.5h-93q-7 0 -12 4t-6 11l-25 130q-2 5 -6 8.5t-10 4.5h-111q-6 -1 -10 -4.5t-5 -8.5l-25 -130q-2 -7 -7 -11t-11 -4h-94q-8 0 -12.5 5t-4.5 10q0 2 1 4zM165 823
q24 24 58 24t58.5 -24.5t24.5 -58.5t-24.5 -58t-58.5 -24q-33 0 -57.5 24.5t-24.5 57.5q0 34 24 59zM185 278q2 -3 6 -3h66q3 0 5.5 3t2.5 7l-38 187q-1 2 -3.5 2t-2.5 -2l-38 -187v-1q0 -4 2 -6zM194 764q0 -12 9 -20.5t20 -8.5q13 0 21.5 8.5t8.5 20.5q0 13 -8.5 21.5
t-21.5 8.5q-12 0 -20.5 -8.5t-8.5 -21.5z" />
    <glyph glyph-name="AE" unicode="&#xc6;" horiz-adv-x="675" 
d="M1 22l230 619q3 7 9 11t13 4h364q9 0 15.5 -6t6.5 -15v-76q0 -9 -6.5 -15t-15.5 -6h-171q-5 0 -7.5 -3t-2.5 -8v-129q0 -5 2.5 -8t7.5 -3h113q9 0 15 -6t6 -15v-76q0 -9 -6 -15t-15 -6h-113q-5 0 -7.5 -3t-2.5 -8v-129q0 -5 2.5 -8t7.5 -3h171q9 0 15.5 -6t6.5 -15v-76
q0 -9 -6.5 -15t-15.5 -6h-292q-9 0 -15 6t-6 15v121q0 6 -5 10.5t-11 5.5h-94q-5 -1 -9.5 -4t-5.5 -7l-46 -134q-4 -13 -17 -13h-100q-9 0 -12.5 5.5t-3.5 10.5q0 3 1 6zM234 278q3 -3 6 -3h56q4 0 6 2.5t2 6.5v170q0 2 -2 2t-3 -1l-67 -171q0 -4 2 -6z" />
    <glyph glyph-name="Ccedilla" unicode="&#xc7;" 
d="M36 94v469q0 15 11 26l57 56q10 11 26 11h206q15 0 26 -11l57 -56q11 -12 11 -26v-90q0 -6 -3.5 -11t-9.5 -7l-103 -29q-6 0 -10.5 5t-4.5 11v71q0 6 -5 9l-11 13q-6 3 -9 3h-81q-5 0 -10 -3l-12 -13q-4 -3 -4 -9v-370q0 -5 4 -9l12 -12q5 -4 10 -4h81q3 0 9 4l11 12
q5 5 5 9v80q0 6 3.5 10.5t8.5 6.5l103 31q6 0 10.5 -5t4.5 -11v-161q0 -16 -10 -26l-57 -57q-11 -11 -26 -11h-101q-7 0 -11 -8l-3 -12v-2q0 -4 6 -4h14q6 0 8 -4l26 -26q4 -3 4 -8v-69q0 -5 -4 -8l-26 -26q-3 -4 -8 -4h-70q-4 0 -7 3t-3 8v38q0 4 3 7t7 3h49q2 0 4 2.5
t2 4.5v13q0 2 -2 4t-4 2h-46q-5 1 -7.5 4.5t-2.5 6.5v2l14 63v2q0 3 -2 5.5t-6 2.5h-40q-16 0 -26 11l-57 57q-11 10 -11 26z" />
    <glyph glyph-name="Egrave" unicode="&#xc8;" horiz-adv-x="407" 
d="M36 21v614q0 9 6.5 15t14.5 6h292q9 0 15.5 -6t6.5 -15v-76q0 -9 -6.5 -15t-15.5 -6h-171q-4 0 -7.5 -3t-3.5 -8v-129q0 -5 3.5 -8t7.5 -3h113q9 0 14.5 -6t5.5 -15v-76q0 -9 -5.5 -15t-14.5 -6h-113q-4 0 -7.5 -3t-3.5 -8v-129q0 -5 3.5 -8t7.5 -3h171q9 0 15.5 -6
t6.5 -15v-76q0 -9 -6.5 -15t-15.5 -6h-292q-8 0 -14.5 6.5t-6.5 14.5zM79 804q0 4 3.5 7t7.5 3h86q10 0 15 -11l37 -106q1 -1 1 -4q0 -4 -3.5 -7.5t-7.5 -3.5h-42q-9 0 -14 8l-80 107q-3 2 -3 7z" />
    <glyph glyph-name="Eacute" unicode="&#xc9;" horiz-adv-x="407" 
d="M36 21v614q0 9 6.5 15t14.5 6h292q9 0 15.5 -6t6.5 -15v-76q0 -9 -6.5 -15t-15.5 -6h-171q-4 0 -7.5 -3t-3.5 -8v-129q0 -5 3.5 -8t7.5 -3h113q9 0 14.5 -6t5.5 -15v-76q0 -9 -5.5 -15t-14.5 -6h-113q-4 0 -7.5 -3t-3.5 -8v-129q0 -5 3.5 -8t7.5 -3h171q9 0 15.5 -6
t6.5 -15v-76q0 -9 -6.5 -15t-15.5 -6h-292q-8 0 -14.5 6.5t-6.5 14.5zM146 697l38 106q1 4 5.5 7.5t8.5 3.5h86q7 0 9 -4.5t2 -6.5q0 -3 -2 -6l-81 -107q-5 -8 -15 -8h-41q-6 0 -8.5 3.5t-2.5 6.5t1 5z" />
    <glyph glyph-name="Ecircumflex" unicode="&#xca;" horiz-adv-x="407" 
d="M36 21v614q0 9 6 15t15 6h292q9 0 15.5 -6t6.5 -15v-76q0 -9 -6.5 -15t-15.5 -6h-171q-4 0 -7.5 -3t-3.5 -8v-129q0 -5 3.5 -8t7.5 -3h113q9 0 14.5 -6t5.5 -15v-76q0 -9 -5.5 -15t-14.5 -6h-113q-4 0 -7.5 -3t-3.5 -8v-129q0 -5 3.5 -8t7.5 -3h171q9 0 15.5 -6t6.5 -15
v-76q0 -9 -6.5 -15t-15.5 -6h-292q-9 0 -15 6.5t-6 14.5zM101 699l57 76q5 6 13 6h63q6 0 13 -6l57 -76q2 -2 2 -6t-3 -7.5t-7 -3.5h-57q-6 0 -12 7l-23 30q-1 1 -2 1t-2 -1l-23 -30q-4 -7 -12 -7h-56q-6 0 -8.5 4t-2.5 7t3 6z" />
    <glyph glyph-name="Edieresis" unicode="&#xcb;" horiz-adv-x="407" 
d="M36 635q0 9 6.5 15t14.5 6h292q9 0 15.5 -6t6.5 -15v-76q0 -9 -6.5 -15t-15.5 -6h-171q-4 0 -7.5 -3t-3.5 -8v-129q0 -5 3.5 -8t7.5 -3h113q9 0 14.5 -6t5.5 -15v-76q0 -9 -5.5 -15t-14.5 -6h-113q-4 0 -7.5 -3t-3.5 -8v-129q0 -5 3.5 -8t7.5 -3h171q9 0 15.5 -6t6.5 -15
v-76q0 -9 -6.5 -15t-15.5 -6h-292q-8 0 -14.5 6.5t-6.5 14.5v614zM48 742q0 24 17.5 41.5t41.5 17.5t41.5 -17.5t18.5 -41.5q-1 -25 -18.5 -42.5t-41.5 -17.5t-41.5 17.5t-17.5 42.5zM256 783q17 18 41 18q25 0 42 -17.5t17 -41.5q0 -25 -17 -42.5t-42 -17.5q-24 0 -41 17.5
t-17 42.5q0 24 17 41z" />
    <glyph glyph-name="Igrave" unicode="&#xcc;" horiz-adv-x="226" 
d="M64 650q6 6 15 6h89q9 0 15.5 -6t6.5 -15v-614q0 -9 -6.5 -15t-15.5 -6h-89q-9 0 -14.5 6t-5.5 15v614q0 9 5 15zM36 803q0 4 3 7.5t8 3.5h85q11 0 16 -11l37 -106v-4q0 -4 -3 -7.5t-7 -3.5h-42q-10 0 -15 8l-80 107q-2 3 -2 6z" />
    <glyph glyph-name="Iacute" unicode="&#xcd;" horiz-adv-x="226" 
d="M36 21v614q0 9 6 15t15 6h90q8 0 14 -6t6 -15v-614q0 -9 -6 -15t-14 -6h-90q-9 0 -15 6t-6 15zM41 697l37 106q1 4 5.5 7.5t9.5 3.5h86q6 0 8 -4.5t2 -6.5q0 -3 -2 -6l-80 -107q-5 -8 -14 -8h-42q-6 0 -8.5 3.5t-2.5 6.5t1 5z" />
    <glyph glyph-name="Icircumflex" unicode="&#xce;" horiz-adv-x="281" 
d="M81 650q5 6 14 6h90q8 0 14 -6t7 -15v-614q0 -9 -6.5 -15t-14.5 -6h-90q-9 0 -14.5 6t-5.5 15v614q0 9 6 15zM38 699l58 76q5 6 12 6h64q6 0 13 -6l57 -76q2 -2 2 -6t-3 -7.5t-8 -3.5h-56q-8 0 -12 7l-23 30q-1 1 -2 1t-2 -1l-23 -30q-4 -7 -12 -7h-56q-6 0 -8.5 4.5
t-2.5 6.5q0 3 2 6z" />
    <glyph glyph-name="Idieresis" unicode="&#xcf;" horiz-adv-x="381" 
d="M124 21v614q0 9 6.5 15t15.5 6h89q9 0 15 -6t6 -15v-614q0 -9 -6 -15t-15 -6h-89q-9 0 -15.5 6t-6.5 15zM226 742q0 24 17.5 41.5t41.5 17.5q25 0 42.5 -17.5t17.5 -41.5q0 -25 -17.5 -42.5t-42.5 -17.5q-24 0 -41.5 17.5t-17.5 42.5zM36 742q0 24 17 41.5t42 17.5
t42 -17.5t17 -41.5q0 -25 -17 -42.5t-42 -17.5t-42 17.5t-17 42.5z" />
    <glyph glyph-name="Eth" unicode="&#xd0;" horiz-adv-x="518" 
d="M36 297v62q0 9 6 15.5t15 6.5h21q5 0 7.5 3t2.5 8v243q0 9 6.5 15t15.5 6h278q15 0 26 -11l58 -56q10 -13 10 -26v-469q0 -15 -10 -26l-58 -57q-11 -11 -26 -11h-278q-9 0 -15.5 6t-6.5 15v245q0 4 -2.5 6.5t-7.5 2.5h-21q-9 0 -15 6.5t-6 15.5zM220 266v-137q0 -5 3 -8
t7 -3h96q5 0 9 4l12 12q4 5 4 9v370q0 5 -4 9l-12 13q-4 3 -9 3h-96q-4 0 -7 -3t-3 -8v-135q0 -5 3 -8t7 -3h35q9 0 14.5 -6.5t5.5 -15.5v-62q0 -9 -5.5 -15.5t-14.5 -6.5h-35q-4 0 -7 -2.5t-3 -6.5z" />
    <glyph glyph-name="Ntilde" unicode="&#xd1;" horiz-adv-x="480" 
d="M36 635q0 9 6 15t15 6h107q5 0 10 -3t7 -9l126 -315q1 -1 2 -1l1 0.5t1 1.5v305q0 9 6.5 15t15.5 6h89q9 0 15 -6t6 -15v-614q0 -9 -6 -15t-15 -6h-107q-11 0 -17 12l-126 315q-1 1 -3 1t-2 -2v-305q0 -9 -5.5 -15t-14.5 -6h-90q-9 0 -15 6t-6 15v614zM118 693v48
q0 8 5 13l29 29q6 4 12 5h15q4 -1 6 -1l107 -34h1t1.5 0.5t0.5 1.5v22q0 4 3.5 7t7.5 4h44q5 -1 8 -4t3 -7v-48q0 -8 -5 -13l-29 -29q-5 -5 -11 -5h-16l-6 1l-107 34q-3 0 -3 -2v-22q0 -4 -3.5 -7.5t-7.5 -3.5h-44q-4 0 -7.5 3.5t-3.5 7.5z" />
    <glyph glyph-name="Ograve" unicode="&#xd2;" horiz-adv-x="462" 
d="M38 589l57 56q10 11 26 11h219q16 0 25 -11l58 -56q11 -11 11 -26v-469q0 -16 -11 -26l-58 -57q-9 -11 -25 -11h-219q-16 0 -26 11l-57 57q-11 10 -11 26v469q0 15 11 26zM158 143q0 -5 4 -9l12 -12q4 -4 10 -4h93q6 0 10 4l12 12q3 4 3 9v370q0 6 -3 9l-12 13
q-5 3 -10 3h-93q-5 0 -10 -3l-12 -13q-4 -3 -4 -9v-370zM136 803q0 4 3 7.5t8 3.5h85q11 0 16 -11l36 -106q1 -1 1 -4q0 -4 -3 -7.5t-7 -3.5h-42q-10 0 -14 8l-81 107q-2 3 -2 6z" />
    <glyph glyph-name="Oacute" unicode="&#xd3;" horiz-adv-x="462" 
d="M38 589l57 56q10 11 26 11h219q16 0 25 -11l58 -56q11 -11 11 -26v-469q0 -16 -11 -26l-58 -57q-9 -11 -25 -11h-219q-16 0 -26 11l-57 57q-11 10 -11 26v469q0 15 11 26zM162 134l12 -12q4 -4 10 -4h93q6 0 10 4l12 12q3 4 3 9v370q0 6 -3 9l-12 13q-5 3 -10 3h-93
q-5 0 -10 -3l-12 -13q-4 -3 -4 -9v-370q0 -5 4 -9zM176 697l37 106q5 11 16 11h85q6 0 8.5 -4.5t2.5 -6.5q0 -3 -2 -6l-81 -107q-4 -8 -14 -8h-42q-5 0 -7.5 4t-2.5 8v3z" />
    <glyph glyph-name="Ocircumflex" unicode="&#xd4;" horiz-adv-x="462" 
d="M38 589l57 56q10 11 26 11h219q16 0 25 -11l58 -56q11 -11 11 -26v-469q0 -16 -11 -26l-58 -57q-9 -11 -25 -11h-219q-16 0 -26 11l-57 57q-11 10 -11 26v469q0 15 11 26zM158 143q0 -5 4 -9l12 -12q4 -4 10 -4h93q6 0 10 4l12 12q3 4 3 9v370q0 6 -3 9l-12 13
q-5 3 -10 3h-93q-5 0 -10 -3l-12 -13q-4 -3 -4 -9v-370zM129 699l57 76q5 6 13 6h63q8 0 13 -6l57 -76q3 -2 3 -7q0 -4 -3.5 -7t-7.5 -3h-56q-8 0 -12 7l-24 30q-1 1 -2 1l-1 -1l-24 -30q-4 -7 -11 -7h-57q-6 0 -8.5 4t-2.5 7t3 6z" />
    <glyph glyph-name="Otilde" unicode="&#xd5;" horiz-adv-x="462" 
d="M27 94v469q0 15 11 26l57 56q10 11 26 11h219q16 0 25 -11l58 -56q11 -11 11 -26v-469q0 -16 -11 -26l-58 -57q-9 -11 -25 -11h-219q-16 0 -26 11l-57 57q-11 10 -11 26zM158 143q0 -5 4 -9l12 -12q4 -4 10 -4h93q6 0 10 4l12 12q3 4 3 9v370q0 6 -3 9l-12 13q-5 3 -10 3
h-93q-5 0 -10 -3l-12 -13q-4 -3 -4 -9v-370zM114 754l29 29q6 4 12 5h15q4 -1 6 -1l107 -34h1q1 0 1.5 0.5t0.5 1.5v22q0 4 3.5 7t7.5 4h44q5 -1 8 -4t3 -7v-48q0 -8 -5 -13l-29 -29q-5 -5 -12 -5h-15l-6 1l-107 34q-3 0 -3 -2v-22q0 -4 -3.5 -7.5t-7.5 -3.5h-44
q-5 0 -8 3.5t-3 7.5v48q0 8 5 13z" />
    <glyph glyph-name="Odieresis" unicode="&#xd6;" horiz-adv-x="462" 
d="M27 563q0 15 11 26l57 56q10 11 26 11h219q16 0 25 -11l58 -56q11 -11 11 -26v-469q0 -16 -11 -26l-58 -57q-9 -11 -25 -11h-219q-16 0 -26 11l-57 57q-11 10 -11 26v469zM158 143q0 -5 4 -9l12 -12q4 -4 10 -4h93q6 0 10 4l12 12q3 4 3 9v370q0 6 -3 9l-12 13
q-5 3 -10 3h-93q-5 0 -10 -3l-12 -13q-4 -3 -4 -9v-370zM77 742q0 24 17 41.5t41 17.5q25 0 42 -17.5t17 -41.5q0 -25 -17 -42.5t-42 -17.5q-24 0 -41 17.5t-17 42.5zM266 742q0 24 18 41.5t42 17.5t41 -17.5t17 -41.5q0 -25 -17 -42.5t-41 -17.5t-42 17.5t-18 42.5z" />
    <glyph glyph-name="multiply" unicode="&#xd7;" horiz-adv-x="310" 
d="M41 409l33 33q4 4 12 4q7 0 10 -4l55 -54q2 -2 4 -2t3 2l55 54q5 4 12 4t11 -4l33 -33q5 -4 5 -11t-5 -11l-55 -55q-1 -2 -1 -4t1 -4l55 -54q5 -4 5 -11t-5 -11l-33 -34q-5 -4 -11 -4q-5 0 -12 4l-55 54q-1 2 -3 2t-4 -2l-55 -54q-4 -4 -10 -4t-12 4l-33 34q-5 6 -5 11
q0 6 5 11l54 54l2 4l-2 4l-54 55q-5 5 -5 11t5 11z" />
    <glyph glyph-name="Oslash" unicode="&#xd8;" horiz-adv-x="462" 
d="M27 563q0 15 11 26l57 56q10 11 26 11h162q2 0 4.5 2t3.5 4l8 21q4 13 17 13h76q8 0 12 -6t4 -11q0 -3 -1 -5l-17 -46v-2q0 -3 2 -7l31 -30q11 -11 11 -26v-469q0 -16 -11 -26l-58 -57q-9 -11 -25 -11h-162q-5 0 -8 -5l-8 -22q-5 -13 -17 -13h-77q-8 0 -11.5 5.5
t-3.5 10.5q0 3 1 6l17 47v2q0 2 -2 6l-31 31q-11 10 -11 26v469zM161 297h1q1 0 2 1l79 232q0 4 -2.5 6t-5.5 2h-51q-5 0 -10 -3l-12 -13q-4 -3 -4 -9v-214q0 -2 3 -2zM218 126q0 -4 2 -6t6 -2h51q5 0 10 4l12 12q3 4 3 9v214q0 3 -1.5 3t-2.5 -2z" />
    <glyph glyph-name="Ugrave" unicode="&#xd9;" 
d="M36 94v541q0 9 6 15t15 6h89q9 0 15 -6t6 -15v-492q0 -5 4 -9l12 -12q5 -4 10 -4h81q3 0 9 4l11 12q5 5 5 9v492q0 9 6 15t15 6h89q9 0 14.5 -6t5.5 -15v-541q0 -16 -10 -26l-57 -57q-11 -11 -26 -11h-206q-16 0 -26 11l-57 57q-11 10 -11 26zM139 803q0 4 3 7.5t7 3.5
h86q4 0 8.5 -3.5t5.5 -7.5l38 -106q1 -1 1 -4q0 -4 -3 -7.5t-8 -3.5h-41q-10 0 -15 8l-81 107q-1 1 -1 6z" />
    <glyph glyph-name="Uacute" unicode="&#xda;" 
d="M36 635q0 9 6 15t15 6h89q9 0 15 -6t6 -15v-492q0 -5 4 -9l12 -12q5 -4 10 -4h81q3 0 9 4l11 12q5 5 5 9v492q0 9 6 15t15 6h89q9 0 14.5 -6t5.5 -15v-541q0 -16 -10 -26l-57 -57q-11 -11 -26 -11h-206q-16 0 -26 11l-57 57q-11 10 -11 26v541zM179 697l37 106q2 4 6 7.5
t9 3.5h86q6 0 8 -4.5t2 -6.5q0 -3 -2 -6l-80 -107q-6 -8 -15 -8h-41q-5 0 -8 3.5t-3 7.5q0 2 1 4z" />
    <glyph glyph-name="Ucircumflex" unicode="&#xdb;" 
d="M36 94v541q0 9 6 15t15 6h89q9 0 15 -6t6 -15v-492q0 -5 4 -9l12 -12q5 -4 10 -4h81q3 0 9 4l11 12q5 5 5 9v492q0 9 6 15t15 6h89q9 0 14.5 -6t5.5 -15v-541q0 -16 -10 -26l-57 -57q-11 -11 -26 -11h-206q-16 0 -26 11l-57 57q-11 10 -11 26zM131 699l58 76q5 6 13 6h63
q6 0 12 -6l58 -76q2 -2 2 -6t-3.5 -7.5t-6.5 -3.5h-57q-6 0 -13 7l-22 30q-1 1 -2.5 1t-2.5 -1l-22 -30q-5 -7 -13 -7h-55q-7 0 -9 4.5t-2 6.5q0 3 2 6z" />
    <glyph glyph-name="Udieresis" unicode="&#xdc;" 
d="M36 94v541q0 9 6.5 15t14.5 6h89q9 0 15 -6t6 -15v-492q0 -5 4 -9l12 -12q5 -4 10 -4h81q3 0 9 4l11 12q5 5 5 9v492q0 9 6 15t15 6h89q9 0 14.5 -6t6.5 -15v-541q0 -15 -11 -26l-57 -57q-11 -11 -26 -11h-206q-16 0 -26 11l-57 57q-11 10 -11 26zM96 783q17 18 42 18
q24 0 41.5 -17.5t17.5 -41.5q0 -25 -17.5 -42.5t-41.5 -17.5q-25 0 -42.5 17.5t-17.5 42.5q0 24 18 41zM286 783q17 18 42 18t42 -17.5t17 -41.5q0 -25 -17 -42.5t-42 -17.5t-42 17.5t-17 42.5q0 24 17 41z" />
    <glyph glyph-name="Yacute" unicode="&#xdd;" horiz-adv-x="464" 
d="M18 640q0 7 4.5 11.5t11.5 4.5h107q13 0 17 -12l72 -187q0 -1 1.5 -1t2.5 1l71 187q5 12 17 12h108q8 0 12 -5.5t4 -10.5q0 -3 -1 -5l-147 -366v-248q0 -9 -6.5 -15t-15.5 -6h-89q-9 0 -14.5 6t-5.5 15v245l-148 369q-1 1 -1 5zM188 697l37 106q2 4 6 7.5t9 3.5h86
q6 0 8 -4.5t2 -6.5q0 -3 -2 -6l-80 -107q-6 -8 -15 -8h-41q-5 0 -8 3.5t-3 7.5q0 2 1 4z" />
    <glyph glyph-name="Thorn" unicode="&#xde;" 
d="M36 635q0 9 6.5 15t14.5 6h89q9 0 15 -6t6 -15v-86q0 -4 3.5 -7.5t7.5 -3.5h158q15 0 26 -11l57 -57q11 -11 11 -25v-233q0 -15 -11 -26l-57 -57q-13 -11 -26 -11h-158q-4 0 -7.5 -3t-3.5 -7v-87q0 -8 -6 -14.5t-15 -6.5h-89q-8 0 -14.5 6.5t-6.5 14.5v614zM171 239
q3 -2 7 -2h96q5 0 9 3l11 12q5 4 5 9v134q0 5 -5 9l-11 12q-5 4 -9 4h-96q-4 0 -7.5 -3t-3.5 -7v-163q0 -5 4 -8z" />
    <glyph glyph-name="germandbls" unicode="&#xdf;" 
d="M36 -18v653q0 9 6 15t15 6h279q15 0 26 -11l57 -56q11 -13 11 -26v-187q0 -13 -11 -26l-20 -20v-2v-1l20 -21q11 -13 11 -26v-186q0 -15 -11 -26l-57 -57q-11 -11 -26 -11h-90q-6 0 -11 3.5t-6 9.5l-28 84q-1 2 -1 6q0 7 4.5 11t10.5 4h59q4 0 9 4l11 12q5 5 5 9v101
q0 6 -5 9l-11 13q-6 3 -9 3h-96q-4 0 -7.5 -3t-3.5 -8v-276q0 -9 -6 -15.5t-15 -6.5h-89q-9 0 -15 6.5t-6 15.5zM167 527v-129q0 -5 3.5 -8t7.5 -3h96q3 0 9 4l11 12q5 5 5 9v101q0 6 -5 9l-11 13q-6 3 -9 3h-96q-4 0 -7.5 -3t-3.5 -8z" />
    <glyph glyph-name="agrave" unicode="&#xe0;" horiz-adv-x="447" 
d="M0 19l129 618q2 8 8.5 13.5t14.5 5.5h143q8 0 15 -5.5t9 -13.5l128 -618v-3q0 -7 -4.5 -11.5t-11.5 -4.5h-93q-7 0 -12 4t-6 11l-25 130q-2 5 -6 8.5t-10 4.5h-111q-6 -1 -10 -4.5t-5 -8.5l-25 -130q-2 -7 -7 -11t-11 -4h-94q-8 0 -12.5 5t-4.5 10q0 2 1 4zM120 803
q0 4 3 7.5t7 3.5h86q5 0 9 -3.5t5 -7.5l38 -106v-4q0 -4 -2.5 -7.5t-7.5 -3.5h-42q-9 0 -14 8l-80 107q-2 2 -2 6zM183 284q0 -4 2 -6.5t6 -2.5h66q3 0 5.5 3t2.5 7l-38 187q-1 2 -3.5 2t-2.5 -2l-38 -187v-1z" />
    <glyph glyph-name="aacute" unicode="&#xe1;" horiz-adv-x="447" 
d="M0 19l129 618q2 8 8.5 13.5t14.5 5.5h143q9 0 15.5 -5.5t8.5 -13.5l128 -618v-3q0 -7 -4.5 -11.5t-11.5 -4.5h-93q-7 0 -12 4t-6 11l-25 130q-2 5 -6 8.5t-10 4.5h-111q-6 -1 -10 -4.5t-5 -8.5l-25 -130q-2 -7 -7 -11t-11 -4h-94q-8 0 -12.5 5t-4.5 10q0 2 1 4zM179 697
l38 106q1 4 5.5 7.5t8.5 3.5h87q6 0 8 -4.5t2 -6.5q0 -3 -2 -6l-80 -107q-6 -8 -15 -8h-42q-5 0 -8 3.5t-3 7.5q0 2 1 4zM185 278q2 -3 6 -3h66q3 0 5.5 3t2.5 7l-38 187q-1 2 -3.5 2t-2.5 -2l-38 -187v-1q0 -4 2 -6z" />
    <glyph glyph-name="acircumflex" unicode="&#xe2;" horiz-adv-x="447" 
d="M0 19l129 618q2 8 8.5 13.5t14.5 5.5h143q9 0 15.5 -5.5t8.5 -13.5l128 -618v-3q0 -7 -4.5 -11.5t-11.5 -4.5h-93q-7 0 -12 4t-6 11l-25 130q-2 5 -6 8.5t-10 4.5h-111q-6 -1 -10 -4.5t-5 -8.5l-25 -130q-2 -7 -7 -11t-11 -4h-94q-8 0 -12.5 5t-4.5 10q0 2 1 4zM122 699
l58 76q5 6 12 6h64q6 0 12 -6l58 -76q2 -2 2 -6t-3.5 -7.5t-7.5 -3.5h-56q-8 0 -13 7l-22 30q-1 1 -2.5 1t-2.5 -1l-22 -30q-5 -7 -13 -7h-55q-7 0 -9 4.5t-2 6.5q0 3 2 6zM185 278q2 -3 6 -3h66q3 0 5.5 3t2.5 7l-38 187q-1 2 -3.5 2t-2.5 -2l-38 -187v-1q0 -4 2 -6z" />
    <glyph glyph-name="atilde" unicode="&#xe3;" horiz-adv-x="447" 
d="M0 19l129 618q2 8 8.5 13.5t14.5 5.5h143q9 0 15.5 -5.5t8.5 -13.5l128 -618v-3q0 -7 -4.5 -11.5t-11.5 -4.5h-93q-7 0 -12 4t-6 11l-25 130q-2 5 -6 8.5t-10 4.5h-111q-6 -1 -10 -4.5t-5 -8.5l-25 -130q-2 -7 -7 -11t-11 -4h-94q-8 0 -12.5 5t-4.5 10q0 2 1 4zM103 693
v48q0 8 5 13l29 29q4 4 11 5h16q3 -1 5 -1l107 -34h1q1 0 2 0.5t1 1.5v22q0 4 2.5 7t7.5 4h45q4 -1 7 -4t3 -7v-48q0 -8 -6 -13l-28 -29q-5 -5 -11 -5h-16l-6 1l-107 34q-3 0 -3 -2v-22q0 -4 -3 -7.5t-7 -3.5h-45q-4 0 -7 3.5t-3 7.5zM183 284q0 -4 2 -6.5t6 -2.5h66
q3 0 5.5 3t2.5 7l-38 187q-1 2 -3.5 2t-2.5 -2l-38 -187v-1z" />
    <glyph glyph-name="adieresis" unicode="&#xe4;" horiz-adv-x="447" 
d="M0 19l129 618q2 8 8.5 13.5t14.5 5.5h143q9 0 15.5 -5.5t8.5 -13.5l128 -618v-3q0 -7 -4.5 -11.5t-11.5 -4.5h-93q-7 0 -12 4t-6 11l-25 130q-2 5 -6 8.5t-10 4.5h-111q-6 -1 -10 -4.5t-5 -8.5l-25 -130q-2 -7 -7 -11t-11 -4h-94q-8 0 -12.5 5t-4.5 10q0 2 1 4zM69 742
q0 24 17.5 41.5t42.5 17.5q24 0 41 -17.5t17 -41.5q0 -25 -17 -42.5t-41 -17.5q-25 0 -42.5 17.5t-17.5 42.5zM260 742q0 24 17 41.5t42 17.5q24 0 41.5 -17.5t17.5 -41.5q0 -25 -17.5 -42.5t-41.5 -17.5q-25 0 -42 17.5t-17 42.5zM183 284q0 -4 2 -6.5t6 -2.5h66q3 0 5.5 3
t2.5 7l-38 187q-1 2 -3.5 2t-2.5 -2l-38 -187v-1z" />
    <glyph glyph-name="aring" unicode="&#xe5;" horiz-adv-x="447" 
d="M0 19l129 618q2 8 8.5 13.5t14.5 5.5h143q9 0 15.5 -5.5t8.5 -13.5l128 -618v-3q0 -7 -4.5 -11.5t-11.5 -4.5h-93q-7 0 -12 4t-6 11l-25 130q-2 5 -6 8.5t-10 4.5h-111q-6 -1 -10 -4.5t-5 -8.5l-25 -130q-2 -7 -7 -11t-11 -4h-94q-8 0 -12.5 5t-4.5 10q0 2 1 4zM165 823
q24 24 58 24t58.5 -24.5t24.5 -58.5t-24.5 -58t-58.5 -24q-33 0 -57.5 24.5t-24.5 57.5q0 34 24 59zM185 278q2 -3 6 -3h66q3 0 5.5 3t2.5 7l-38 187q-1 2 -3.5 2t-2.5 -2l-38 -187v-1q0 -4 2 -6zM194 764q0 -12 9 -20.5t20 -8.5q13 0 21.5 8.5t8.5 20.5q0 13 -8.5 21.5
t-21.5 8.5q-12 0 -20.5 -8.5t-8.5 -21.5z" />
    <glyph glyph-name="ae" unicode="&#xe6;" horiz-adv-x="675" 
d="M1 22l230 619q3 7 9 11t13 4h364q9 0 15.5 -6t6.5 -15v-76q0 -9 -6.5 -15t-15.5 -6h-171q-5 0 -7.5 -3t-2.5 -8v-129q0 -5 2.5 -8t7.5 -3h113q9 0 15 -6t6 -15v-76q0 -9 -6 -15t-15 -6h-113q-5 0 -7.5 -3t-2.5 -8v-129q0 -5 2.5 -8t7.5 -3h171q9 0 15.5 -6t6.5 -15v-76
q0 -9 -6.5 -15t-15.5 -6h-292q-9 0 -15 6t-6 15v121q0 6 -5 10.5t-11 5.5h-94q-5 -1 -9.5 -4t-5.5 -7l-46 -134q-4 -13 -17 -13h-100q-9 0 -12.5 5.5t-3.5 10.5q0 3 1 6zM234 278q3 -3 6 -3h56q4 0 6 2.5t2 6.5v170q0 2 -2 2t-3 -1l-67 -171q0 -4 2 -6z" />
    <glyph glyph-name="ccedilla" unicode="&#xe7;" 
d="M36 94v469q0 15 11 26l57 56q10 11 26 11h206q15 0 26 -11l57 -56q11 -12 11 -26v-90q0 -6 -3.5 -11t-9.5 -7l-103 -29q-6 0 -10.5 5t-4.5 11v71q0 6 -5 9l-11 13q-6 3 -9 3h-81q-5 0 -10 -3l-12 -13q-4 -3 -4 -9v-370q0 -5 4 -9l12 -12q5 -4 10 -4h81q3 0 9 4l11 12
q5 5 5 9v80q0 6 3.5 10.5t8.5 6.5l103 31q6 0 10.5 -5t4.5 -11v-161q0 -16 -10 -26l-57 -57q-11 -11 -26 -11h-101q-7 0 -11 -8l-3 -12v-2q0 -4 6 -4h14q6 0 8 -4l26 -26q4 -3 4 -8v-69q0 -5 -4 -8l-26 -26q-3 -4 -8 -4h-70q-4 0 -7 3t-3 8v38q0 4 3 7t7 3h49q2 0 4 2.5
t2 4.5v13q0 2 -2 4t-4 2h-46q-5 1 -7.5 4.5t-2.5 6.5v2l14 63v2q0 3 -2 5.5t-6 2.5h-40q-16 0 -26 11l-57 57q-11 10 -11 26z" />
    <glyph glyph-name="egrave" unicode="&#xe8;" horiz-adv-x="407" 
d="M36 21v614q0 9 6.5 15t14.5 6h292q9 0 15.5 -6t6.5 -15v-76q0 -9 -6.5 -15t-15.5 -6h-171q-4 0 -7.5 -3t-3.5 -8v-129q0 -5 3.5 -8t7.5 -3h113q9 0 14.5 -6t5.5 -15v-76q0 -9 -5.5 -15t-14.5 -6h-113q-4 0 -7.5 -3t-3.5 -8v-129q0 -5 3.5 -8t7.5 -3h171q9 0 15.5 -6
t6.5 -15v-76q0 -9 -6.5 -15t-15.5 -6h-292q-8 0 -14.5 6.5t-6.5 14.5zM79 804q0 4 3.5 7t7.5 3h86q10 0 15 -11l37 -106q1 -1 1 -4q0 -4 -3.5 -7.5t-7.5 -3.5h-42q-9 0 -14 8l-80 107q-3 2 -3 7z" />
    <glyph glyph-name="eacute" unicode="&#xe9;" horiz-adv-x="407" 
d="M36 21v614q0 9 6.5 15t14.5 6h292q9 0 15.5 -6t6.5 -15v-76q0 -9 -6.5 -15t-15.5 -6h-171q-4 0 -7.5 -3t-3.5 -8v-129q0 -5 3.5 -8t7.5 -3h113q9 0 14.5 -6t5.5 -15v-76q0 -9 -5.5 -15t-14.5 -6h-113q-4 0 -7.5 -3t-3.5 -8v-129q0 -5 3.5 -8t7.5 -3h171q9 0 15.5 -6
t6.5 -15v-76q0 -9 -6.5 -15t-15.5 -6h-292q-8 0 -14.5 6.5t-6.5 14.5zM146 697l38 106q1 4 5.5 7.5t8.5 3.5h86q7 0 9 -4.5t2 -6.5q0 -3 -2 -6l-81 -107q-5 -8 -15 -8h-41q-6 0 -8.5 3.5t-2.5 6.5t1 5z" />
    <glyph glyph-name="ecircumflex" unicode="&#xea;" horiz-adv-x="407" 
d="M36 21v614q0 9 6 15t15 6h292q9 0 15.5 -6t6.5 -15v-76q0 -9 -6.5 -15t-15.5 -6h-171q-4 0 -7.5 -3t-3.5 -8v-129q0 -5 3.5 -8t7.5 -3h113q9 0 14.5 -6t5.5 -15v-76q0 -9 -5.5 -15t-14.5 -6h-113q-4 0 -7.5 -3t-3.5 -8v-129q0 -5 3.5 -8t7.5 -3h171q9 0 15.5 -6t6.5 -15
v-76q0 -9 -6.5 -15t-15.5 -6h-292q-9 0 -15 6.5t-6 14.5zM101 699l57 76q5 6 13 6h63q6 0 13 -6l57 -76q2 -2 2 -6t-3 -7.5t-7 -3.5h-57q-6 0 -12 7l-23 30q-1 1 -2 1t-2 -1l-23 -30q-4 -7 -12 -7h-56q-6 0 -8.5 4t-2.5 7t3 6z" />
    <glyph glyph-name="edieresis" unicode="&#xeb;" horiz-adv-x="407" 
d="M36 635q0 9 6.5 15t14.5 6h292q9 0 15.5 -6t6.5 -15v-76q0 -9 -6.5 -15t-15.5 -6h-171q-4 0 -7.5 -3t-3.5 -8v-129q0 -5 3.5 -8t7.5 -3h113q9 0 14.5 -6t5.5 -15v-76q0 -9 -5.5 -15t-14.5 -6h-113q-4 0 -7.5 -3t-3.5 -8v-129q0 -5 3.5 -8t7.5 -3h171q9 0 15.5 -6t6.5 -15
v-76q0 -9 -6.5 -15t-15.5 -6h-292q-8 0 -14.5 6.5t-6.5 14.5v614zM48 742q0 24 17.5 41.5t41.5 17.5t41.5 -17.5t18.5 -41.5q-1 -25 -18.5 -42.5t-41.5 -17.5t-41.5 17.5t-17.5 42.5zM256 783q17 18 41 18q25 0 42 -17.5t17 -41.5q0 -25 -17 -42.5t-42 -17.5q-24 0 -41 17.5
t-17 42.5q0 24 17 41z" />
    <glyph glyph-name="igrave" unicode="&#xec;" horiz-adv-x="226" 
d="M64 650q6 6 15 6h89q9 0 15.5 -6t6.5 -15v-614q0 -9 -6.5 -15t-15.5 -6h-89q-9 0 -14.5 6t-5.5 15v614q0 9 5 15zM36 803q0 4 3 7.5t8 3.5h85q11 0 16 -11l37 -106v-4q0 -4 -3 -7.5t-7 -3.5h-42q-10 0 -15 8l-80 107q-2 3 -2 6z" />
    <glyph glyph-name="iacute" unicode="&#xed;" horiz-adv-x="226" 
d="M36 21v614q0 9 6 15t15 6h90q8 0 14 -6t6 -15v-614q0 -9 -6 -15t-14 -6h-90q-9 0 -15 6t-6 15zM41 697l37 106q1 4 5.5 7.5t9.5 3.5h86q6 0 8 -4.5t2 -6.5q0 -3 -2 -6l-80 -107q-5 -8 -14 -8h-42q-6 0 -8.5 3.5t-2.5 6.5t1 5z" />
    <glyph glyph-name="icircumflex" unicode="&#xee;" horiz-adv-x="281" 
d="M81 650q5 6 14 6h90q8 0 14 -6t7 -15v-614q0 -9 -6.5 -15t-14.5 -6h-90q-9 0 -14.5 6t-5.5 15v614q0 9 6 15zM38 699l58 76q5 6 12 6h64q6 0 13 -6l57 -76q2 -2 2 -6t-3 -7.5t-8 -3.5h-56q-8 0 -12 7l-23 30q-1 1 -2 1t-2 -1l-23 -30q-4 -7 -12 -7h-56q-6 0 -8.5 4.5
t-2.5 6.5q0 3 2 6z" />
    <glyph glyph-name="idieresis" unicode="&#xef;" horiz-adv-x="381" 
d="M124 21v614q0 9 6.5 15t15.5 6h89q9 0 15 -6t6 -15v-614q0 -9 -6 -15t-15 -6h-89q-9 0 -15.5 6t-6.5 15zM226 742q0 24 17.5 41.5t41.5 17.5q25 0 42.5 -17.5t17.5 -41.5q0 -25 -17.5 -42.5t-42.5 -17.5q-24 0 -41.5 17.5t-17.5 42.5zM36 742q0 24 17 41.5t42 17.5
t42 -17.5t17 -41.5q0 -25 -17 -42.5t-42 -17.5t-42 17.5t-17 42.5z" />
    <glyph glyph-name="eth" unicode="&#xf0;" horiz-adv-x="518" 
d="M36 297v62q0 9 6 15.5t15 6.5h21q5 0 7.5 3t2.5 8v243q0 9 6.5 15t15.5 6h278q15 0 26 -11l58 -56q10 -13 10 -26v-469q0 -15 -10 -26l-58 -57q-11 -11 -26 -11h-278q-9 0 -15.5 6t-6.5 15v245q0 4 -2.5 6.5t-7.5 2.5h-21q-9 0 -15 6.5t-6 15.5zM220 266v-137q0 -5 3 -8
t7 -3h96q5 0 9 4l12 12q4 5 4 9v370q0 5 -4 9l-12 13q-4 3 -9 3h-96q-4 0 -7 -3t-3 -8v-135q0 -5 3 -8t7 -3h35q9 0 14.5 -6.5t5.5 -15.5v-62q0 -9 -5.5 -15.5t-14.5 -6.5h-35q-4 0 -7 -2.5t-3 -6.5z" />
    <glyph glyph-name="ntilde" unicode="&#xf1;" horiz-adv-x="480" 
d="M36 635q0 9 6 15t15 6h107q5 0 10 -3t7 -9l126 -315q1 -1 2 -1l1 0.5t1 1.5v305q0 9 6.5 15t15.5 6h89q9 0 15 -6t6 -15v-614q0 -9 -6 -15t-15 -6h-107q-11 0 -17 12l-126 315q-1 1 -3 1t-2 -2v-305q0 -9 -5.5 -15t-14.5 -6h-90q-9 0 -15 6t-6 15v614zM118 693v48
q0 8 5 13l29 29q6 4 12 5h15q4 -1 6 -1l107 -34h1t1.5 0.5t0.5 1.5v22q0 4 3.5 7t7.5 4h44q5 -1 8 -4t3 -7v-48q0 -8 -5 -13l-29 -29q-5 -5 -11 -5h-16l-6 1l-107 34q-3 0 -3 -2v-22q0 -4 -3.5 -7.5t-7.5 -3.5h-44q-4 0 -7.5 3.5t-3.5 7.5z" />
    <glyph glyph-name="ograve" unicode="&#xf2;" horiz-adv-x="462" 
d="M38 589l57 56q10 11 26 11h219q16 0 25 -11l58 -56q11 -11 11 -26v-469q0 -16 -11 -26l-58 -57q-9 -11 -25 -11h-219q-16 0 -26 11l-57 57q-11 10 -11 26v469q0 15 11 26zM158 143q0 -5 4 -9l12 -12q4 -4 10 -4h93q6 0 10 4l12 12q3 4 3 9v370q0 6 -3 9l-12 13
q-5 3 -10 3h-93q-5 0 -10 -3l-12 -13q-4 -3 -4 -9v-370zM136 803q0 4 3 7.5t8 3.5h85q11 0 16 -11l36 -106q1 -1 1 -4q0 -4 -3 -7.5t-7 -3.5h-42q-10 0 -14 8l-81 107q-2 3 -2 6z" />
    <glyph glyph-name="oacute" unicode="&#xf3;" horiz-adv-x="462" 
d="M38 589l57 56q10 11 26 11h219q16 0 25 -11l58 -56q11 -11 11 -26v-469q0 -16 -11 -26l-58 -57q-9 -11 -25 -11h-219q-16 0 -26 11l-57 57q-11 10 -11 26v469q0 15 11 26zM162 134l12 -12q4 -4 10 -4h93q6 0 10 4l12 12q3 4 3 9v370q0 6 -3 9l-12 13q-5 3 -10 3h-93
q-5 0 -10 -3l-12 -13q-4 -3 -4 -9v-370q0 -5 4 -9zM176 697l37 106q5 11 16 11h85q6 0 8.5 -4.5t2.5 -6.5q0 -3 -2 -6l-81 -107q-4 -8 -14 -8h-42q-5 0 -7.5 4t-2.5 8v3z" />
    <glyph glyph-name="ocircumflex" unicode="&#xf4;" horiz-adv-x="462" 
d="M38 589l57 56q10 11 26 11h219q16 0 25 -11l58 -56q11 -11 11 -26v-469q0 -16 -11 -26l-58 -57q-9 -11 -25 -11h-219q-16 0 -26 11l-57 57q-11 10 -11 26v469q0 15 11 26zM158 143q0 -5 4 -9l12 -12q4 -4 10 -4h93q6 0 10 4l12 12q3 4 3 9v370q0 6 -3 9l-12 13
q-5 3 -10 3h-93q-5 0 -10 -3l-12 -13q-4 -3 -4 -9v-370zM129 699l57 76q5 6 13 6h63q8 0 13 -6l57 -76q3 -2 3 -7q0 -4 -3.5 -7t-7.5 -3h-56q-8 0 -12 7l-24 30q-1 1 -2 1l-1 -1l-24 -30q-4 -7 -11 -7h-57q-6 0 -8.5 4t-2.5 7t3 6z" />
    <glyph glyph-name="otilde" unicode="&#xf5;" horiz-adv-x="462" 
d="M27 94v469q0 15 11 26l57 56q10 11 26 11h219q16 0 25 -11l58 -56q11 -11 11 -26v-469q0 -16 -11 -26l-58 -57q-9 -11 -25 -11h-219q-16 0 -26 11l-57 57q-11 10 -11 26zM158 143q0 -5 4 -9l12 -12q4 -4 10 -4h93q6 0 10 4l12 12q3 4 3 9v370q0 6 -3 9l-12 13q-5 3 -10 3
h-93q-5 0 -10 -3l-12 -13q-4 -3 -4 -9v-370zM114 754l29 29q6 4 12 5h15q4 -1 6 -1l107 -34h1q1 0 1.5 0.5t0.5 1.5v22q0 4 3.5 7t7.5 4h44q5 -1 8 -4t3 -7v-48q0 -8 -5 -13l-29 -29q-5 -5 -12 -5h-15l-6 1l-107 34q-3 0 -3 -2v-22q0 -4 -3.5 -7.5t-7.5 -3.5h-44
q-5 0 -8 3.5t-3 7.5v48q0 8 5 13z" />
    <glyph glyph-name="odieresis" unicode="&#xf6;" horiz-adv-x="462" 
d="M27 563q0 15 11 26l57 56q10 11 26 11h219q16 0 25 -11l58 -56q11 -11 11 -26v-469q0 -16 -11 -26l-58 -57q-9 -11 -25 -11h-219q-16 0 -26 11l-57 57q-11 10 -11 26v469zM158 143q0 -5 4 -9l12 -12q4 -4 10 -4h93q6 0 10 4l12 12q3 4 3 9v370q0 6 -3 9l-12 13
q-5 3 -10 3h-93q-5 0 -10 -3l-12 -13q-4 -3 -4 -9v-370zM77 742q0 24 17 41.5t41 17.5q25 0 42 -17.5t17 -41.5q0 -25 -17 -42.5t-42 -17.5q-24 0 -41 17.5t-17 42.5zM266 742q0 24 18 41.5t42 17.5t41 -17.5t17 -41.5q0 -25 -17 -42.5t-41 -17.5t-42 17.5t-18 42.5z" />
    <glyph glyph-name="divide" unicode="&#xf7;" horiz-adv-x="348" 
d="M36 352q0 6 4.5 10.5t10.5 4.5h245q6 0 10.5 -4.5t4.5 -10.5v-48q0 -6 -4.5 -10.5t-10.5 -4.5h-245q-6 0 -10.5 4.5t-4.5 10.5v48zM141 473q14 13 33 13t32.5 -13.5t13.5 -32.5q0 -20 -13.5 -33.5t-32.5 -13.5t-32.5 13.5t-13.5 33.5q0 19 13 33zM141 249q14 14 33 14
t32.5 -13.5t13.5 -32.5q0 -20 -13.5 -33t-32.5 -13t-32.5 13t-13.5 33q0 19 13 32z" />
    <glyph glyph-name="oslash" unicode="&#xf8;" horiz-adv-x="462" 
d="M27 563q0 15 11 26l57 56q10 11 26 11h162q2 0 4.5 2t3.5 4l8 21q4 13 17 13h76q8 0 12 -6t4 -11q0 -3 -1 -5l-17 -46v-2q0 -3 2 -7l31 -30q11 -11 11 -26v-469q0 -16 -11 -26l-58 -57q-9 -11 -25 -11h-162q-5 0 -8 -5l-8 -22q-5 -13 -17 -13h-77q-8 0 -11.5 5.5
t-3.5 10.5q0 3 1 6l17 47v2q0 2 -2 6l-31 31q-11 10 -11 26v469zM161 297h1q1 0 2 1l79 232q0 4 -2.5 6t-5.5 2h-51q-5 0 -10 -3l-12 -13q-4 -3 -4 -9v-214q0 -2 3 -2zM218 126q0 -4 2 -6t6 -2h51q5 0 10 4l12 12q3 4 3 9v214q0 3 -1.5 3t-2.5 -2z" />
    <glyph glyph-name="ugrave" unicode="&#xf9;" 
d="M36 94v541q0 9 6 15t15 6h89q9 0 15 -6t6 -15v-492q0 -5 4 -9l12 -12q5 -4 10 -4h81q3 0 9 4l11 12q5 5 5 9v492q0 9 6 15t15 6h89q9 0 14.5 -6t5.5 -15v-541q0 -16 -10 -26l-57 -57q-11 -11 -26 -11h-206q-16 0 -26 11l-57 57q-11 10 -11 26zM139 803q0 4 3 7.5t7 3.5
h86q4 0 8.5 -3.5t5.5 -7.5l38 -106q1 -1 1 -4q0 -4 -3 -7.5t-8 -3.5h-41q-10 0 -15 8l-81 107q-1 1 -1 6z" />
    <glyph glyph-name="uacute" unicode="&#xfa;" 
d="M36 635q0 9 6 15t15 6h89q9 0 15 -6t6 -15v-492q0 -5 4 -9l12 -12q5 -4 10 -4h81q3 0 9 4l11 12q5 5 5 9v492q0 9 6 15t15 6h89q9 0 14.5 -6t5.5 -15v-541q0 -16 -10 -26l-57 -57q-11 -11 -26 -11h-206q-16 0 -26 11l-57 57q-11 10 -11 26v541zM179 697l37 106q2 4 6 7.5
t9 3.5h86q6 0 8 -4.5t2 -6.5q0 -3 -2 -6l-80 -107q-6 -8 -15 -8h-41q-5 0 -8 3.5t-3 7.5q0 2 1 4z" />
    <glyph glyph-name="ucircumflex" unicode="&#xfb;" 
d="M36 94v541q0 9 6 15t15 6h89q9 0 15 -6t6 -15v-492q0 -5 4 -9l12 -12q5 -4 10 -4h81q3 0 9 4l11 12q5 5 5 9v492q0 9 6 15t15 6h89q9 0 14.5 -6t5.5 -15v-541q0 -16 -10 -26l-57 -57q-11 -11 -26 -11h-206q-16 0 -26 11l-57 57q-11 10 -11 26zM131 699l58 76q5 6 13 6h63
q6 0 12 -6l58 -76q2 -2 2 -6t-3.5 -7.5t-6.5 -3.5h-57q-6 0 -13 7l-22 30q-1 1 -2.5 1t-2.5 -1l-22 -30q-5 -7 -13 -7h-55q-7 0 -9 4.5t-2 6.5q0 3 2 6z" />
    <glyph glyph-name="udieresis" unicode="&#xfc;" 
d="M36 94v541q0 9 6.5 15t14.5 6h89q9 0 15 -6t6 -15v-492q0 -5 4 -9l12 -12q5 -4 10 -4h81q3 0 9 4l11 12q5 5 5 9v492q0 9 6 15t15 6h89q9 0 14.5 -6t6.5 -15v-541q0 -15 -11 -26l-57 -57q-11 -11 -26 -11h-206q-16 0 -26 11l-57 57q-11 10 -11 26zM96 783q17 18 42 18
q24 0 41.5 -17.5t17.5 -41.5q0 -25 -17.5 -42.5t-41.5 -17.5q-25 0 -42.5 17.5t-17.5 42.5q0 24 18 41zM286 783q17 18 42 18t42 -17.5t17 -41.5q0 -25 -17 -42.5t-42 -17.5t-42 17.5t-17 42.5q0 24 17 41z" />
    <glyph glyph-name="yacute" unicode="&#xfd;" horiz-adv-x="464" 
d="M18 640q0 7 4.5 11.5t11.5 4.5h107q13 0 17 -12l72 -187q0 -1 1.5 -1t2.5 1l71 187q5 12 17 12h108q8 0 12 -5.5t4 -10.5q0 -3 -1 -5l-147 -366v-248q0 -9 -6.5 -15t-15.5 -6h-89q-9 0 -14.5 6t-5.5 15v245l-148 369q-1 1 -1 5zM188 697l37 106q2 4 6 7.5t9 3.5h86
q6 0 8 -4.5t2 -6.5q0 -3 -2 -6l-80 -107q-6 -8 -15 -8h-41q-5 0 -8 3.5t-3 7.5q0 2 1 4z" />
    <glyph glyph-name="thorn" unicode="&#xfe;" 
d="M36 635q0 9 6.5 15t14.5 6h89q9 0 15 -6t6 -15v-86q0 -4 3.5 -7.5t7.5 -3.5h158q15 0 26 -11l57 -57q11 -11 11 -25v-233q0 -15 -11 -26l-57 -57q-13 -11 -26 -11h-158q-4 0 -7.5 -3t-3.5 -7v-87q0 -8 -6 -14.5t-15 -6.5h-89q-8 0 -14.5 6.5t-6.5 14.5v614zM171 239
q3 -2 7 -2h96q5 0 9 3l11 12q5 4 5 9v134q0 5 -5 9l-11 12q-5 4 -9 4h-96q-4 0 -7.5 -3t-3.5 -7v-163q0 -5 4 -8z" />
    <glyph glyph-name="ydieresis" unicode="&#xff;" horiz-adv-x="464" 
d="M23 652q4 4 11 4h107q13 0 17 -12l72 -186q0 -2 1.5 -2t2.5 2l71 186q5 12 17 12h108q8 0 12 -5.5t4 -10.5q0 -3 -1 -5l-147 -366v-248q0 -9 -6.5 -15t-15.5 -6h-89q-9 0 -14.5 6t-5.5 15v245l-148 369q-1 1 -1 5q0 7 5 12zM268 742q0 24 17 41.5t42 17.5t42 -17.5
t17 -41.5q0 -25 -17 -42.5t-42 -17.5t-42 17.5t-17 42.5zM77 742q0 24 18 41.5t42 17.5t41 -17.5t17 -41.5q0 -25 -17 -42.5t-41 -17.5t-42 17.5t-18 42.5z" />
    <glyph glyph-name="Lslash" unicode="&#x141;" horiz-adv-x="420" 
d="M36 259v50q0 5 3 10t9 7l22 8q6 2 6 7v294q0 9 5.5 15t14.5 6h89q9 0 15.5 -6t6.5 -15v-246q0 -2 1 -2.5t2 -0.5h1l54 21q1 1 5 1q6 0 10.5 -4.5t4.5 -11.5v-49q0 -5 -3 -10t-8 -7l-62 -24q-5 -1 -5 -7v-166q0 -5 2.5 -8t7.5 -3h146q9 0 14.5 -6t5.5 -15v-76
q0 -9 -5.5 -15t-14.5 -6h-267q-9 0 -14.5 6t-5.5 15v227q0 1 -1 1.5t-2 1.5q0 -1 -1 -1l-14 -5q-2 -1 -6 -1q-7 0 -11.5 4.5t-4.5 10.5z" />
    <glyph glyph-name="lslash" unicode="&#x142;" horiz-adv-x="420" 
d="M36 259v50q0 5 3 10t9 7l22 8q6 2 6 7v294q0 9 5.5 15t14.5 6h89q9 0 15.5 -6t6.5 -15v-246q0 -2 1 -2.5t2 -0.5h1l54 21q1 1 5 1q6 0 10.5 -4.5t4.5 -11.5v-49q0 -5 -3 -10t-8 -7l-62 -24q-5 -1 -5 -7v-166q0 -5 2.5 -8t7.5 -3h146q9 0 14.5 -6t5.5 -15v-76
q0 -9 -5.5 -15t-14.5 -6h-267q-9 0 -14.5 6t-5.5 15v227q0 1 -1 1.5t-2 1.5q0 -1 -1 -1l-14 -5q-2 -1 -6 -1q-7 0 -11.5 4.5t-4.5 10.5z" />
    <glyph glyph-name="OE" unicode="&#x152;" horiz-adv-x="683" 
d="M36 94v469q0 15 11 26l57 56q10 11 26 11h496q8 0 14 -6t6 -15v-76q0 -9 -6 -15t-14 -6h-172q-5 0 -8 -3t-3 -8v-129q0 -5 3 -8t8 -3h112q9 0 15 -6t6 -15v-76q0 -9 -6 -15t-15 -6h-112q-5 0 -8 -3t-3 -8v-129q0 -5 3 -8t8 -3h172q8 0 14 -6t6 -15v-76q0 -9 -6 -15
t-14 -6h-496q-16 0 -26 11l-57 57q-11 10 -11 26zM167 143q0 -5 4 -9l12 -12q4 -4 10 -4h108q4 0 7 3t3 8v398q0 5 -3 8t-7 3h-108q-5 0 -10 -3l-12 -13q-4 -3 -4 -9v-370z" />
    <glyph glyph-name="oe" unicode="&#x153;" horiz-adv-x="683" 
d="M36 94v469q0 15 11 26l57 56q10 11 26 11h496q8 0 14 -6t6 -15v-76q0 -9 -6 -15t-14 -6h-172q-5 0 -8 -3t-3 -8v-129q0 -5 3 -8t8 -3h112q9 0 15 -6t6 -15v-76q0 -9 -6 -15t-15 -6h-112q-5 0 -8 -3t-3 -8v-129q0 -5 3 -8t8 -3h172q8 0 14 -6t6 -15v-76q0 -9 -6 -15
t-14 -6h-496q-16 0 -26 11l-57 57q-11 10 -11 26zM167 143q0 -5 4 -9l12 -12q4 -4 10 -4h108q4 0 7 3t3 8v398q0 5 -3 8t-7 3h-108q-5 0 -10 -3l-12 -13q-4 -3 -4 -9v-370z" />
    <glyph glyph-name="Scaron" unicode="&#x160;" horiz-adv-x="453" 
d="M47 589l57 56q10 11 26 11h192q16 0 26 -11l58 -56q11 -11 11 -26v-122q0 -8 -5.5 -12t-10.5 -4q-3 0 -5 1l-97 29q-6 2 -10 7t-4 11v40q0 6 -3 9l-12 13q-5 3 -10 3h-67q-5 0 -10 -3l-12 -13q-4 -3 -4 -9v-55q0 -8 8 -13l225 -142q17 -11 17 -31v-178q0 -16 -11 -26
l-57 -57q-11 -11 -26 -11h-192q-18 0 -27 11l-57 57q-11 10 -11 26v121q0 8 5.5 12t10.5 4q3 0 5 -1l97 -29q6 -1 9.5 -6t3.5 -11v-41q0 -5 4 -9l12 -12q4 -4 10 -4h67q5 0 10 4l12 12q3 4 3 9v69q0 8 -7 12l-225 142q-17 12 -17 32v165q0 15 11 26zM126 778q3 3 7 3h56
q8 0 13 -6l22 -31q1 -1 2.5 -1t2.5 1l22 31q5 6 13 6h56q7 0 9 -4t2 -7t-2 -6l-58 -75q-6 -7 -13 -7h-64q-7 0 -11 7l-59 75q-2 2 -2 6q0 5 4 8z" />
    <glyph glyph-name="scaron" unicode="&#x161;" horiz-adv-x="453" 
d="M47 589l57 56q10 11 26 11h192q16 0 26 -11l58 -56q11 -11 11 -26v-122q0 -8 -5.5 -12t-10.5 -4q-3 0 -5 1l-97 29q-6 2 -10 7t-4 11v40q0 6 -3 9l-12 13q-5 3 -10 3h-67q-5 0 -10 -3l-12 -13q-4 -3 -4 -9v-55q0 -8 8 -13l225 -142q17 -11 17 -31v-178q0 -16 -11 -26
l-57 -57q-11 -11 -26 -11h-192q-18 0 -27 11l-57 57q-11 10 -11 26v121q0 8 5.5 12t10.5 4q3 0 5 -1l97 -29q6 -1 9.5 -6t3.5 -11v-41q0 -5 4 -9l12 -12q4 -4 10 -4h67q5 0 10 4l12 12q3 4 3 9v69q0 8 -7 12l-225 142q-17 12 -17 32v165q0 15 11 26zM126 778q3 3 7 3h56
q8 0 13 -6l22 -31q1 -1 2.5 -1t2.5 1l22 31q5 6 13 6h56q7 0 9 -4t2 -7t-2 -6l-58 -75q-6 -7 -13 -7h-64q-7 0 -11 7l-59 75q-2 2 -2 6q0 5 4 8z" />
    <glyph glyph-name="Ydieresis" unicode="&#x178;" horiz-adv-x="464" 
d="M23 652q4 4 11 4h107q13 0 17 -12l72 -186q0 -2 1.5 -2t2.5 2l71 186q5 12 17 12h108q8 0 12 -5.5t4 -10.5q0 -3 -1 -5l-147 -366v-248q0 -9 -6.5 -15t-15.5 -6h-89q-9 0 -14.5 6t-5.5 15v245l-148 369q-1 1 -1 5q0 7 5 12zM268 742q0 24 17 41.5t42 17.5t42 -17.5
t17 -41.5q0 -25 -17 -42.5t-42 -17.5t-42 17.5t-17 42.5zM77 742q0 24 18 41.5t42 17.5t41 -17.5t17 -41.5q0 -25 -17 -42.5t-41 -17.5t-42 17.5t-18 42.5z" />
    <glyph glyph-name="Zcaron" unicode="&#x17d;" horiz-adv-x="434" 
d="M36 559v76q0 9 6.5 15t14.5 6h319q9 0 15 -6t6 -15v-112q0 -9 -5 -18l-216 -383q0 -1 0.5 -2.5t2.5 -1.5h197q9 0 15 -6t6 -15v-76q0 -8 -6 -14.5t-15 -6.5h-318q-9 0 -15.5 6.5t-6.5 14.5v112q0 9 5 18l216 384q0 1 -0.5 2t-1.5 1h-198q-8 0 -14.5 6t-6.5 15zM113 770
q0 5 3 8t7 3h56q8 0 13 -6l22 -31q1 -1 2.5 -1t2.5 1l22 31q5 6 13 6h56q7 0 9 -4t2 -7t-2 -6l-58 -75q-6 -7 -13 -7h-63q-8 0 -12 7l-59 75q-1 2 -1 6z" />
    <glyph glyph-name="zcaron" unicode="&#x17e;" horiz-adv-x="434" 
d="M36 559v76q0 9 6.5 15t14.5 6h319q9 0 15 -6t6 -15v-112q0 -9 -5 -18l-216 -383q0 -1 0.5 -2.5t2.5 -1.5h197q9 0 15 -6t6 -15v-76q0 -8 -6 -14.5t-15 -6.5h-318q-9 0 -15.5 6.5t-6.5 14.5v112q0 9 5 18l216 384q0 1 -0.5 2t-1.5 1h-198q-8 0 -14.5 6t-6.5 15zM113 770
q0 5 3 8t7 3h56q8 0 13 -6l22 -31q1 -1 2.5 -1t2.5 1l22 31q5 6 13 6h56q7 0 9 -4t2 -7t-2 -6l-58 -75q-6 -7 -13 -7h-63q-8 0 -12 7l-59 75q-1 2 -1 6z" />
    <glyph glyph-name="circumflex" unicode="&#x2c6;" horiz-adv-x="281" 
d="M38 575l58 75q4 6 12 6h64q7 0 13 -6l57 -75q2 -2 2 -6q0 -5 -3 -8t-8 -3h-56q-9 0 -12 6l-23 30q-1 2 -2 2t-2 -2l-23 -30q-3 -6 -12 -6h-56q-6 0 -8.5 4.5t-2.5 6.5q0 3 2 6z" />
    <glyph glyph-name="caron" unicode="&#x2c7;" horiz-adv-x="281" 
d="M39 653q3 3 8 3h56q9 0 12 -6l23 -30q1 -1 2 -1t2 1l23 30q3 6 12 6h56q7 0 9 -4.5t2 -6.5q0 -3 -2 -6l-57 -75q-6 -6 -13 -6h-63q-9 0 -13 6l-58 75q-2 4 -2 6q0 5 3 8z" />
    <glyph glyph-name="breve" unicode="&#x2d8;" horiz-adv-x="268" 
d="M36 644v2q0 4 3 7t8 3h43q4 0 8 -2.5t5 -6.5q2 -10 10.5 -16.5t20.5 -6.5q11 0 20 6.5t12 16.5q2 9 12 9h43q5 0 7.5 -3t2.5 -7v-2q-4 -36 -31.5 -61t-65.5 -25t-65.5 25t-32.5 61z" />
    <glyph glyph-name="dotaccent" unicode="&#x2d9;" horiz-adv-x="191" 
d="M53 639q17 17 42 17t42 -17t17 -41q0 -26 -17 -43t-42 -17t-42 17t-17 43q0 24 17 41z" />
    <glyph glyph-name="ring" unicode="&#x2da;" horiz-adv-x="191" 
d="M53 639q17 17 42 17t42 -17t17 -41q0 -26 -17 -43t-42 -17t-42 17t-17 43q0 24 17 41zM62 598q0 -15 10 -24.5t23 -9.5q14 0 23.5 9.5t9.5 24.5q0 13 -9.5 22.5t-23.5 9.5q-13 0 -23 -9.5t-10 -22.5z" />
    <glyph glyph-name="ogonek" unicode="&#x2db;" horiz-adv-x="191" 
d="M39 -56l27 26q2 4 7 4h15q3 0 4.5 2t1.5 4l-6 20h46l17 -73v-3q0 -4 -2.5 -6.5t-7.5 -3.5h-46q-2 0 -4.5 -2t-2.5 -4v-13q0 -2 2.5 -4.5t4.5 -2.5h49q4 0 7 -3t3 -7v-38q0 -5 -3 -8t-7 -3h-71q-4 0 -7 4l-27 26q-3 3 -3 8v70q0 4 3 7z" />
    <glyph glyph-name="tilde" unicode="&#x2dc;" horiz-adv-x="315" 
d="M36 562v47q0 8 5 14l29 29q5 4 11 4h16q4 0 6 -1l107 -33h1l1 0.5t1 1.5v21q0 5 3.5 8t7.5 3h44q5 0 8 -3t3 -8v-47q0 -8 -5 -13l-29 -29q-5 -4 -12 -4h-21l-107 34l-1 1q0 -1 -1 -1.5t-1 -2.5v-21q0 -5 -3.5 -7.5t-7.5 -2.5h-44q-5 0 -8 2.5t-3 7.5z" />
    <glyph glyph-name="hungarumlaut" unicode="&#x2dd;" horiz-adv-x="293" 
d="M36 515v126q0 6 5 10.5t11 4.5h62q6 0 8.5 -3t2.5 -6q0 -1 -1 -3l-32 -131q-2 -6 -7 -10t-11 -4h-23q-6 0 -10.5 5t-4.5 11zM172 652q4 4 11 4h63q4 0 7 -4t3 -8l-33 -131q-2 -6 -7 -10t-11 -4h-22q-7 0 -11.5 5t-4.5 11v126q0 6 5 11z" />
    <glyph glyph-name="endash" unicode="&#x2013;" horiz-adv-x="348" 
d="M36 304v48q0 6 5 10.5t11 4.5h244q6 0 10.5 -4.5t4.5 -10.5v-48q0 -6 -4.5 -10.5t-10.5 -4.5h-244q-6 0 -11 4.5t-5 10.5z" />
    <glyph glyph-name="quoteleft" unicode="&#x2018;" horiz-adv-x="161" 
d="M36 512l32 131q2 6 7 9.5t11 3.5h23q6 0 11 -4.5t5 -10.5v-126q0 -6 -4.5 -11t-11.5 -5h-62q-6 0 -8.5 3.5t-2.5 7.5v2z" />
    <glyph glyph-name="quoteright" unicode="&#x2019;" horiz-adv-x="161" 
d="M36 641q0 6 5 10.5t11 4.5h62q6 0 8.5 -3t2.5 -6q0 -1 -1 -3l-32 -131q-2 -6 -7 -10t-11 -4h-22q-6 0 -11 5t-5 11v126z" />
    <glyph glyph-name="quotesinglbase" unicode="&#x201a;" horiz-adv-x="161" 
d="M36 141q0 7 5 11.5t11 5.5h62q6 -1 8.5 -4t2.5 -6q0 -1 -1 -3l-32 -131q-1 -6 -6 -10t-12 -4h-22q-6 0 -11 5t-5 11v125z" />
    <glyph glyph-name="quotedblleft" unicode="&#x201c;" horiz-adv-x="293" 
d="M167 512l33 131q2 6 7 9.5t11 3.5h22q7 0 11.5 -4.5t5.5 -10.5v-126q-1 -6 -5.5 -11t-11.5 -5h-63q-4 0 -7 4t-3 9zM36 512l33 131q1 6 6 9.5t11 3.5h23q6 0 11 -4.5t5 -10.5v-126q0 -6 -4.5 -11t-11.5 -5h-62q-6 0 -8.5 3.5t-2.5 7.5v2z" />
    <glyph glyph-name="quotedblright" unicode="&#x201d;" horiz-adv-x="293" 
d="M167 515v126q0 6 4.5 10.5t11.5 4.5h63q5 0 7.5 -3.5t2.5 -6.5v-2l-33 -131q-2 -6 -7 -10t-11 -4h-22q-7 0 -11.5 5t-4.5 11zM36 641q0 6 5 10.5t11 4.5h62q6 0 8.5 -3t2.5 -6q0 -1 -1 -3l-32 -131q-2 -6 -7 -10t-11 -4h-23q-6 0 -10.5 5t-4.5 11v126z" />
    <glyph glyph-name="quotedblbase" unicode="&#x201e;" horiz-adv-x="293" 
d="M36 15v126q0 7 5 11.5t11 5.5h62q6 -1 8.5 -4t2.5 -6q0 -1 -1 -3l-32 -131q-1 -6 -6 -10t-12 -4h-23q-6 0 -10.5 4.5t-4.5 10.5zM172 153q4 4 11 5h63q4 -1 7 -5t3 -8l-33 -131q-1 -6 -6 -10t-12 -4h-22q-7 0 -11.5 5t-4.5 11v125q0 7 5 12z" />
    <glyph glyph-name="dagger" unicode="&#x2020;" horiz-adv-x="506" 
d="M36 458q0 9 6.5 15t14.5 6h119q5 0 8 3t3 8v145q0 9 6 15t15 6h89q9 0 15.5 -6t6.5 -15v-145q0 -5 2.5 -8t7.5 -3h119q9 0 15 -6t6 -15v-89q0 -9 -6 -15.5t-15 -6.5h-119q-4 0 -7 -2.5t-3 -6.5v-317q0 -8 -6.5 -14.5t-15.5 -6.5h-89q-9 0 -15 6.5t-6 14.5v317q0 4 -3 6.5
t-8 2.5h-119q-8 0 -14.5 6.5t-6.5 15.5v89z" />
    <glyph glyph-name="daggerdbl" unicode="&#x2021;" horiz-adv-x="506" 
d="M36 152v89q0 9 6.5 15.5t14.5 6.5h119q5 0 8 2.5t3 7.5v110q0 5 -3 8t-8 3h-119q-8 0 -14.5 6t-6.5 15v89q0 9 6.5 15t14.5 6h119q5 0 8 3t3 8v99q0 9 6 15t15 6h89q9 0 15.5 -6t6.5 -15v-99q0 -5 3 -8t7 -3h119q9 0 15 -6t6 -15v-89q0 -9 -6 -15t-15 -6h-119q-4 0 -7 -3
t-3 -8v-110q0 -4 3 -7t7 -3h119q9 0 15 -6.5t6 -15.5v-89q0 -9 -6 -15t-15 -6h-119q-5 0 -7.5 -3t-2.5 -7v-100q0 -8 -6.5 -14.5t-15.5 -6.5h-89q-9 0 -15 6.5t-6 14.5v100q0 4 -3 7t-8 3h-119q-8 0 -14.5 6t-6.5 15z" />
    <glyph glyph-name="bullet" unicode="&#x2022;" horiz-adv-x="191" 
d="M53 370q17 17 42 17t42 -17t17 -41q0 -26 -17 -43t-42 -17t-42 17t-17 43q0 24 17 41z" />
    <glyph glyph-name="ellipsis" unicode="&#x2026;" horiz-adv-x="558" 
d="M421 114q17 17 42 17q24 0 41.5 -17.5t17.5 -41.5t-17.5 -41t-41.5 -17q-25 0 -42.5 17t-17.5 41t18 42zM36 72q0 24 17 41.5t42 17.5t42 -17.5t17 -41.5t-17 -41t-42 -17t-42 17t-17 41zM237 114q18 17 42 17t41 -17.5t18 -41.5q-1 -24 -18 -41t-41 -17t-41.5 17
t-17.5 41t17 42z" />
    <glyph glyph-name="perthousand" unicode="&#x2030;" horiz-adv-x="939" 
d="M181 21l205 623q5 12 18 12h76q8 0 12 -5.5t4 -10.5q0 -3 -1 -5l-206 -622q-5 -13 -17 -13h-77q-8 0 -11.5 5.5t-3.5 9.5q0 3 1 6zM410 249l33 34q8 6 15 6h127q7 0 15 -6l34 -34q6 -6 6 -15v-179q0 -9 -6 -15l-34 -34q-6 -6 -15 -6h-127q-7 0 -15 6l-33 34q-7 6 -7 15
v179q0 9 7 15zM666 55v179q0 10 6 15l34 34q6 6 14 6h128q8 0 14 -6l34 -34q7 -6 7 -15v-179q0 -9 -7 -15l-34 -34q-6 -6 -14 -6h-128q-8 0 -14 6l-34 34q-6 5 -6 15zM42 617l34 33q5 6 14 6h128q9 0 14 -6l34 -33q7 -7 7 -15v-180q0 -7 -7 -15l-34 -33q-6 -7 -14 -7h-128
q-8 0 -14 7l-34 33q-6 6 -6 15v180q0 9 6 15zM482 77l6 -5q3 -4 8 -4h52q4 0 7 4l6 5q2 3 2 8v119q0 5 -2 8l-6 5q-3 3 -7 4h-52q-5 -1 -8 -4l-6 -5q-2 -3 -2 -8v-119q0 -5 2 -8zM743 85q0 -5 2 -8l6 -5q3 -4 7 -4h52q3 0 8 4l5 5q3 3 3 8v119q0 5 -3 8l-5 5q-5 3 -8 4h-52
q-4 -1 -7 -4l-6 -5q-2 -3 -2 -8v-119zM113 572v-120q0 -5 2 -7l6 -6q2 -2 7 -2h52q4 0 8 2l5 6q3 2 3 7v120q0 5 -3 8l-5 5q-4 3 -8 3h-52q-5 0 -7 -3l-6 -5q-2 -3 -2 -8z" />
    <glyph glyph-name="guilsinglleft" unicode="&#x2039;" horiz-adv-x="249" 
d="M39 336l83 111q2 6 9 6h72q6 0 8 -4.5t2 -6.5q0 -3 -2 -5l-79 -108v-1v-1l79 -107q1 -2 1 -6t-3 -7.5t-6 -3.5h-72q-7 0 -9 6l-83 111q-3 5 -3 9t3 7z" />
    <glyph glyph-name="guilsinglright" unicode="&#x203a;" horiz-adv-x="249" 
d="M38 220l79 107l1 1q0 1 -1 1l-79 108q-2 3 -2 5q0 4 3 7.5t8 3.5h70q6 0 11 -6l82 -111q2 -3 2 -7t-2 -9l-82 -111q-4 -6 -11 -6h-70q-6 0 -8.5 4.5t-2.5 6.5q0 3 2 6z" />
    <glyph glyph-name="fraction" unicode="&#x2044;" horiz-adv-x="388" 
d="M37 21l205 623q5 12 18 12h76q8 0 12 -5.5t4 -10.5q0 -3 -1 -5l-206 -622q-2 -6 -6.5 -9.5t-10.5 -3.5h-76q-8 0 -12 5.5t-4 10.5q0 2 1 5z" />
    <glyph glyph-name="Euro" unicode="&#x20ac;" horiz-adv-x="506" 
d="M36 252v47q0 7 5 11.5t11 4.5h13q4 0 7.5 3t3.5 8v5q0 5 -3.5 7.5t-7.5 2.5h-13q-6 0 -11 5t-5 11v47q0 7 5 11.5t11 4.5h13q4 0 7.5 3t3.5 7v133q0 15 10 26l57 56q11 11 26 11h206q16 0 26 -11l57 -56q11 -11 11 -26v-122q0 -8 -5.5 -12t-10.5 -4q-2 0 -4 1l-98 29
q-6 2 -9.5 7t-3.5 11v40q-1 6 -4 9l-12 13q-5 3 -9 3h-82q-3 0 -9 -3l-11 -13q-4 -3 -4 -9v-83q0 -3 3 -6.5t7 -3.5h105q6 0 10.5 -4.5t5.5 -11.5v-47q-1 -7 -5.5 -11.5t-10.5 -4.5h-105q-5 0 -7.5 -3t-2.5 -8v-4q0 -5 2.5 -8t7.5 -3h105q6 0 10.5 -4.5t5.5 -11.5v-47
q-1 -7 -5.5 -11.5t-10.5 -4.5h-105q-4 0 -7 -3t-3 -7v-83q0 -5 4 -9l11 -12q6 -4 9 -4h81q6 0 10 4l12 13q3 4 4 9v41q0 6 3.5 11t9.5 7l98 28q2 1 5 1q6 0 10.5 -4.5t4.5 -10.5v-123q0 -16 -11 -26l-57 -57q-10 -11 -26 -11h-206q-15 0 -26 11l-57 57q-10 10 -10 26v132
q0 4 -3.5 7.5t-7.5 3.5h-13q-7 0 -11.5 4.5t-4.5 10.5z" />
    </font>
</defs>
</svg>
