<svg width="18" height="18" viewBox="0 0 18 18" fill="none" xmlns="http://www.w3.org/2000/svg">
<path d="M16.1969 8.94422H14.9256C14.6623 8.94422 14.4489 9.15767 14.4489 9.42095V15.2171C14.4489 15.5248 14.1985 15.7751 13.8908 15.7751H2.78253C2.47494 15.7751 2.22475 15.5248 2.22475 15.2171V4.10901C2.22475 3.8013 2.47494 3.55092 2.78253 3.55092H8.87548C9.13876 3.55092 9.35221 3.33747 9.35221 3.07419V1.8029C9.35221 1.53962 9.13876 1.32617 8.87548 1.32617H2.78253C1.24821 1.32617 0 2.57457 0 4.10901V15.2172C0 16.7516 1.24828 17.9999 2.78253 17.9999H13.8908C15.4252 17.9999 16.6735 16.7516 16.6735 15.2172V9.42102C16.6736 9.15767 16.4602 8.94422 16.1969 8.94422Z" fill="#46C691"/>
<path d="M17.5229 0H12.4662C12.2029 0 11.9895 0.213449 11.9895 0.476732V1.74802C11.9895 2.0113 12.2029 2.22475 12.4662 2.22475H14.2018L7.67088 8.75553C7.48471 8.94171 7.48471 9.24352 7.67088 9.42976L8.56981 10.3287C8.65924 10.4182 8.78046 10.4684 8.90695 10.4684C9.03338 10.4684 9.15466 10.4182 9.24403 10.3287L15.7749 3.79784V5.53333C15.7749 5.79662 15.9884 6.01006 16.2517 6.01006H17.5229C17.7862 6.01006 17.9997 5.79662 17.9997 5.53333V0.476732C17.9997 0.213449 17.7862 0 17.5229 0Z" fill="#46C691"/>
</svg>
