<svg width="10" height="10" viewBox="0 0 10 10" fill="none" xmlns="http://www.w3.org/2000/svg">
<path d="M0.601055 4.29809C0.641973 4.29145 0.683382 4.28839 0.724813 4.28893H7.77961L7.62578 4.21738C7.47542 4.14621 7.33862 4.04935 7.22153 3.93118L5.24318 1.95284C4.98263 1.70411 4.93885 1.304 5.13944 1.00481C5.37289 0.685987 5.82059 0.616763 6.13943 0.850215C6.16519 0.869087 6.18967 0.889657 6.21268 0.911793L9.79015 4.48927C10.0697 4.76853 10.07 5.22155 9.79071 5.50113C9.79053 5.50131 9.79033 5.50151 9.79015 5.50169L6.21268 9.07916C5.93288 9.35818 5.47986 9.35756 5.20081 9.07775C5.17886 9.05573 5.15835 9.0323 5.13944 9.00761C4.93885 8.70843 4.98263 8.30831 5.24318 8.05958L7.21795 6.07766C7.32293 5.97258 7.44362 5.88446 7.5757 5.81651L7.79035 5.71992H0.764188C0.398682 5.73349 0.0780058 5.47817 0.00934029 5.1189C-0.0539131 4.72884 0.210999 4.36137 0.601055 4.29809Z" fill="#3C6C54"/>
</svg>
