<svg width="14" height="14" viewBox="0 0 14 14" fill="none" xmlns="http://www.w3.org/2000/svg">
<path d="M7.98234 0.841476C7.99164 0.898761 7.99593 0.956734 7.99518 1.01474L7.99518 10.8915L8.09535 10.6761C8.19498 10.4656 8.33059 10.2741 8.49602 10.1101L11.2657 7.34046C11.6139 6.97569 12.1741 6.91439 12.5929 7.19521C13.0393 7.52205 13.1362 8.14882 12.8094 8.5952C12.783 8.63126 12.7542 8.66554 12.7232 8.69775L7.7147 13.7062C7.32373 14.0976 6.6895 14.098 6.29809 13.707C6.29784 13.7067 6.29756 13.7065 6.29731 13.7062L1.28885 8.69775C0.898218 8.30603 0.899094 7.6718 1.29082 7.28114C1.32165 7.2504 1.35446 7.22169 1.38902 7.19521C1.80788 6.91439 2.36804 6.97568 2.71626 7.34046L5.49095 10.1051C5.63807 10.2521 5.76143 10.4211 5.85656 10.606L5.99179 10.9065L5.99179 1.06986C5.97279 0.558153 6.33024 0.109207 6.83321 0.0130758C7.37929 -0.0754805 7.89375 0.295397 7.98234 0.841476Z" fill="#46C691"/>
</svg>
