<svg width="24" height="20" viewBox="0 0 24 20" fill="none" xmlns="http://www.w3.org/2000/svg">
<path d="M21.0488 0H2.9512C2.16875 0.000847043 1.4186 0.312051 0.865322 0.865331C0.312048 1.41861 0.000847034 2.16878 0 2.95123V16.249C0.000847034 17.0314 0.312048 17.7816 0.865322 18.3349C1.4186 18.8881 2.16875 19.1993 2.9512 19.2002H21.0488C21.8312 19.1993 22.5814 18.8881 23.1347 18.3349C23.688 17.7816 23.9992 17.0314 24 16.249V2.95123C23.9992 2.16878 23.688 1.41861 23.1347 0.865331C22.5814 0.312051 21.8312 0.000847043 21.0488 0ZM2.9512 1.60002H21.0488C21.407 1.60044 21.7505 1.74294 22.0038 1.99625C22.2571 2.24956 22.3996 2.593 22.4 2.95123V3.56324L12 10.2489L1.6 3.56324V2.95123C1.60042 2.593 1.74292 2.24956 1.99622 1.99625C2.24953 1.74294 2.59297 1.60044 2.9512 1.60002ZM21.0488 17.6002H2.9512C2.59297 17.5998 2.24953 17.4573 1.99622 17.2039C1.74292 16.9506 1.60042 16.6072 1.6 16.249V5.46566L11.5672 11.8729C11.6963 11.956 11.8465 12.0001 12 12.0001C12.1535 12.0001 12.3037 11.956 12.4328 11.8729L22.4 5.46566V16.249C22.3996 16.6072 22.2571 16.9506 22.0038 17.2039C21.7505 17.4573 21.407 17.5998 21.0488 17.6002Z" fill="#3C6C54"/>
</svg>
