<svg width="48" height="48" viewBox="0 0 48 48" fill="none" xmlns="http://www.w3.org/2000/svg">
<g clip-path="url(#clip0_1260_4819)">
<path d="M40.2861 29.1428V44.5714C40.2861 46.4657 41.8221 48 43.7147 48C45.609 48 47.1433 46.4657 47.1433 44.5714V29.1428H40.2861Z" fill="#DEEDE6"/>
<path d="M44.1707 0.605085C42.6604 -0.732058 40.2861 0.287942 40.2861 2.30223V27.4285H44.8581C46.1199 27.4285 47.1433 26.4051 47.1433 25.1434V7.68337C47.1433 4.60966 45.9861 2.20966 44.1707 0.605085Z" fill="#DEEDE6"/>
<path d="M14.5717 11.1429C14.5717 4.98857 11.5014 0 7.71457 0C3.92771 0 0.857422 4.98857 0.857422 11.1429C0.857422 14.3726 1.69399 17.2714 3.04485 19.308C5.24599 22.392 5.53228 24.7166 5.36257 27.3566L4.26371 44.1943C4.26371 46.296 5.80828 48 7.71457 48C9.62085 48 11.1654 46.296 11.1654 44.1943L10.0666 27.3566C9.89685 24.7166 10.1694 22.3903 12.3706 19.308C13.7214 17.2714 14.5717 14.3726 14.5717 11.1429Z" fill="#DEEDE6"/>
<path d="M33.4282 14.5714C33.4282 14.2834 33.4076 13.9971 33.4076 13.7143C33.4076 10.3937 31.7139 0 31.7139 0H29.9996V15.4286H28.2064L27.4984 0H25.6676H25.6453L24.9373 15.4286H23.1424V0H21.4282C21.4282 0 19.7344 10.3937 19.7344 13.7143C19.7344 13.9971 19.7139 14.2834 19.7139 14.5714C19.7139 17.8011 20.5642 20.7 21.915 22.7366C24.1162 25.8206 24.3887 28.1451 24.219 30.7851L23.1184 44.1943C23.1184 46.296 24.663 48 26.5693 48C28.4756 48 30.0202 46.296 30.0202 44.1943L28.9213 30.7851C28.7516 28.1451 29.0242 25.8189 31.2253 22.7366C32.5779 20.7 33.4282 17.8011 33.4282 14.5714Z" fill="#DEEDE6"/>
</g>
<defs>
<clipPath id="clip0_1260_4819">
<rect width="48" height="48" fill="white"/>
</clipPath>
</defs>
</svg>
