<svg width="48" height="48" viewBox="0 0 48 48" fill="none" xmlns="http://www.w3.org/2000/svg">
<g clip-path="url(#clip0_1260_4843)">
<path d="M31.0639 32.7464C31.6198 32.5444 31.9899 32.0162 31.9899 31.4247V25.1926H34.3429C38.2276 25.1926 41.388 22.0322 41.388 18.1474V12.6841C41.388 10.3386 40.2349 8.2587 38.467 6.97742C38.4671 7.00001 38.4678 7.02251 38.4678 7.0451V12.5086C38.4678 17.8924 34.0877 22.2725 28.7039 22.2725H22.8031L20.6465 25.1926H23.5315L29.5054 32.3274C29.7778 32.6529 30.1755 32.831 30.5839 32.831C30.7445 32.831 30.9069 32.8034 31.0639 32.7464Z" fill="#DEEDE6"/>
<path d="M8.99381 42.8437C6.76641 42.8437 4.77056 41.8369 3.43434 40.2556C1.36837 41.6097 0 43.9443 0 46.5937C0 47.3703 0.629625 48 1.40625 48H16.4078C17.1845 48 17.8141 47.3703 17.8141 46.5937C17.8141 43.9917 16.4949 41.6922 14.4905 40.328C13.155 41.8673 11.1868 42.8437 8.99381 42.8437Z" fill="#DEEDE6"/>
<path d="M13.2143 37.3219C14.1788 34.9952 13.0744 32.3271 10.7476 31.3626C8.42082 30.3982 5.75275 31.5025 4.78829 33.8293C3.82384 36.1561 4.92822 38.8242 7.255 39.7887C9.58178 40.7531 12.2499 39.6487 13.2143 37.3219Z" fill="#DEEDE6"/>
<path d="M35.7494 12.5086V7.04513C35.7494 3.16041 32.5889 0 28.7043 0H14.3264C10.4417 0 7.28125 3.16041 7.28125 7.04513V12.5086C7.28125 15.912 9.70675 18.7594 12.9201 19.4127V26.8073C12.9201 27.4145 13.3098 27.9531 13.8867 28.143C14.0313 28.1906 14.1796 28.2136 14.3262 28.2136C14.764 28.2136 15.1874 28.0086 15.4576 27.6427L21.4315 19.5537H28.7043C32.5889 19.5537 35.7494 16.3932 35.7494 12.5086ZM15.7354 5.45559H27.2942C28.0708 5.45559 28.7004 6.08522 28.7004 6.86184C28.7004 7.63847 28.0708 8.26809 27.2942 8.26809H15.7354C14.9588 8.26809 14.3292 7.63847 14.3292 6.86184C14.3292 6.08522 14.9588 5.45559 15.7354 5.45559ZM14.3292 12.5007C14.3292 11.7241 14.9588 11.0945 15.7354 11.0945H19.9472C20.7238 11.0945 21.3534 11.7241 21.3534 12.5007C21.3534 13.2773 20.7238 13.907 19.9472 13.907H15.7354C14.9588 13.907 14.3292 13.2773 14.3292 12.5007Z" fill="#DEEDE6"/>
<path d="M44.6761 40.328C43.3406 41.8673 41.3725 42.8437 39.1794 42.8437C36.952 42.8437 34.9561 41.8369 33.6199 40.2556C31.5539 41.6097 30.1855 43.9443 30.1855 46.5937C30.1855 47.3703 30.8152 48 31.5918 48H46.5934C47.3701 48 47.9997 47.3703 47.9997 46.5937C47.9997 43.9917 46.6805 41.6922 44.6761 40.328Z" fill="#DEEDE6"/>
<path d="M43.4096 37.3183C44.3741 34.9915 43.2697 32.3234 40.9429 31.359C38.6161 30.3945 35.9481 31.4989 34.9836 33.8257C34.0192 36.1525 35.1235 38.8205 37.4503 39.785C39.7771 40.7495 42.4452 39.6451 43.4096 37.3183Z" fill="#DEEDE6"/>
</g>
<defs>
<clipPath id="clip0_1260_4843">
<rect width="48" height="48" fill="white"/>
</clipPath>
</defs>
</svg>
