<svg width="48" height="48" viewBox="0 0 48 48" fill="none" xmlns="http://www.w3.org/2000/svg">
<g clip-path="url(#clip0_1260_4788)">
<path d="M19.2521 19.5207C18.666 18.5775 18.1964 17.5752 17.8457 16.5355V31.8016L22.7625 23.3729C21.3743 22.3203 20.1827 21.018 19.2521 19.5207Z" fill="#DEEDE6"/>
<path d="M31.3849 0.461548C25.0335 0.461548 19.8662 5.62886 19.8662 11.9802C19.8662 12.8686 19.9707 13.7411 20.1673 14.5846C20.1717 14.6037 20.1762 14.623 20.1807 14.642C20.2026 14.7339 20.2256 14.8254 20.2497 14.9165C20.2545 14.9345 20.2594 14.9525 20.2644 14.9704C20.3717 15.3684 20.5001 15.7589 20.6485 16.1409C20.655 16.1576 20.6613 16.1745 20.668 16.1914C20.7011 16.2753 20.7353 16.3587 20.7702 16.4417C20.7806 16.4664 20.7911 16.4909 20.8016 16.5155C20.8366 16.5969 20.8721 16.678 20.909 16.7585C20.9185 16.7794 20.9284 16.8 20.9381 16.8208C21.0604 17.0844 21.1924 17.343 21.334 17.5963C21.3443 17.6149 21.3543 17.6335 21.3647 17.6521C21.4046 17.7226 21.4458 17.7924 21.4872 17.8619C21.5069 17.8949 21.5264 17.928 21.5464 17.9608C21.5862 18.0264 21.6267 18.0914 21.6679 18.1561C21.6904 18.1916 21.7134 18.2269 21.7364 18.2621C21.7776 18.3254 21.8189 18.3886 21.8613 18.4511C21.8842 18.4848 21.9078 18.5182 21.9311 18.5515C22.0181 18.6768 22.1074 18.8004 22.1993 18.9221C22.2182 18.9473 22.2367 18.973 22.2558 18.9978C22.2967 19.051 22.3388 19.1034 22.3807 19.156C22.4141 19.1981 22.4475 19.2403 22.4816 19.282C22.5224 19.3318 22.5638 19.381 22.6054 19.4301C22.6426 19.474 22.6801 19.5175 22.7179 19.5609C22.7586 19.6076 22.7996 19.6541 22.841 19.7002C22.8828 19.7465 22.9254 19.7923 22.9679 19.838C23.0071 19.8801 23.046 19.9225 23.0859 19.964C23.1481 20.0289 23.2116 20.0927 23.2753 20.1562C23.3204 20.2011 23.3662 20.2454 23.412 20.2896C23.4713 20.3467 23.5307 20.4034 23.5912 20.4593C23.6288 20.4939 23.6669 20.5278 23.705 20.5618C23.7587 20.61 23.8126 20.6579 23.8673 20.7051C23.9066 20.739 23.9462 20.7727 23.986 20.806C24.0426 20.8536 24.0997 20.9004 24.1571 20.947C24.1951 20.9778 24.233 21.0086 24.2714 21.0388C24.3398 21.0926 24.409 21.1453 24.4786 21.1977C24.5069 21.2189 24.5348 21.2409 24.5633 21.2619C24.6608 21.3337 24.7595 21.404 24.8595 21.4729C24.8883 21.4928 24.9176 21.5118 24.9466 21.5313C25.0206 21.5813 25.0948 21.6306 25.1701 21.679C25.208 21.7032 25.2462 21.727 25.2844 21.7509C25.3532 21.794 25.4224 21.8365 25.4922 21.8781C25.5315 21.9015 25.571 21.9249 25.6105 21.9479C25.6845 21.9909 25.7591 22.0327 25.8342 22.074C25.8692 22.0933 25.9039 22.1128 25.9391 22.1318C26.0492 22.1909 26.1601 22.2489 26.2725 22.3045L28.2702 25.3846L30.0003 28.0517L30.2233 28.3956C30.4786 28.7891 30.9159 29.0267 31.3849 29.0267C31.854 29.0267 32.2912 28.7892 32.5464 28.3956L32.7695 28.0517L32.9017 27.8479L34.4835 25.4092L36.4973 22.3046C36.6099 22.2488 36.7212 22.1907 36.8314 22.1315C36.8668 22.1124 36.9017 22.0926 36.9369 22.0733C37.0119 22.032 37.0862 21.9903 37.16 21.9475C37.2003 21.9241 37.2403 21.9003 37.2803 21.8764C37.3493 21.8352 37.4176 21.7934 37.4856 21.7509C37.5249 21.7262 37.5643 21.7016 37.6032 21.6766C37.6749 21.6306 37.7457 21.5833 37.8162 21.5358C37.8491 21.5137 37.8824 21.4919 37.915 21.4694C38.0148 21.4005 38.1135 21.3305 38.2108 21.2588C38.2367 21.2396 38.2618 21.2198 38.2874 21.2006C38.3597 21.1464 38.4316 21.0917 38.5024 21.0358C38.5419 21.0046 38.5809 20.9728 38.6199 20.941C38.676 20.8958 38.7316 20.8501 38.7867 20.8038C38.8286 20.7685 38.8702 20.733 38.9115 20.6972C38.9626 20.6529 39.0133 20.608 39.0638 20.5628C39.1056 20.5252 39.1475 20.4878 39.1887 20.4497C39.2385 20.4038 39.2874 20.3569 39.3362 20.31C39.3758 20.272 39.416 20.2346 39.455 20.1962C39.5346 20.1178 39.613 20.0383 39.6902 19.9578C39.7348 19.9113 39.7781 19.8637 39.8219 19.8164C39.8595 19.7759 39.8972 19.7354 39.9342 19.6944C39.98 19.6435 40.0249 19.5921 40.0696 19.5405C40.1026 19.5025 40.1354 19.4646 40.1679 19.4262C40.214 19.3718 40.2596 19.3169 40.3046 19.2616C40.333 19.2267 40.3611 19.1916 40.389 19.1563C40.4363 19.0969 40.4834 19.0375 40.5296 18.9772C40.5474 18.9538 40.5647 18.93 40.5824 18.9066C40.7533 18.6793 40.9157 18.446 41.0693 18.2069C41.0823 18.1867 41.0955 18.1668 41.1083 18.1465C41.1558 18.0715 41.2021 17.9959 41.2479 17.9199C41.2615 17.8974 41.2749 17.8748 41.2883 17.8523C41.3348 17.7738 41.3806 17.695 41.4252 17.6154C41.4335 17.6008 41.4413 17.5861 41.4495 17.5715C41.6544 17.2029 41.8393 16.823 42.0032 16.4331C42.0046 16.4298 42.0061 16.4264 42.0074 16.4231C42.0479 16.3265 42.087 16.2293 42.1248 16.1316C42.1274 16.125 42.1298 16.1184 42.1325 16.1118C42.3669 15.5033 42.5506 14.873 42.6797 14.2265C42.6797 14.2264 42.6798 14.2262 42.6798 14.2261C42.8258 13.4947 42.9033 12.7434 42.9033 11.9802C42.9036 5.62886 37.7364 0.461548 31.3849 0.461548ZM31.3849 18.2345C27.9364 18.2345 25.1306 15.4288 25.1306 11.9802C25.1306 8.53164 27.9363 5.72589 31.3849 5.72589C34.8335 5.72589 37.6391 8.53155 37.6391 11.9802C37.6391 15.4288 34.8334 18.2345 31.3849 18.2345Z" fill="#DEEDE6"/>
<path d="M46.9451 15.2705L45.373 14.8855C45.033 16.5182 44.4082 18.087 43.5171 19.5208C42.251 21.5579 40.5032 23.2361 38.4314 24.4119L36.3262 27.6575L41.2714 33.6923H48.0004V16.6154C48.0004 15.9775 47.5646 15.4222 46.9451 15.2705Z" fill="#DEEDE6"/>
<path d="M1.71394 11.5782C1.30116 11.4771 0.864469 11.5712 0.529781 11.8337C0.195375 12.0963 0 12.4979 0 12.9231V26.3077H7.38459C7.75584 26.3077 8.11153 26.4567 8.37178 26.7215L15.0769 33.5402V14.8508L1.71394 11.5782Z" fill="#DEEDE6"/>
<path d="M27.8994 29.9023L24.9688 25.3845H24.7948L17.8457 37.2973V47.2403L29.9996 44.2638V31.5579C29.1484 31.2578 28.4071 30.6851 27.8994 29.9023Z" fill="#DEEDE6"/>
<path d="M40.6157 36.4615C40.2008 36.4615 39.8078 36.2754 39.5448 35.9544L34.7394 30.0902C34.239 30.7769 33.5509 31.2824 32.7695 31.5577V44.1882L46.2863 47.4985C46.3953 47.5252 46.5057 47.5382 46.6156 47.5382C46.9224 47.5382 47.2242 47.4362 47.4705 47.2429C47.805 46.9804 48.0003 46.5789 48.0003 46.1536V36.4615H40.6157Z" fill="#DEEDE6"/>
<path d="M6.80428 29.0769H0V42.4615C0 43.0994 0.435656 43.6547 1.05525 43.8063L15.0769 47.2402V37.4897L6.80428 29.0769Z" fill="#DEEDE6"/>
</g>
<defs>
<clipPath id="clip0_1260_4788">
<rect width="48" height="48" fill="white"/>
</clipPath>
</defs>
</svg>
