<svg width="48" height="42" viewBox="0 0 48 42" fill="none" xmlns="http://www.w3.org/2000/svg">
<path d="M11.543 26.0217H16.376L23.6057 16.3411H19.3607H14.9334C13.5519 16.3411 12.2416 16.0248 11.072 15.4602C9.89923 18.8988 10.0581 22.6771 11.543 26.0217Z" fill="#DEEDE6"/>
<path d="M8.67412 13.7643C7.1449 12.2492 6.16041 10.18 6.05044 7.87036H3.63023L1.92111 10.1492C0.67409 11.8119 0 13.8342 0 15.9127C0 18.0218 0.694153 20.0723 1.97533 21.7477L2.36022 22.2509C3.85953 24.2115 6.04202 25.5025 8.4398 25.8948C7.05841 21.9666 7.1361 17.6519 8.67412 13.7643Z" fill="#DEEDE6"/>
<path d="M36.3453 15.7158C35.3293 16.1191 34.2227 16.3409 33.0661 16.3409H28.6388H27.15L37.9134 1.92866L35.6385 0.229858L23.6064 16.341H27.1499L19.9202 26.0217H16.3767L11.8121 32.1338L9.0313 32.5369L5.18066 37.6929L10.64 41.77L14.4906 36.614L14.0874 33.8319L19.9203 26.0217H35.7074C37.3734 22.8142 37.588 19.0639 36.3453 15.7158Z" fill="#DEEDE6"/>
<path d="M46.0785 10.1492L44.3694 7.87036H41.9493C41.8275 10.4286 40.6329 12.6914 38.8135 14.2334C40.3575 17.9949 40.3657 22.2202 38.8452 25.9852C41.521 25.7517 43.9925 24.4048 45.6395 22.2509L46.0244 21.7476C47.3056 20.0722 47.9997 18.0217 47.9997 15.9127C47.9997 13.8342 47.3257 11.8119 46.0785 10.1492Z" fill="#DEEDE6"/>
</svg>
