<svg width="48" height="48" viewBox="0 0 48 48" fill="none" xmlns="http://www.w3.org/2000/svg">
<g clip-path="url(#clip0_1260_4769)">
<path d="M0 8.625C0 13.2777 3.87854 17.0621 8.53125 17.0621C11.3013 17.0621 13.8951 15.7013 15.4731 13.4231C15.8123 12.9331 15.8053 12.2845 15.4581 11.8011C15.1091 11.3177 14.4954 11.101 13.9255 11.2727C13.5465 11.3811 13.151 11.4375 12.75 11.4375C10.4235 11.4375 8.53125 9.54492 8.53125 7.21875C8.53125 5.47339 9.62842 3.79321 11.2599 3.17688C11.8162 2.96667 12.1798 2.42834 12.1688 1.83362C12.1578 1.23926 11.7733 0.715942 11.209 0.52771C10.3495 0.239502 9.44714 0.09375 8.53125 0.09375C3.87854 0.09375 0 3.97229 0 8.625Z" fill="#DEEDE6"/>
<path d="M36.5712 0.937409C36.1676 -0.174774 34.3329 -0.174774 33.929 0.937409L27.1064 19.8745H32.4377C32.9303 19.8745 33.3965 19.9862 33.844 20.1448V15.6562C33.844 14.8787 34.4728 14.2499 35.2502 14.2499C36.0273 14.2499 36.6565 14.8787 36.6565 15.6562V20.6985L37.0685 20.2865C37.6178 19.7372 38.5077 19.7372 39.057 20.2865C39.6063 20.8358 39.6063 21.7257 39.057 22.2751L37.3453 23.9867L43.5647 33.937H46.594C47.0525 33.937 47.4824 33.7129 47.7461 33.3368C48.0083 32.9618 48.0727 32.4814 47.9149 32.05L36.5712 0.937409Z" fill="#DEEDE6"/>
<path d="M25.4915 0.937408L18.6689 19.8745H24.1138L29.5348 4.87234L28.1337 0.937408C27.7297 -0.174774 25.895 -0.174774 25.4915 0.937408Z" fill="#DEEDE6"/>
<path d="M46.5939 48.093C47.1048 48.093 47.5757 47.8158 47.8244 47.3683C48.0716 46.9219 48.0577 46.3751 47.786 45.9412L33.6297 23.3478C33.373 22.9373 32.9226 22.6871 32.4377 22.6871H16.7646L27.774 44.8001C28.2893 45.828 28.3325 47.0233 27.9549 48.093H46.5939Z" fill="#DEEDE6"/>
<path d="M0.210497 47.4258C0.467211 47.8407 0.919115 48.093 1.40654 48.093H11.344V23.7612L0.148607 46.058C-0.0696544 46.4934 -0.0462169 47.0109 0.210497 47.4258Z" fill="#DEEDE6"/>
<path d="M25.196 47.4258C25.4528 47.0109 25.4762 46.4934 25.2576 46.058L14.1562 23.7612V48.093H23.9996C24.4874 48.093 24.939 47.8407 25.196 47.4258Z" fill="#DEEDE6"/>
</g>
<defs>
<clipPath id="clip0_1260_4769">
<rect width="48" height="48" fill="white"/>
</clipPath>
</defs>
</svg>
