<svg width="38" height="38" viewBox="0 0 38 38" fill="none" xmlns="http://www.w3.org/2000/svg">
<path d="M6.35392 31.3303C7.62127 22.6918 7.52657 23.3179 7.57778 23.0317C5.8159 22.7563 4.21538 21.9872 2.92315 20.8702C1.92409 22.0258 1.26659 23.4482 1.04275 24.9754L0.0266182 31.8981C-0.191956 33.3869 0.963481 34.7224 2.4673 34.7224H7.02686C6.42502 33.7099 6.18091 32.5147 6.35392 31.3303Z" fill="#3C6C54"/>
<path d="M37.9739 31.898L36.9577 24.9757C36.7337 23.4482 36.0762 22.0258 35.0773 20.8702C33.7853 21.9869 32.1853 22.7559 30.4238 23.0316C30.4697 23.2878 30.382 22.7069 31.6467 31.3281C31.82 32.5143 31.5758 33.7099 30.9742 34.7224H35.5332C37.038 34.7224 38.1922 33.3859 37.9739 31.898Z" fill="#3C6C54"/>
<path d="M9.61503 7.01106C5.61939 6.66713 2.21387 9.82685 2.21387 13.7975C2.21387 17.3102 4.88574 20.21 8.30352 20.5723C8.91567 19.115 9.74566 17.9399 10.7845 16.879C8.63483 13.9301 8.2975 10.1739 9.61503 7.01106Z" fill="#3C6C54"/>
<path d="M28.3879 7.01093C29.7133 10.2052 29.3474 13.964 27.2197 16.8828C28.2592 17.9429 29.0788 19.1072 29.6949 20.5725C33.1135 20.211 35.7863 17.3109 35.7863 13.7976C35.7863 9.83176 32.3861 6.66818 28.3879 7.01093Z" fill="#3C6C54"/>
<path d="M29.1395 31.6957L27.9747 23.755C27.702 21.8972 26.8499 20.1245 25.4823 18.7299C23.67 20.2277 21.3677 21.0687 19 21.0687C16.5391 21.0687 14.2798 20.189 12.5195 18.7278C11.1827 20.0934 10.3049 21.8521 10.0253 23.7552L8.86031 31.6966C8.62718 33.2921 9.86538 34.7225 11.4761 34.7225H26.5237C28.1357 34.7224 29.3725 33.2914 29.1395 31.6957Z" fill="#3C6C54"/>
<path d="M19.0004 3.27759C14.7941 3.27759 11.3721 6.69967 11.3721 10.9059C11.3721 15.1128 14.7941 18.5353 19.0004 18.5353C23.2034 18.5353 26.6288 15.1273 26.6288 10.9059C26.6288 6.66976 23.1849 3.27759 19.0004 3.27759Z" fill="#3C6C54"/>
</svg>
