<svg width="38" height="38" viewBox="0 0 38 38" fill="none" xmlns="http://www.w3.org/2000/svg">
<path d="M4.30031 24.0912C1.92909 24.0912 0 26.0325 0 28.4187C0 29.1741 0.197422 29.9186 0.570816 30.572C0.588332 30.6027 0.604512 30.6339 0.619355 30.6657L3.70166 36.1812C3.88691 36.5127 4.35761 36.523 4.55703 36.1999L7.86689 30.8371C7.94534 30.7105 7.97659 30.6607 7.99291 30.6346C8.00219 30.6198 8.00405 30.6167 8.01221 30.6032C8.01659 30.595 8.02112 30.587 8.02572 30.579C8.40178 29.924 8.60054 29.177 8.60054 28.4188C8.60054 26.0325 6.67145 24.0912 4.30031 24.0912ZM4.30031 30.1598C3.3443 30.1598 2.5693 29.3798 2.5693 28.4177C2.5693 27.4556 3.3443 26.6757 4.30031 26.6757C5.25632 26.6757 6.03131 27.4557 6.03131 28.4178C6.03131 29.3799 5.25632 30.1598 4.30031 30.1598Z" fill="#3C6C54"/>
<path d="M33.4585 16.5905C33.4494 16.5905 33.4402 16.5904 33.431 16.5902C32.985 16.5805 32.5774 16.3344 32.3587 15.9432L27.7722 7.73625C27.7573 7.70961 27.7435 7.68259 27.7306 7.65513C27.1707 6.63952 26.8753 5.49143 26.8753 4.32754C26.8753 3.76481 26.9444 3.21819 27.0719 2.69443C26.1141 2.32192 25.031 1.97258 23.9255 1.69247C24.0078 3.72354 23.4652 5.69828 22.3453 7.42572C21.2209 9.15999 19.5708 10.568 17.5734 11.4976C17.1869 11.6775 16.7962 11.8325 16.4182 11.9823C15.5192 12.3388 14.6701 12.6754 14.1421 13.2517C13.8474 13.5733 13.6097 14.0194 13.3581 14.4916C13.0981 14.9795 12.8036 15.5324 12.3949 16.0347C11.5266 17.1021 10.1906 17.8641 8.63306 18.1803C7.07744 18.496 5.74707 18.5148 4.5658 18.2381C3.09887 17.8942 2.62958 18.1093 2.21559 18.2986C2.02982 18.3837 1.81926 18.4801 1.56135 18.5392C1.53107 18.5461 1.37477 18.5748 1.17393 18.6104C1.15916 18.9141 1.15137 19.2196 1.15137 19.5269C1.15137 20.2619 1.24251 21.2959 1.35903 22.2232C2.25003 21.7931 3.2473 21.5518 4.29965 21.5518C8.06225 21.5518 11.1233 24.6324 11.1233 28.4188C11.1233 29.6032 10.8176 30.7707 10.2386 31.7993C10.2263 31.8231 10.2132 31.8466 10.1993 31.8698L10.1808 31.9008C10.1502 31.9519 10.1502 31.9519 10.1267 31.9893C10.1112 32.014 10.0817 32.0612 10.0085 32.1791L8.63885 34.3982C9.34875 34.9108 9.94421 35.2962 10.7333 35.7149C11.396 35.225 10.9347 35.5648 11.396 35.225C12.7307 34.242 14.2783 32.3454 14.5896 30.8011C14.9207 29.1592 14.8345 27.445 14.7432 25.6301L14.7232 25.2291C14.6529 23.7947 14.6261 22.3939 15.0624 21.0257C15.6239 19.2652 16.9286 17.9419 18.4674 17.5724C20.0553 17.191 21.4852 17.8129 22.7469 18.3614C22.9993 18.4712 23.2378 18.5749 23.4721 18.6685C26.2733 19.7877 29.4862 19.6453 32.2782 19.4239C32.4315 19.4117 32.5849 19.3993 32.7386 19.3868C34.4037 19.2511 36.1238 19.1123 37.8632 19.3864C37.8393 17.2697 37.2814 14.7849 36.5485 12.7207L34.5302 15.9908C34.2997 16.3641 33.894 16.5905 33.4585 16.5905Z" fill="#3C6C54"/>
<path d="M5.13909 15.7647C5.96114 15.9575 6.94105 15.9334 8.13493 15.6909C9.12308 15.4903 9.94283 15.0411 10.4432 14.426C10.6965 14.1147 10.9096 13.7148 11.1352 13.2915C11.4355 12.7278 11.7759 12.089 12.2879 11.5302C13.208 10.5261 14.4225 10.0445 15.4941 9.61956C15.8544 9.47669 16.1949 9.34176 16.515 9.19266C19.773 7.67637 21.6338 4.73582 21.3892 1.51718C21.3801 1.39724 21.3761 1.28918 21.3759 1.19002C20.7253 1.10274 20.0953 1.05368 19.5088 1.05368C10.6259 1.05368 3.21698 7.40339 1.51855 15.8386C2.28219 15.5381 3.30567 15.3351 5.13909 15.7647Z" fill="#3C6C54"/>
<path d="M37.4114 6.51225C37.4159 6.50401 37.4205 6.49577 37.4252 6.48768C37.8012 5.83263 38 5.08569 38 4.32755C38 1.94134 36.0709 0 33.6997 0C31.3285 0 29.3994 1.94134 29.3994 4.32755C29.3994 5.08295 29.5968 5.82736 29.9702 6.48063C29.9878 6.51129 30.004 6.54261 30.0188 6.57437L33.1011 12.0899C33.2863 12.4214 33.757 12.4317 33.9565 12.1086L37.2663 6.74582C37.345 6.6189 37.3761 6.56918 37.3924 6.54313C37.4016 6.52858 37.4035 6.52554 37.4114 6.51225ZM33.6997 6.06857C32.7437 6.06857 31.9687 5.28861 31.9687 4.32651C31.9687 3.36441 32.7437 2.58445 33.6997 2.58445C34.6558 2.58445 35.4307 3.36441 35.4307 4.32651C35.4307 5.28861 34.6558 6.06857 33.6997 6.06857Z" fill="#3C6C54"/>
<path d="M37.6068 21.9158C36.1235 21.6587 34.5787 21.7844 32.9433 21.9178C32.7879 21.9304 32.6326 21.9431 32.4775 21.9555C29.4029 22.1991 25.8461 22.3486 22.5421 21.0286C22.2727 20.921 22.0055 20.8048 21.7472 20.6925C20.759 20.2629 19.8257 19.8571 19.0542 20.0423C18.3785 20.2046 17.7552 20.8952 17.4661 21.8016C17.1588 22.765 17.184 23.8671 17.2446 25.1039L17.2644 25.5016C17.3595 27.3937 17.458 29.3503 17.0636 31.3061C16.6636 33.2901 15.1554 35.5619 13.4072 36.9124C15.3369 37.6068 17.4034 38 19.509 38C28.8383 38 36.5416 30.9961 37.7114 21.9284C37.6766 21.9253 37.6418 21.9218 37.6068 21.9158Z" fill="#3C6C54"/>
</svg>
