<svg width="38" height="38" viewBox="0 0 38 38" fill="none" xmlns="http://www.w3.org/2000/svg">
<path d="M37.0753 21.6425C36.6866 21.5453 36.2978 21.6425 35.9577 21.8855C34.6943 22.9545 33.2366 23.8291 31.6331 24.4122C30.1267 24.9953 28.4746 25.2869 26.7253 25.2869C22.7894 25.2869 19.1936 23.6834 16.6183 21.108C14.0429 18.5327 12.4394 14.9369 12.4394 11.001C12.4394 9.34888 12.731 7.74536 13.2169 6.28761C13.7514 4.73269 14.5289 3.32353 15.5493 2.10875C15.9866 1.57424 15.8894 0.796776 15.3549 0.359452C15.0148 0.116495 14.626 0.019312 14.2373 0.116495C10.107 1.2341 6.51126 3.71226 3.93591 7.01649C1.45774 10.2721 0 14.3052 0 18.6784C0 23.9749 2.13803 28.7855 5.63661 32.2841C9.1352 35.7826 13.8972 37.9207 19.2422 37.9207C23.7126 37.9207 27.8429 36.3657 31.1471 33.7904C34.5 31.1665 36.9295 27.4249 37.9499 23.1489C38.1443 22.4686 37.7556 21.7883 37.0753 21.6425Z" fill="#3C6C54"/>
</svg>
