<svg width="24" height="24" viewBox="0 0 24 24" fill="none" xmlns="http://www.w3.org/2000/svg">
<g clip-path="url(#clip0_1582_924)">
<path d="M4.61079 24C4.26105 24 3.91279 23.9037 3.60261 23.7118C3.0326 23.3597 2.69257 22.7494 2.69257 22.0793V19.2668C0.685548 16.724 -0.181824 13.5485 0.248292 10.29C0.937868 5.06196 5.23481 0.776915 10.4647 0.101804C14.1484 -0.374088 17.7644 0.833311 20.3894 3.41254C23.0146 5.99177 24.2848 9.58339 23.875 13.2669C23.2812 18.6015 18.9734 22.9902 13.6328 23.7027C11.5036 23.985 9.3503 23.6902 7.37477 22.8441L5.47028 23.7957C5.19746 23.9319 4.90339 24 4.61079 24ZM10.6822 1.78912C6.20381 2.36719 2.52466 6.0359 1.93378 10.5125C1.5531 13.3999 2.35657 16.2091 4.19678 18.4214C4.32368 18.5741 4.39307 18.7667 4.39307 18.9652V22.0793C4.39307 22.1796 4.44965 22.2353 4.49653 22.2653C4.54468 22.2942 4.62067 22.3191 4.71003 22.2743L6.97523 21.1425C7.20704 21.0262 7.48097 21.0222 7.71681 21.1333C9.49898 21.9696 11.4661 22.2752 13.4076 22.017C17.9848 21.4065 21.6759 17.6474 22.1849 13.0792C22.5367 9.91792 21.4475 6.83625 19.1972 4.6258C16.9472 2.41443 13.8437 1.3797 10.6822 1.78912ZM10.5734 0.945372H10.5817H10.5734Z" fill="#3C6C54"/>
<path d="M6.13603 14.5942L10.0395 9.03861C10.2021 8.75406 10.5771 8.67661 10.8391 8.87308L13.454 10.8341C13.6313 10.9671 13.8711 10.9793 14.061 10.8655L17.2452 8.61472C17.7125 8.33438 18.2561 8.83792 18.0126 9.32535L14.8603 14.7795C14.7184 15.0633 14.365 15.1662 14.0929 15.0029L10.602 12.9084C10.4423 12.8126 10.2447 12.8049 10.0781 12.8882L6.85233 15.3514C6.37058 15.5925 5.86869 15.0621 6.13603 14.5942Z" fill="#3C6C54"/>
</g>
<defs>
<clipPath id="clip0_1582_924">
<rect width="24" height="24" fill="white"/>
</clipPath>
</defs>
</svg>
