<svg width="14" height="14" viewBox="0 0 14 14" fill="none" xmlns="http://www.w3.org/2000/svg">
<g clip-path="url(#clip0_1270_5678)">
<path d="M0.841476 6.01732C0.898761 6.00803 0.956734 6.00374 1.01474 6.00449H10.8915L10.6761 5.90432C10.4656 5.80468 10.2741 5.66908 10.1101 5.50364L7.34046 2.73396C6.97569 2.38575 6.91439 1.82558 7.19521 1.40672C7.52205 0.960373 8.14882 0.863459 8.5952 1.19029C8.63126 1.21671 8.66554 1.24551 8.69775 1.2765L13.7062 6.28496C14.0976 6.67594 14.098 7.31016 13.707 7.70157C13.7067 7.70182 13.7065 7.70211 13.7062 7.70236L8.69775 12.7108C8.30603 13.1014 7.6718 13.1006 7.28114 12.7088C7.2504 12.678 7.22169 12.6452 7.19521 12.6106C6.91439 12.1918 6.97569 11.6316 7.34046 11.2834L10.1051 8.50872C10.2521 8.3616 10.4211 8.23823 10.606 8.1431L10.9065 8.00787H1.06986C0.558153 8.02687 0.109207 7.66943 0.0130758 7.16645C-0.0754805 6.62037 0.295397 6.10591 0.841476 6.01732Z" fill="#46C691"/>
</g>
<defs>
<clipPath id="clip0_1270_5678">
<rect width="14" height="14" fill="white" transform="matrix(-1 0 0 1 14 0)"/>
</clipPath>
</defs>
</svg>
