<svg width="18" height="18" viewBox="0 0 18 18" fill="none" xmlns="http://www.w3.org/2000/svg">
<path d="M18 2.16916C18 1.58451 17.7739 1.0373 17.3628 0.626183C16.542 -0.196056 15.0991 -0.193912 14.2775 0.626183L10.6819 4.22118L1.96259 2.84452C1.84883 2.82508 1.73362 2.86322 1.65156 2.94531L0.62053 3.97635C0.535557 4.06132 0.498115 4.183 0.522619 4.30109C0.546385 4.41918 0.627034 4.51779 0.737917 4.56388L7.53981 7.36399L4.48556 10.4182C4.43659 10.4665 4.39197 10.5176 4.34947 10.5702H1.39091C1.29515 10.5702 1.20371 10.6083 1.13603 10.6753L0.104996 11.7063C0.0149952 11.7963 -0.0202668 11.9267 0.0114092 12.0498C0.0430852 12.1729 0.135969 12.2701 0.258383 12.3061L4.45097 13.5395L5.68362 17.7313C5.71888 17.853 5.81609 17.9473 5.93921 17.9783C5.96874 17.9862 5.99898 17.9899 6.02847 17.9899C6.1228 17.9899 6.21494 17.9524 6.28336 17.884L7.31369 16.8537C7.38136 16.786 7.41954 16.6945 7.41954 16.5988V13.6403C7.4721 13.5978 7.52322 13.5524 7.57219 13.5035L10.6257 10.45L13.4258 17.2511C13.4719 17.3627 13.5706 17.4433 13.6886 17.4671C13.8067 17.4901 13.9291 17.4541 14.0134 17.3685L15.0444 16.3381C15.1258 16.256 15.1632 16.1408 15.1452 16.0271L13.7678 7.30714L17.3628 3.71215C17.7739 3.30173 18 2.75382 18 2.16916Z" fill="#444440"/>
</svg>
