<svg width="70" height="70" viewBox="0 0 70 70" fill="none" xmlns="http://www.w3.org/2000/svg">
<path d="M35 0C15.6702 0 0 15.6702 0 35C0 54.3298 15.6702 70 35 70C54.3312 70 70 54.3298 70 35C70 15.6702 54.3312 0 35 0ZM35 63C19.5608 63 7 50.4392 7 35C7 19.5608 19.5608 7 35 7C50.4392 7 63 19.5608 63 35C63 50.4392 50.4392 63 35 63Z" fill="white"/>
<path d="M47.7302 32.5496L30.7565 22.7496C28.4227 21.4028 26.5132 22.5046 26.5132 25.1996V44.7996C26.5132 47.4946 28.4227 48.5978 30.7565 47.2496L47.7302 37.4496C50.064 36.1028 50.064 33.8964 47.7302 32.5496Z" fill="white"/>
</svg>
