<svg width="14" height="14" viewBox="0 0 14 14" fill="none" xmlns="http://www.w3.org/2000/svg">
<path d="M13.1585 6.01735C13.1012 6.00806 13.0433 6.00377 12.9853 6.00452H3.10854L3.32391 5.90435C3.53442 5.80471 3.72593 5.66911 3.88986 5.50367L6.65954 2.73399C7.02431 2.38578 7.08561 1.82561 6.80479 1.40675C6.47795 0.960403 5.85118 0.863489 5.4048 1.19032C5.36874 1.21674 5.33446 1.24554 5.30225 1.27653L0.293786 6.28499C-0.0976257 6.67597 -0.0979701 7.31019 0.293003 7.7016C0.293253 7.70185 0.293535 7.70214 0.293786 7.70239L5.30225 12.7108C5.69397 13.1015 6.3282 13.1006 6.71886 12.7089C6.7496 12.678 6.77831 12.6452 6.80479 12.6107C7.08561 12.1918 7.02431 11.6317 6.65954 11.2834L3.89487 8.50875C3.7479 8.36163 3.57893 8.23826 3.39402 8.14313L3.09352 8.0079H12.9301C13.4418 8.0269 13.8908 7.66946 13.9869 7.16648C14.0755 6.6204 13.7046 6.10594 13.1585 6.01735Z" fill="#46C691"/>
</svg>
