<svg width="14" height="14" viewBox="0 0 14 14" fill="none" xmlns="http://www.w3.org/2000/svg">
<path d="M0.841476 6.01717C0.898761 6.00787 0.956734 6.00358 1.01474 6.00434H10.8915L10.6761 5.90417C10.4656 5.80453 10.2741 5.66893 10.1101 5.50349L7.34046 2.73381C6.97569 2.3856 6.91439 1.82543 7.19521 1.40657C7.52205 0.96022 8.14882 0.863306 8.5952 1.19014C8.63126 1.21656 8.66554 1.24536 8.69775 1.27635L13.7062 6.28481C14.0976 6.67578 14.098 7.31001 13.707 7.70142C13.7067 7.70167 13.7065 7.70195 13.7062 7.7022L8.69775 12.7107C8.30603 13.1013 7.6718 13.1004 7.28114 12.7087C7.2504 12.6779 7.22169 12.6451 7.19521 12.6105C6.91439 12.1916 6.97569 11.6315 7.34046 11.2833L10.1051 8.50857C10.2521 8.36144 10.4211 8.23808 10.606 8.14295L10.9065 8.00772H1.06986C0.558153 8.02672 0.109207 7.66927 0.0130758 7.1663C-0.0754805 6.62022 0.295397 6.10576 0.841476 6.01717Z" fill="#46C691"/>
</svg>
