<svg width="14" height="14" viewBox="0 0 14 14" fill="none" xmlns="http://www.w3.org/2000/svg">
<path d="M0.841476 6.01729C0.898761 6.008 0.956734 6.00371 1.01474 6.00446H10.8915L10.6761 5.90429C10.4656 5.80465 10.2741 5.66905 10.1101 5.50361L7.34046 2.73393C6.97569 2.38572 6.91439 1.82555 7.19521 1.40669C7.52205 0.960342 8.14882 0.863428 8.5952 1.19026C8.63126 1.21668 8.66554 1.24548 8.69775 1.27647L13.7062 6.28493C14.0976 6.6759 14.098 7.31013 13.707 7.70154C13.7067 7.70179 13.7065 7.70208 13.7062 7.70233L8.69775 12.7108C8.30603 13.1014 7.6718 13.1005 7.28114 12.7088C7.2504 12.678 7.22169 12.6452 7.19521 12.6106C6.91439 12.1918 6.97569 11.6316 7.34046 11.2834L10.1051 8.50869C10.2521 8.36157 10.4211 8.2382 10.606 8.14307L10.9065 8.00784H1.06986C0.558153 8.02684 0.109207 7.6694 0.0130758 7.16642C-0.0754805 6.62034 0.295397 6.10588 0.841476 6.01729Z" fill="#46C691"/>
</svg>
